<?xml version="1.0" encoding="iso-8859-1"?>
<!-- Generator: Adobe Illustrator 16.0.0, SVG Export Plug-In . SVG Version: 6.00 Build 0)  -->
<!DOCTYPE svg PUBLIC "-//W3C//DTD SVG 1.1//EN" "http://www.w3.org/Graphics/SVG/1.1/DTD/svg11.dtd">
<svg version="1.1" id="&#x5716;&#x5C64;_1" xmlns="http://www.w3.org/2000/svg" xmlns:xlink="http://www.w3.org/1999/xlink" x="0px"
	 y="0px" width="26.5px" height="25px" viewBox="0 0 26.5 25" style="enable-background:new 0 0 26.5 25;" xml:space="preserve">
<g>
	<path style="fill:#394553;" d="M21.079,19.109h-8.548c-2.285,0-3.638-1.324-4.136-4.048c-0.011-0.056-0.064-0.277-0.064-0.278
		L5.99,3.493H2.143c-0.256,0-0.463-0.206-0.463-0.462s0.207-0.463,0.463-0.463h4.225c0.219,0,0.407,0.154,0.453,0.368l2.413,11.642
		c0,0,0.061,0.256,0.072,0.315c0.532,2.918,2.003,3.29,3.226,3.29h8.548c0.256,0,0.463,0.209,0.463,0.464
		S21.335,19.109,21.079,19.109z"/>
	<path style="fill:#394553;" d="M21.297,22.618c-1.223,0-2.217-0.994-2.217-2.217s0.994-2.218,2.217-2.218
		c1.222,0,2.217,0.995,2.217,2.218S22.519,22.618,21.297,22.618z M21.297,19.109c-0.714,0-1.292,0.579-1.292,1.292
		c0,0.712,0.578,1.292,1.292,1.292c0.712,0,1.292-0.58,1.292-1.292C22.589,19.688,22.009,19.109,21.297,19.109z"/>
	<path style="fill:#394553;" d="M22.764,15.177L22.764,15.177L8.904,15.175c-0.256,0-0.464-0.208-0.464-0.463
		c0-0.256,0.208-0.462,0.464-0.462l0,0l13.521,0.002l2.047-6.316L7.16,6.772C6.906,6.756,6.713,6.535,6.73,6.28
		c0.017-0.255,0.242-0.451,0.491-0.43l17.905,1.203c0.143,0.01,0.273,0.084,0.352,0.202c0.08,0.117,0.101,0.266,0.058,0.401
		l-2.333,7.199C23.141,15.048,22.963,15.177,22.764,15.177z"/>
	<path style="fill:#394553;" d="M11.377,22.618c-1.223,0-2.217-0.994-2.217-2.217s0.994-2.218,2.217-2.218s2.219,0.995,2.219,2.218
		S12.6,22.618,11.377,22.618z M11.377,19.109c-0.712,0-1.292,0.579-1.292,1.292c0,0.712,0.58,1.292,1.292,1.292
		c0.714,0,1.292-0.58,1.292-1.292C12.669,19.688,12.091,19.109,11.377,19.109z"/>
	<path style="fill:#394553;" d="M24.072,11.09H8.093c-0.256,0-0.462-0.208-0.462-0.463c0-0.256,0.206-0.462,0.462-0.462h15.979
		c0.254,0,0.462,0.206,0.462,0.462C24.534,10.882,24.326,11.09,24.072,11.09z"/>
	<path style="fill:#394553;" d="M15.74,15.075c-0.256,0-0.462-0.206-0.462-0.462V6.926c0-0.255,0.206-0.463,0.462-0.463
		s0.463,0.208,0.463,0.463v7.688C16.203,14.869,15.996,15.075,15.74,15.075z"/>
	<path style="fill:#394553;" d="M19.391,15.038c-0.021,0-0.044-0.002-0.066-0.005c-0.254-0.036-0.429-0.27-0.393-0.523l1.05-7.305
		c0.035-0.252,0.27-0.428,0.523-0.392c0.253,0.036,0.428,0.271,0.392,0.523l-1.049,7.305C19.813,14.872,19.616,15.038,19.391,15.038
		z"/>
	<path style="fill:#394553;" d="M12.152,15.143c-0.226,0-0.424-0.166-0.456-0.396L10.549,6.65c-0.036-0.253,0.14-0.487,0.393-0.523
		c0.253-0.035,0.487,0.142,0.523,0.394l1.146,8.095c0.036,0.254-0.14,0.486-0.392,0.522C12.197,15.142,12.176,15.143,12.152,15.143z
		"/>
</g>
</svg>
