<?xml version="1.0" encoding="utf-8"?>
<!-- Generator: Adobe Illustrator 23.1.1, SVG Export Plug-In . SVG Version: 6.00 Build 0)  -->
<svg version="1.1" id="圖層_1" xmlns="http://www.w3.org/2000/svg" xmlns:xlink="http://www.w3.org/1999/xlink" x="0px" y="0px"
	 viewBox="0 0 150 150" style="enable-background:new 0 0 150 150;" xml:space="preserve">
<style type="text/css">
	.st0{fill:none;stroke:#F6AA00;stroke-width:5;stroke-linecap:round;stroke-linejoin:round;stroke-miterlimit:10;}
</style>
<g>
	<g>
		<g>
			<path class="st0" d="M27.09,55.89C14.33,59.59,5,71.37,5,85.32v5.42c0,4.12,3.34,7.47,7.47,7.47h21.95"/>
			<circle class="st0" cx="37.73" cy="40.48" r="18.73"/>
		</g>
		<g>
			<path class="st0" d="M122.91,55.89C135.67,59.59,145,71.37,145,85.32v5.42c0,4.12-3.34,7.47-7.47,7.47h-21.95"/>
			<circle class="st0" cx="112.27" cy="40.48" r="18.73"/>
		</g>
	</g>
	<g>
		<path class="st0" d="M64.37,85.92c-12.76,3.7-22.09,15.47-22.09,29.43v5.42c0,4.12,3.34,7.47,7.47,7.47h50.52
			c4.12,0,7.47-3.34,7.47-7.47v-5.42c0-13.96-9.33-25.73-22.09-29.43"/>
		<circle class="st0" cx="75" cy="70.51" r="18.73"/>
	</g>
</g>
</svg>
