<?xml version="1.0" encoding="utf-8"?>
<!-- Generator: Adobe Illustrator 23.1.1, SVG Export Plug-In . SVG Version: 6.00 Build 0)  -->
<svg version="1.1" id="圖層_1" xmlns="http://www.w3.org/2000/svg" xmlns:xlink="http://www.w3.org/1999/xlink" x="0px" y="0px"
	 viewBox="0 0 150 150" style="enable-background:new 0 0 150 150;" xml:space="preserve">
<style type="text/css">
	.st0{fill:none;stroke:#F6AA00;stroke-width:4;stroke-linecap:round;stroke-linejoin:round;stroke-miterlimit:10;}
	.st1{fill:#F6AA00;}
</style>
<g>
	<g>
		<path class="st0" d="M68.97,60.1H19.78C11.65,60.1,5,66.75,5,74.88v27.94c0,8.13,6.65,14.78,14.78,14.78h20.62l21.53,11.99
			c3.05,1.7,6.38-1.72,4.6-4.72l-4.29-7.26h6.73c8.13,0,14.78-6.65,14.78-14.78V74.88C83.74,66.75,77.09,60.1,68.97,60.1z"/>
		<g>
			<path class="st1" d="M32.89,93.87c-0.8,0.8-1.76,1.2-2.88,1.2s-2.08-0.4-2.88-1.2c-0.8-0.8-1.2-1.76-1.2-2.88s0.4-2.08,1.2-2.88
				c0.8-0.8,1.76-1.2,2.88-1.2s2.08,0.4,2.88,1.2c0.8,0.8,1.2,1.76,1.2,2.88S33.69,93.07,32.89,93.87z"/>
			<path class="st1" d="M47.25,93.87c-0.8,0.8-1.76,1.2-2.88,1.2s-2.08-0.4-2.88-1.2c-0.8-0.8-1.2-1.76-1.2-2.88s0.4-2.08,1.2-2.88
				c0.8-0.8,1.76-1.2,2.88-1.2s2.08,0.4,2.88,1.2c0.8,0.8,1.2,1.76,1.2,2.88S48.05,93.07,47.25,93.87z"/>
			<path class="st1" d="M61.61,93.87c-0.8,0.8-1.76,1.2-2.88,1.2c-1.12,0-2.08-0.4-2.88-1.2c-0.8-0.8-1.2-1.76-1.2-2.88
				s0.4-2.08,1.2-2.88c0.8-0.8,1.76-1.2,2.88-1.2c1.12,0,2.08,0.4,2.88,1.2c0.8,0.8,1.2,1.76,1.2,2.88S62.41,93.07,61.61,93.87z"/>
		</g>
	</g>
	<g>
		<path class="st1" d="M111.34,55.51c0-1.09,0.39-2.03,1.17-2.81c0.78-0.78,1.72-1.17,2.81-1.17s2.03,0.39,2.81,1.17
			c0.78,0.78,1.17,1.72,1.17,2.81s-0.39,2.03-1.17,2.81c-0.78,0.78-1.72,1.17-2.81,1.17s-2.03-0.39-2.81-1.17
			C111.73,57.55,111.34,56.61,111.34,55.51z"/>
		<path class="st1" d="M97.31,55.51c0-1.09,0.39-2.03,1.17-2.81c0.78-0.78,1.72-1.17,2.81-1.17s2.03,0.39,2.81,1.17
			c0.78,0.78,1.17,1.72,1.17,2.81s-0.39,2.03-1.17,2.81c-0.78,0.78-1.72,1.17-2.81,1.17s-2.03-0.39-2.81-1.17
			C97.7,57.55,97.31,56.61,97.31,55.51z"/>
		<path class="st1" d="M83.29,55.51c0-1.09,0.39-2.03,1.17-2.81c0.78-0.78,1.72-1.17,2.81-1.17s2.03,0.39,2.81,1.17
			c0.78,0.78,1.17,1.72,1.17,2.81s-0.39,2.03-1.17,2.81c-0.78,0.78-1.72,1.17-2.81,1.17s-2.03-0.39-2.81-1.17
			C83.68,57.55,83.29,56.61,83.29,55.51z"/>
	</g>
	<path class="st0" d="M83.74,87.4c3.9,1.27,8.09,2.09,12.46,2.39l-2.07,8.11c-0.88,3.29,3.16,5.63,5.57,3.23l12.76-12.65
		c19.56-4.58,33.53-19.49,32.49-36.26c-1.2-19.26-21.74-33.66-45.89-32.16C74.9,21.58,56.3,38.41,57.49,57.67"/>
</g>
</svg>
