<?xml version="1.0" encoding="utf-8"?>
<!-- Generator: Adobe Illustrator 23.1.1, SVG Export Plug-In . SVG Version: 6.00 Build 0)  -->
<svg version="1.1" id="圖層_1" xmlns="http://www.w3.org/2000/svg" xmlns:xlink="http://www.w3.org/1999/xlink" x="0px" y="0px"
	 viewBox="0 0 150 150" style="enable-background:new 0 0 150 150;" xml:space="preserve">
<style type="text/css">
	.st0{fill:none;stroke:#F6AA00;stroke-width:4;stroke-linecap:round;stroke-linejoin:round;stroke-miterlimit:10;}
</style>
<g>
	<g>
		<path class="st0" d="M31.91,94.74H7.83C6.27,94.74,5,93.47,5,91.91V39.04c0-1.56,1.27-2.83,2.83-2.83H36.2
			c1.56,0,2.83,1.27,2.83,2.83v22.62"/>
		<circle class="st0" cx="22.02" cy="88.57" r="2.39"/>
		<line class="st0" x1="5" y1="42.81" x2="39.03" y2="42.81"/>
		<line class="st0" x1="5" y1="81.97" x2="31.91" y2="81.97"/>
	</g>
	<g>
		<path class="st0" d="M86.56,61.66V27.43c0-2.65,2.15-4.81,4.81-4.81h48.83c2.65,0,4.81,2.15,4.81,4.81v62.5
			c0,2.65-2.15,4.81-4.81,4.81h-33.82"/>
		<circle class="st0" cx="115.78" cy="87.99" r="2.39"/>
		<line class="st0" x1="86.56" y1="30.76" x2="145" y2="30.76"/>
		<line class="st0" x1="106.37" y1="81.17" x2="145" y2="81.17"/>
	</g>
	<g>
		<path class="st0" d="M100.7,114.33H37.59c-3.12,0-5.67-2.55-5.67-5.67V67.33c0-3.12,2.55-5.67,5.67-5.67h63.12
			c3.12,0,5.67,2.55,5.67,5.67v41.33C106.37,111.78,103.82,114.33,100.7,114.33z"/>
		<rect x="59.27" y="114.33" class="st0" width="19.74" height="13.04"/>
		<line class="st0" x1="49.68" y1="127.37" x2="88.6" y2="127.37"/>
		<line class="st0" x1="31.91" y1="104.08" x2="106.37" y2="104.08"/>
	</g>
</g>
</svg>
