<?xml version="1.0" encoding="utf-8"?>
<!-- Generator: Adobe Illustrator 23.1.1, SVG Export Plug-In . SVG Version: 6.00 Build 0)  -->
<svg version="1.1" id="圖層_1" xmlns="http://www.w3.org/2000/svg" xmlns:xlink="http://www.w3.org/1999/xlink" x="0px" y="0px"
	 viewBox="0 0 150 150" style="enable-background:new 0 0 150 150;" xml:space="preserve">
<style type="text/css">
	.st0{fill:none;stroke:#F6AA00;stroke-width:4;stroke-linecap:round;stroke-linejoin:round;stroke-miterlimit:10;}
</style>
<g>
	<g>
		<polygon class="st0" points="121.5,28.23 96.75,16.06 96.75,40.4 		"/>
		<path class="st0" d="M127.33,51.61H86.45c-6.28,0-11.37-5.09-11.37-11.37V16.37C75.07,10.09,80.17,5,86.45,5h40.88
			c6.28,0,11.37,5.09,11.37,11.37v23.86C138.7,46.51,133.61,51.61,127.33,51.61z"/>
	</g>
	<g>
		<path class="st0" d="M25.33,145h-3.92c-5.58,0-10.11-4.53-10.11-10.11v-34.26c0-7.17,5.81-12.98,12.98-12.98h70.34
			c4.49,0,8.01,3.87,7.59,8.34l0,0c-0.37,3.91-3.66,6.9-7.59,6.9H63.89c-0.45,0.43-0.81,0.8-0.81,1.24V145"/>
		<line class="st0" x1="26.21" y1="109.49" x2="26.21" y2="145"/>
		<circle class="st0" cx="43.49" cy="62.96" r="17.29"/>
	</g>
	<line class="st0" x1="95.58" y1="87.64" x2="107.01" y2="62.96"/>
</g>
</svg>
