<?xml version="1.0" encoding="utf-8"?>
<!-- Generator: Adobe Illustrator 23.1.1, SVG Export Plug-In . SVG Version: 6.00 Build 0)  -->
<svg version="1.1" id="圖層_1" xmlns="http://www.w3.org/2000/svg" xmlns:xlink="http://www.w3.org/1999/xlink" x="0px" y="0px"
	 viewBox="0 0 200 200" style="enable-background:new 0 0 200 200;" xml:space="preserve">
<style type="text/css">
	.st0{fill:#F6AA00;}
	.st1{fill:none;stroke:#F6AA00;stroke-width:5;stroke-linecap:round;stroke-linejoin:round;stroke-miterlimit:10;}
</style>
<g>
	<g>
		<path class="st0" d="M86.15,75.46c-1.76,5.47-3.65,11.08-5.65,16.83c-0.52,1.48-1.21,2.52-2.06,3.12
			c-0.85,0.59-1.76,0.89-2.73,0.89c-1.08,0-2.01-0.29-2.81-0.86c-0.8-0.57-1.46-1.62-1.98-3.14c-1.97-5.71-3.81-11.27-5.54-16.67
			c-1.73-5.4-3.33-10.73-4.81-16c-0.22-0.74-0.25-1.41-0.08-2c0.17-0.59,0.44-1.1,0.83-1.53c0.39-0.43,0.86-0.76,1.42-1
			c0.56-0.24,1.11-0.36,1.67-0.36c0.74,0,1.45,0.23,2.11,0.7c0.67,0.46,1.15,1.18,1.45,2.14c1.19,4.12,2.43,8.38,3.73,12.77
			c1.3,4.4,2.71,8.82,4.23,13.27c1.56-4.49,3.01-8.94,4.37-13.36c1.35-4.41,2.62-8.7,3.81-12.86c0.26-0.93,0.7-1.6,1.31-2.03
			c0.61-0.43,1.29-0.64,2.03-0.64c0.56,0,1.09,0.11,1.61,0.33c0.52,0.22,0.96,0.53,1.34,0.92c0.37,0.39,0.63,0.87,0.78,1.45
			c0.15,0.58,0.11,1.2-0.11,1.86C89.56,64.6,87.92,69.99,86.15,75.46z"/>
		<path class="st0" d="M102.71,95.19c-0.74,0.74-1.65,1.11-2.73,1.11c-1.08,0-1.98-0.37-2.7-1.11c-0.72-0.74-1.09-1.65-1.09-2.73
			V58.57c0-1.08,0.36-1.98,1.09-2.73c0.72-0.74,1.62-1.11,2.7-1.11c1.08,0,1.98,0.37,2.73,1.11c0.74,0.74,1.11,1.65,1.11,2.73v33.89
			C103.82,93.54,103.45,94.45,102.71,95.19z"/>
		<path class="st0" d="M138.77,74.16c-0.56,1.37-1.36,2.55-2.42,3.53c-1.06,0.98-2.36,1.74-3.9,2.28c-1.54,0.54-3.29,0.81-5.26,0.81
			h-7.07v11.69c0,1.08-0.37,1.99-1.11,2.73c-0.74,0.74-1.65,1.11-2.73,1.11c-1.08,0-1.98-0.37-2.7-1.11
			c-0.72-0.74-1.09-1.65-1.09-2.73V59.07c0-1.08,0.36-1.98,1.09-2.73c0.72-0.74,1.62-1.11,2.7-1.11h10.57c2.41,0,4.43,0.33,6.07,1
			c1.63,0.67,2.94,1.55,3.92,2.64c0.98,1.09,1.69,2.33,2.11,3.7c0.43,1.37,0.64,2.75,0.64,4.12v2.89
			C139.61,71.26,139.33,72.78,138.77,74.16z M131.93,66.86c0-0.56-0.08-1.09-0.25-1.61c-0.17-0.52-0.45-0.98-0.86-1.39
			c-0.41-0.41-0.99-0.74-1.75-1c-0.76-0.26-1.72-0.39-2.87-0.39h-6.07v11.35h6.73c0.96,0,1.77-0.12,2.42-0.36
			c0.65-0.24,1.17-0.57,1.56-1c0.39-0.43,0.67-0.9,0.83-1.42c0.17-0.52,0.25-1.06,0.25-1.61V66.86z"/>
	</g>
	<g>
		<polyline class="st1" points="95.98,146.04 78.16,195 64.32,179.96 44.22,182.65 64.12,127.98 		"/>
		<polyline class="st1" points="103.71,145.2 121.84,195 135.68,179.96 155.78,182.65 135.88,127.98 		"/>
	</g>
	<g>
		<path class="st1" d="M154.95,94.68l13.03-13.03c3.39-3.39,3.39-8.88,0-12.27l-13.03-13.03c-1.63-1.63-2.54-3.83-2.54-6.14V31.79
			c0-4.79-3.88-8.68-8.68-8.68H125.3c-2.3,0-4.51-0.91-6.14-2.54L106.14,7.54c-3.39-3.39-8.88-3.39-12.27,0L80.83,20.57
			c-1.63,1.63-3.83,2.54-6.14,2.54H56.27c-4.79,0-8.68,3.88-8.68,8.68v18.43c0,2.3-0.91,4.51-2.54,6.14L32.02,69.38
			c-3.39,3.39-3.39,8.88,0,12.27l13.03,13.03c1.63,1.63,2.54,3.83,2.54,6.14v18.43c0,4.79,3.88,8.68,8.68,8.68H74.7
			c2.3,0,4.51,0.91,6.14,2.54l13.03,13.03c3.39,3.39,8.88,3.39,12.27,0l13.03-13.03c1.63-1.63,3.83-2.54,6.14-2.54h18.43
			c4.79,0,8.68-3.88,8.68-8.68v-18.43C152.41,98.52,153.32,96.31,154.95,94.68z"/>
		<g>
			<circle class="st0" cx="100" cy="24.58" r="4"/>
			<circle class="st0" cx="100" cy="126.46" r="4"/>
		</g>
		<g>
			<circle class="st0" cx="136.02" cy="39.5" r="4"/>
			<circle class="st0" cx="63.98" cy="111.54" r="4"/>
		</g>
		<g>
			<circle class="st0" cx="136.02" cy="111.54" r="4"/>
			<circle class="st0" cx="63.98" cy="39.5" r="4"/>
		</g>
		<g>
			<circle class="st0" cx="49.06" cy="75.52" r="4"/>
			<circle class="st0" cx="150.94" cy="75.52" r="4"/>
		</g>
	</g>
</g>
</svg>
