<?xml version="1.0" encoding="utf-8"?>
<!-- Generator: Adobe Illustrator 23.1.1, SVG Export Plug-In . SVG Version: 6.00 Build 0)  -->
<svg version="1.1" id="圖層_1" xmlns="http://www.w3.org/2000/svg" xmlns:xlink="http://www.w3.org/1999/xlink" x="0px" y="0px"
	 viewBox="0 0 200 200" style="enable-background:new 0 0 200 200;" xml:space="preserve">
<style type="text/css">
	.st0{fill:none;stroke:#F6AA00;stroke-width:5;stroke-linecap:round;stroke-linejoin:round;stroke-miterlimit:10;}
	.st1{fill:#F6AA00;stroke:#F6AA00;stroke-width:2;stroke-miterlimit:10;}
	.st2{fill:none;stroke:#F6AA00;stroke-width:4;stroke-linecap:round;stroke-linejoin:round;stroke-miterlimit:10;}
	.st3{fill:#FFFFFF;stroke:#F6AA00;stroke-width:5;stroke-linecap:round;stroke-linejoin:round;stroke-miterlimit:10;}
	.st4{fill:#F6AA00;}
</style>
<g>
	<g>
		<g>
			<path class="st0" d="M128.8,163.87H37.11c-2,0-3.62-1.62-3.62-3.62V75.96c0-2,1.62-3.62,3.62-3.62h114.71
				c2,0,3.62,1.62,3.62,3.62v49.4"/>
			<line class="st0" x1="33.49" y1="91.9" x2="155.44" y2="91.9"/>
			<g>
				<circle class="st1" cx="45.58" cy="81.56" r="1.95"/>
				<circle class="st1" cx="57" cy="81.56" r="1.95"/>
				<circle class="st1" cx="68.42" cy="81.56" r="1.95"/>
			</g>
			<g>
				<line class="st0" x1="99.21" y1="114.51" x2="138.04" y2="114.51"/>
				<line class="st0" x1="99.21" y1="126.34" x2="138.04" y2="126.34"/>
				<line class="st0" x1="99.21" y1="138.16" x2="133.9" y2="138.16"/>
			</g>
			<rect x="50.89" y="108.65" class="st0" width="38.87" height="35.38"/>
		</g>
	</g>
	<g>
		<path class="st2" d="M188.38,150.12h-3.49c-2.68,0-4.02-3.24-2.13-5.13l2.47-2.47c1.17-1.17,1.17-3.08,0-4.25l-6.02-6.02
			c-1.17-1.17-3.08-1.17-4.25,0l-2.47,2.47c-1.89,1.89-5.13,0.55-5.13-2.13v-3.49c0-1.66-1.35-3.01-3.01-3.01h-8.51
			c-1.66,0-3.01,1.35-3.01,3.01v3.49c0,2.68-3.24,4.02-5.13,2.13l-2.47-2.47c-1.17-1.17-3.08-1.17-4.25,0l-6.02,6.02
			c-1.17,1.17-1.17,3.08,0,4.25l2.47,2.47c1.89,1.89,0.55,5.13-2.13,5.13h-3.49c-1.66,0-3.01,1.35-3.01,3.01v8.51
			c0,1.66,1.35,3.01,3.01,3.01h3.49c2.68,0,4.02,3.24,2.13,5.13l-2.47,2.47c-1.17,1.17-1.17,3.08,0,4.25l6.02,6.02
			c1.17,1.17,3.08,1.17,4.25,0l2.47-2.47c1.89-1.89,5.13-0.55,5.13,2.13v3.49c0,1.66,1.35,3.01,3.01,3.01h8.51
			c1.66,0,3.01-1.35,3.01-3.01v-3.49c0-2.68,3.24-4.02,5.13-2.13l2.47,2.47c1.17,1.17,3.08,1.17,4.25,0l6.02-6.02
			c1.17-1.17,1.17-3.08,0-4.25l-2.47-2.47c-1.89-1.89-0.55-5.13,2.13-5.13h3.49c1.66,0,3.01-1.35,3.01-3.01v-8.51
			C191.38,151.47,190.04,150.12,188.38,150.12z"/>
		<circle class="st2" cx="160.09" cy="157.38" r="10.65"/>
	</g>
	<g>
		<path class="st3" d="M130.73,14.17h49.42c8.17,0,14.85,6.68,14.85,14.85v28.07c0,8.17-6.68,14.85-14.85,14.85h-20.72L137.8,83.98
			c-3.06,1.7-6.41-1.73-4.63-4.75l4.31-7.3h-6.76c-8.17,0-14.85-6.68-14.85-14.85V29.01C115.88,20.85,122.56,14.17,130.73,14.17z"/>
		<g>
			<path class="st4" d="M165.78,45.21c0-1.13,0.4-2.09,1.2-2.89c0.8-0.8,1.77-1.2,2.89-1.2c1.13,0,2.09,0.4,2.89,1.2
				c0.8,0.8,1.2,1.77,1.2,2.89s-0.4,2.09-1.2,2.89c-0.8,0.8-1.77,1.2-2.89,1.2c-1.13,0-2.09-0.4-2.89-1.2
				C166.18,47.3,165.78,46.33,165.78,45.21z"/>
			<path class="st4" d="M151.35,45.21c0-1.13,0.4-2.09,1.2-2.89c0.8-0.8,1.77-1.2,2.89-1.2s2.09,0.4,2.89,1.2
				c0.8,0.8,1.2,1.77,1.2,2.89s-0.4,2.09-1.2,2.89c-0.8,0.8-1.77,1.2-2.89,1.2s-2.09-0.4-2.89-1.2
				C151.75,47.3,151.35,46.33,151.35,45.21z"/>
			<path class="st4" d="M136.92,45.21c0-1.13,0.4-2.09,1.2-2.89c0.8-0.8,1.77-1.2,2.89-1.2s2.09,0.4,2.89,1.2
				c0.8,0.8,1.2,1.77,1.2,2.89s-0.4,2.09-1.2,2.89c-0.8,0.8-1.77,1.2-2.89,1.2s-2.09-0.4-2.89-1.2
				C137.32,47.3,136.92,46.33,136.92,45.21z"/>
		</g>
	</g>
	<g>
		<polygon class="st0" points="54.47,36.08 28.1,23.11 28.1,49.05 		"/>
		<path class="st0" d="M60.69,60.99H17.12C10.43,60.99,5,55.57,5,48.87V23.45c0-6.69,5.43-12.12,12.12-12.12h43.57
			c6.69,0,12.12,5.43,12.12,12.12v25.43C72.81,55.57,67.38,60.99,60.69,60.99z"/>
	</g>
</g>
</svg>
