<?xml version="1.0" encoding="utf-8"?>
<!-- Generator: Adobe Illustrator 23.1.1, SVG Export Plug-In . SVG Version: 6.00 Build 0)  -->
<svg version="1.1" id="圖層_1" xmlns="http://www.w3.org/2000/svg" xmlns:xlink="http://www.w3.org/1999/xlink" x="0px" y="0px"
	 viewBox="0 0 200 200" style="enable-background:new 0 0 200 200;" xml:space="preserve">
<style type="text/css">
	.st0{fill:none;stroke:#F6AA00;stroke-width:5;stroke-linecap:round;stroke-linejoin:round;stroke-miterlimit:10;}
	.st1{fill:#F6AA00;stroke:#F6AA00;stroke-width:2;stroke-miterlimit:10;}
	.st2{fill:#F6AA00;}
</style>
<g>
	<line class="st0" x1="5" y1="47.8" x2="195" y2="47.8"/>
	<g>
		<circle class="st1" cx="23.62" cy="31.7" r="3.03"/>
		<circle class="st1" cx="41.41" cy="31.7" r="3.03"/>
		<circle class="st1" cx="59.2" cy="31.7" r="3.03"/>
	</g>
	<path class="st0" d="M175.07,162.71h14.29c3.12,0,5.64-2.53,5.64-5.64V22.97c0-3.12-2.53-5.64-5.64-5.64H10.64
		C7.53,17.33,5,19.86,5,22.97v134.09c0,3.12,2.53,5.64,5.64,5.64H132.9"/>
	<path class="st2" d="M174.33,150.17l-28.45-25.23l-8.08-7.17c-0.54-0.48-1.16-0.69-1.76-0.69c-1.57,0-3.02,1.41-2.65,3.23
		l1.94,9.46l6.74,32.93l1.12,5.45c0.28,1.36,1.45,2.15,2.64,2.15c0.74,0,1.5-0.31,2.05-0.97l5.52-6.63l1.98-2.38l1.38,2.38
		l10.75,18.62c0.5,0.86,1.4,1.34,2.33,1.34c0.46,0,0.92-0.12,1.34-0.36l1.43-0.83c1.28-0.74,1.72-2.38,0.98-3.67l-8.72-15.11
		l-3.4-5.89l11.56-1.99C175.22,154.44,176.01,151.67,174.33,150.17z"/>
	<g>
		<path class="st0" d="M124.96,124.21H38.43c-3.08,0-5.57-2.49-5.57-5.57V81.07c0-3.08,2.49-5.57,5.57-5.57h123.15
			c3.08,0,5.57,2.49,5.57,5.57v37.56c0,3.08-2.49,5.57-5.57,5.57h-2.29"/>
		<g>
			<path class="st2" d="M65.48,112.1c-0.46,0.45-1.01,0.67-1.65,0.67H52.44c-0.64,0-1.18-0.22-1.63-0.67
				c-0.45-0.45-0.67-1.01-0.67-1.67v-21.4c0-0.69,0.23-1.27,0.69-1.74c0.46-0.47,1.03-0.71,1.72-0.71c0.69,0,1.27,0.24,1.74,0.71
				c0.47,0.47,0.71,1.05,0.71,1.74v19.09h8.83c0.64,0,1.19,0.23,1.65,0.67c0.46,0.45,0.69,0.99,0.69,1.63
				C66.17,111.09,65.94,111.65,65.48,112.1z"/>
			<path class="st2" d="M85.99,107.06c-0.32,1.16-0.85,2.19-1.58,3.09c-0.73,0.9-1.69,1.62-2.86,2.16
				c-1.17,0.54-2.62,0.82-4.35,0.82c-1.73,0-3.18-0.27-4.36-0.82c-1.18-0.54-2.13-1.27-2.86-2.16c-0.72-0.9-1.24-1.93-1.54-3.09
				c-0.31-1.16-0.46-2.34-0.46-3.55v-7.34c0-1.21,0.15-2.39,0.46-3.55c0.31-1.16,0.82-2.18,1.54-3.07c0.72-0.89,1.67-1.6,2.86-2.15
				c1.18-0.54,2.64-0.82,4.36-0.82c1.73,0,3.18,0.27,4.35,0.82c1.17,0.54,2.12,1.26,2.86,2.15c0.73,0.89,1.26,1.91,1.58,3.07
				c0.32,1.16,0.48,2.34,0.48,3.55v7.34C86.46,104.72,86.3,105.9,85.99,107.06z M81.57,96.16c0-0.73-0.07-1.42-0.2-2.06
				c-0.13-0.64-0.37-1.18-0.71-1.63c-0.34-0.45-0.79-0.8-1.35-1.06c-0.56-0.26-1.26-0.39-2.11-0.39c-0.85,0-1.56,0.12-2.11,0.37
				c-0.56,0.25-1.01,0.6-1.35,1.06c-0.34,0.46-0.58,1.01-0.71,1.63c-0.13,0.63-0.2,1.32-0.2,2.08v7.34c0,0.76,0.06,1.45,0.2,2.09
				c0.13,0.64,0.37,1.19,0.71,1.65c0.34,0.46,0.79,0.82,1.35,1.06c0.56,0.25,1.26,0.37,2.11,0.37c0.85,0,1.56-0.13,2.11-0.39
				c0.56-0.26,1.01-0.62,1.35-1.08c0.34-0.46,0.58-1.01,0.71-1.63c0.13-0.63,0.2-1.32,0.2-2.08V96.16z"/>
			<path class="st2" d="M107.72,107.5c-0.31,1.08-0.8,2.03-1.49,2.86c-0.69,0.83-1.58,1.49-2.7,1.99c-1.11,0.5-2.47,0.75-4.08,0.75
				c-1.7,0-3.15-0.27-4.33-0.82c-1.18-0.54-2.15-1.31-2.89-2.31c-0.75-0.99-1.29-2.18-1.63-3.55c-0.34-1.37-0.51-2.9-0.51-4.58
				v-4.01c0-1.61,0.17-3.1,0.51-4.47c0.34-1.37,0.89-2.56,1.65-3.57c0.76-1.01,1.74-1.79,2.94-2.36c1.21-0.57,2.68-0.85,4.44-0.85
				c0.99,0,2,0.14,3.03,0.43c1.03,0.28,1.89,0.71,2.57,1.28c0.71,0.57,1.06,1.19,1.06,1.88c0,0.54-0.18,1.03-0.55,1.45
				c-0.37,0.43-0.93,0.65-1.69,0.67c-0.28,0-0.55-0.05-0.8-0.16c-0.25-0.11-0.54-0.25-0.87-0.44c-0.35-0.19-0.76-0.35-1.21-0.5
				c-0.45-0.14-0.97-0.21-1.56-0.21c-1.54,0-2.7,0.54-3.49,1.63c-0.79,1.09-1.19,2.87-1.19,5.36v3.8c0,1.3,0.1,2.39,0.3,3.26
				c0.2,0.88,0.49,1.58,0.87,2.13c0.38,0.54,0.85,0.93,1.4,1.17c0.56,0.24,1.2,0.35,1.93,0.35c0.78,0,1.43-0.11,1.95-0.34
				c0.52-0.22,0.93-0.53,1.24-0.92c0.31-0.39,0.52-0.85,0.64-1.38c0.12-0.53,0.18-1.12,0.18-1.76v-1.1h-2.34
				c-0.62,0-1.15-0.22-1.6-0.67c-0.45-0.45-0.67-0.98-0.67-1.6c0-0.61,0.22-1.15,0.67-1.6c0.45-0.45,0.98-0.67,1.6-0.67h4.75
				c0.69,0,1.24,0.23,1.67,0.69c0.43,0.46,0.64,1.05,0.64,1.76v3.05C108.18,105.31,108.02,106.43,107.72,107.5z"/>
			<path class="st2" d="M126.17,112.38c-0.47,0.47-1.05,0.71-1.74,0.71c-0.69,0-1.26-0.24-1.72-0.71c-0.46-0.47-0.69-1.05-0.69-1.74
				V89.03c0-0.69,0.23-1.27,0.69-1.74c0.46-0.47,1.03-0.71,1.72-0.71c0.69,0,1.27,0.24,1.74,0.71c0.47,0.47,0.71,1.05,0.71,1.74
				v21.61C126.88,111.33,126.64,111.91,126.17,112.38z"/>
			<path class="st2" d="M149.21,112.43c-0.44,0.44-1.01,0.66-1.72,0.66c-1.09,0-1.88-0.4-2.38-1.21l-9.12-15.15v14.12
				c0,0.62-0.22,1.14-0.66,1.58c-0.44,0.44-0.96,0.66-1.58,0.66c-0.62,0-1.14-0.22-1.58-0.66c-0.44-0.44-0.66-0.96-0.66-1.58v-22
				c0-0.61,0.21-1.15,0.62-1.6c0.41-0.45,1-0.67,1.76-0.67c1.04,0,1.83,0.43,2.38,1.28l9.08,15.11V88.86c0-0.61,0.22-1.15,0.66-1.6
				c0.44-0.45,0.96-0.67,1.58-0.67c0.62,0,1.15,0.23,1.6,0.67c0.45,0.45,0.67,0.98,0.67,1.6v22
				C149.87,111.47,149.65,112,149.21,112.43z"/>
		</g>
	</g>
</g>
</svg>
