<?xml version="1.0" encoding="utf-8"?>
<!-- Generator: Adobe Illustrator 23.1.1, SVG Export Plug-In . SVG Version: 6.00 Build 0)  -->
<svg version="1.1" id="圖層_1" xmlns="http://www.w3.org/2000/svg" xmlns:xlink="http://www.w3.org/1999/xlink" x="0px" y="0px"
	 viewBox="0 0 200 200" style="enable-background:new 0 0 200 200;" xml:space="preserve">
<style type="text/css">
	.st0{fill:none;stroke:#F6AA00;stroke-width:5;stroke-linecap:round;stroke-linejoin:round;stroke-miterlimit:10;}
</style>
<g>
	<path class="st0" d="M83.74,120.34"/>
	<path class="st0" d="M81.44,119.8c-23.86-7.46-41.18-29.74-41.18-56.07C40.26,31.3,66.56,5,99,5s58.74,26.3,58.74,58.74
		s-26.3,58.74-58.74,58.74"/>
	<path class="st0" d="M82.16,107.62c-17.63-6.77-30.15-23.86-30.15-43.88c0-25.95,21.04-46.99,46.99-46.99s46.99,21.04,46.99,46.99
		S124.95,110.73,99,110.73"/>
	<path class="st0" d="M132.74,133.06c-3.98,0-7.23,3.26-7.23,7.23v-4.33c0-3.98-3.26-7.23-7.23-7.23c-3.98,0-7.23,3.26-7.23,7.23
		c0-3.98-3.26-7.23-7.23-7.23c-3.98,0-7.23,3.26-7.23,7.23v-29.6c0-3.98-3.26-7.23-7.23-7.23c-3.98,0-7.23,3.26-7.23,7.23v50.74
		l-8.45-14.64c-2.3-3.99-7.45-5.37-11.44-3.07c-3.99,2.3-5.37,7.45-3.07,11.44l11.09,19.21c0.21,0.36,0.45,0.69,0.7,1.01l4.51,7.63
		C81.42,188.8,92.29,195,104.03,195h12.44c12.98,0,23.5-10.52,23.5-23.5v-12.04v-3.21v-15.95
		C139.98,136.31,136.72,133.06,132.74,133.06z M96.57,135.96v13.21 M111.04,135.96v13.21 M125.51,140.29v8.88"/>
	<g>
		<line class="st0" x1="120.75" y1="41.99" x2="77.25" y2="85.48"/>
		<line class="st0" x1="120.75" y1="85.48" x2="77.25" y2="41.99"/>
	</g>
</g>
</svg>
