<?xml version="1.0" encoding="utf-8"?>
<!-- Generator: Adobe Illustrator 23.1.1, SVG Export Plug-In . SVG Version: 6.00 Build 0)  -->
<svg version="1.1" id="圖層_1" xmlns="http://www.w3.org/2000/svg" xmlns:xlink="http://www.w3.org/1999/xlink" x="0px" y="0px"
	 viewBox="0 0 200 200" style="enable-background:new 0 0 200 200;" xml:space="preserve">
<style type="text/css">
	.st0{fill:none;stroke:#F6AA00;stroke-width:5;stroke-linecap:round;stroke-linejoin:round;stroke-miterlimit:10;}
</style>
<g>
	<g>
		<g>
			<g>
				<path class="st0" d="M61.12,84.57c-10.36,3-17.93,12.56-17.93,23.88v4.4c0,3.35,2.71,6.06,6.06,6.06h17.81"/>
				<circle class="st0" cx="69.75" cy="72.07" r="15.2"/>
			</g>
			<g>
				<path class="st0" d="M138.88,84.57c10.36,3,17.93,12.56,17.93,23.88v4.4c0,3.35-2.71,6.06-6.06,6.06h-17.81"/>
				<circle class="st0" cx="130.25" cy="72.07" r="15.2"/>
			</g>
		</g>
		<g>
			<path class="st0" d="M91.37,108.94c-10.36,3-17.93,12.56-17.93,23.88v4.4c0,3.35,2.71,6.06,6.06,6.06h41
				c3.35,0,6.06-2.71,6.06-6.06v-4.4c0-11.32-7.57-20.88-17.93-23.88"/>
			<circle class="st0" cx="100" cy="96.43" r="15.2"/>
		</g>
	</g>
	<g>
		<path class="st0" d="M32.81,167.19c37.08,37.08,97.2,37.08,134.28,0c30.56-30.56,35.93-76.77,16.12-112.83"/>
		<polyline class="st0" points="45.41,167.19 32.81,167.19 32.81,179.79 		"/>
	</g>
	<g>
		<path class="st0" d="M167.19,32.81c-37.08-37.08-97.2-37.08-134.28,0C2.35,63.37-3.02,109.58,16.8,145.64"/>
		<polyline class="st0" points="154.59,32.81 167.19,32.81 167.19,20.21 		"/>
	</g>
</g>
</svg>
