<?xml version="1.0" encoding="iso-8859-1"?>
<!-- Generator: Adobe Illustrator 16.0.0, SVG Export Plug-In . SVG Version: 6.00 Build 0)  -->
<!DOCTYPE svg PUBLIC "-//W3C//DTD SVG 1.1//EN" "http://www.w3.org/Graphics/SVG/1.1/DTD/svg11.dtd">
<svg version="1.1" id="&#x5716;&#x5C64;_1" xmlns="http://www.w3.org/2000/svg" xmlns:xlink="http://www.w3.org/1999/xlink" x="0px"
	 y="0px" width="54.667px" height="54px" viewBox="0 0 54.667 54" style="enable-background:new 0 0 54.667 54;"
	 xml:space="preserve">
<g>
	<circle style="fill:#383838;" cx="27.676" cy="26.908" r="22.78"/>
	<path style="fill:#FFFFFF;" d="M19.857,32.75c-0.258,0-0.519-0.088-0.733-0.264c-0.486-0.406-0.552-1.131-0.147-1.615l7.818-9.389
		c0.217-0.262,0.54-0.412,0.88-0.412l0,0c0.341,0,0.664,0.15,0.881,0.412l7.818,9.389c0.404,0.484,0.339,1.209-0.148,1.615
		c-0.486,0.404-1.208,0.338-1.614-0.148l-6.938-8.33l-6.938,8.33C20.511,32.609,20.186,32.75,19.857,32.75z"/>
</g>
<g>
	<circle style="fill:#32BADB;" cx="27.676" cy="26.91" r="22.78"/>
	<g>
		<path style="fill:#F6F5F5;" d="M23.453,16.78h7.098c0.471,0,0.853-0.382,0.853-0.852v-2.045c0-0.47-0.382-0.852-0.853-0.852
			h-1.306c-0.219-0.953-1.071-1.665-2.091-1.665c-1.021,0-1.874,0.711-2.092,1.665h-1.609c-0.471,0-0.854,0.382-0.854,0.852v2.045
			C22.599,16.397,22.982,16.78,23.453,16.78z M27.178,12.67c0.43,0,0.78,0.348,0.78,0.779c0,0.429-0.35,0.777-0.78,0.777
			c-0.43,0-0.778-0.348-0.778-0.777C26.399,13.018,26.748,12.67,27.178,12.67z"/>
		<rect x="20.001" y="18.625" style="fill:#F6F5F5;" width="13.999" height="1.517"/>
		<rect x="20.001" y="22.307" style="fill:#F6F5F5;" width="13.999" height="1.515"/>
		<rect x="20.001" y="25.985" style="fill:#F6F5F5;" width="13.999" height="1.515"/>
		<path style="fill:#F6F5F5;" d="M43.853,27.942l-2.7-2.699c-0.371-0.373-0.98-0.373-1.35,0l-0.274,0.273l4.05,4.051l0.273-0.273
			C44.225,28.921,44.225,28.313,43.853,27.942z"/>
		
			<rect x="38.05" y="27.578" transform="matrix(-0.7073 -0.7069 0.7069 -0.7073 49.9294 77.0377)" style="fill:#F6F5F5;" width="5.729" height="1.207"/>
		
			<rect x="34.453" y="27.644" transform="matrix(-0.707 -0.7072 0.7072 -0.707 41.2262 80.637)" style="fill:#F6F5F5;" width="5.727" height="8.271"/>
		<path style="fill:#F6F5F5;" d="M32.845,15.764h2.381c0.196,0,0.361,0.165,0.361,0.36v11.701l2.165-2.165v-9.536
			c0-1.392-1.132-2.525-2.525-2.525h-2.4c0.011,0.092,0.019,0.188,0.019,0.283V15.764z"/>
		<path style="fill:#F6F5F5;" d="M36.635,38.144l-0.395,0.039l-0.653,0.068l0,0c0,0.195-0.165,0.363-0.361,0.363H18.776
			c-0.196,0-0.361-0.168-0.361-0.363V16.124c0-0.195,0.165-0.36,0.361-0.36h2.381v-1.882c0-0.096,0.007-0.191,0.02-0.283h-2.401
			c-1.393,0-2.526,1.133-2.526,2.525v22.127c0,1.395,1.133,2.525,2.526,2.525h16.451c1.393,0,2.525-1.131,2.525-2.525v-1.225
			l-0.01,0.01L36.635,38.144z"/>
		<polygon style="fill:#F6F5F5;" points="20.001,29.666 20.001,31.181 32.232,31.181 33.747,29.666 		"/>
		<polygon style="fill:#F6F5F5;" points="20.001,34.86 30.71,34.86 30.863,33.345 20.001,33.345 		"/>
		<path style="fill:#F6F5F5;" d="M31.914,37.181c0.156,0.156,0.382,0.238,0.644,0.211l3.553-0.355l-4.052-4.05l-0.356,3.552
			C31.676,36.8,31.759,37.026,31.914,37.181z M32.523,34.287l2.286,2.287l-1.608,0.162l-0.839-0.84L32.523,34.287z"/>
	</g>
</g>
<g>
	<circle style="fill:#192F68;" cx="27.676" cy="26.91" r="22.853"/>
	<g>
		<g>
			<g>
				<path style="fill:#FFFFFF;" d="M35.262,36.472H24.819c-2.673,0-4.257-1.562-4.842-4.773c-0.013-0.065-0.083-0.352-0.083-0.352
					l-2.892-13.954h-4.874c-0.195,0-0.353-0.158-0.353-0.354c0-0.194,0.158-0.353,0.353-0.353h5.161
					c0.168,0,0.312,0.118,0.346,0.282l2.947,14.222c0,0,0.075,0.31,0.088,0.38c0.678,3.717,2.574,4.194,4.148,4.194h10.443
					c0.195,0,0.353,0.158,0.353,0.354S35.457,36.472,35.262,36.472z"/>
				<path style="fill:#FFFFFF;" d="M35.262,36.854H24.819c-2.847,0-4.603-1.711-5.219-5.086c-0.009-0.047-0.055-0.234-0.071-0.303
					c-0.002-0.011-0.005-0.025-0.008-0.04h-0.002L16.69,17.776h-4.563c-0.405,0-0.734-0.331-0.734-0.736
					c0-0.405,0.33-0.734,0.734-0.734h5.161c0.346,0,0.649,0.246,0.72,0.585l2.947,14.223c0.001,0,0.076,0.314,0.089,0.387
					c0.626,3.422,2.259,3.883,3.774,3.883h10.443c0.406,0,0.736,0.33,0.736,0.735S35.667,36.854,35.262,36.854z"/>
			</g>
		</g>
		<g>
			<g>
				<path style="fill:#FFFFFF;" d="M35.527,40.758c-1.377,0-2.497-1.12-2.497-2.497s1.12-2.497,2.497-2.497
					c1.376,0,2.497,1.12,2.497,2.497S36.904,40.758,35.527,40.758z M35.527,36.471c-0.988,0-1.791,0.803-1.791,1.791
					c0,0.987,0.803,1.79,1.791,1.79c0.987,0,1.791-0.803,1.791-1.79C37.318,37.274,36.514,36.471,35.527,36.471z"/>
				<path style="fill:#FFFFFF;" d="M35.527,41.14c-1.587,0-2.878-1.291-2.878-2.878s1.291-2.878,2.878-2.878
					c1.587,0,2.879,1.292,2.879,2.878S37.114,41.14,35.527,41.14z M35.527,36.853c-0.776,0-1.409,0.632-1.409,1.409
					s0.632,1.408,1.409,1.408s1.409-0.631,1.409-1.408S36.304,36.853,35.527,36.853z"/>
			</g>
		</g>
		<g>
			<g>
				<path style="fill:#FFFFFF;" d="M37.318,31.667L37.318,31.667l-16.93-0.003v-0.707l16.673,0.004l2.632-8.121l-21.421-1.439
					l0.047-0.704l21.873,1.469c0.109,0.007,0.208,0.064,0.269,0.154c0.061,0.091,0.076,0.203,0.043,0.306l-2.852,8.797
					C37.606,31.568,37.472,31.667,37.318,31.667z"/>
				<path style="fill:#FFFFFF;" d="M37.318,32.048L37.318,32.048l-16.93-0.002c-0.211,0-0.382-0.171-0.382-0.382v-0.707
					c0-0.101,0.041-0.198,0.112-0.27c0.072-0.072,0.169-0.112,0.271-0.112l0,0l16.396,0.003l2.394-7.391l-20.932-1.406
					c-0.101-0.007-0.195-0.053-0.262-0.13c-0.067-0.076-0.1-0.176-0.093-0.277l0.047-0.704c0.015-0.211,0.202-0.373,0.407-0.356
					l21.874,1.47c0.228,0.016,0.432,0.133,0.559,0.321c0.128,0.189,0.16,0.422,0.09,0.639l-2.852,8.797
					C37.918,31.844,37.638,32.048,37.318,32.048z M39.916,22.53c0.037,0.026,0.068,0.059,0.094,0.097
					c0.025,0.038,0.044,0.079,0.054,0.122l0.066-0.204L39.916,22.53z"/>
			</g>
		</g>
		<g>
			<g>
				<path style="fill:#FFFFFF;" d="M23.41,40.758c-1.377,0-2.497-1.12-2.497-2.497s1.12-2.497,2.497-2.497
					c1.376,0,2.497,1.12,2.497,2.497S24.786,40.758,23.41,40.758z M23.41,36.471c-0.987,0-1.792,0.803-1.792,1.791
					c0,0.987,0.805,1.79,1.792,1.79c0.988,0,1.792-0.803,1.792-1.79C25.201,37.274,24.397,36.471,23.41,36.471z"/>
				<path style="fill:#FFFFFF;" d="M23.41,41.14c-1.588,0-2.879-1.291-2.879-2.878s1.292-2.878,2.879-2.878s2.879,1.292,2.879,2.878
					S24.998,41.14,23.41,41.14z M23.41,36.853c-0.776,0-1.409,0.632-1.409,1.409s0.632,1.408,1.409,1.408s1.409-0.631,1.409-1.408
					S24.186,36.853,23.41,36.853z"/>
			</g>
		</g>
		<g>
			<g>
				<path style="fill:#FFFFFF;" d="M38.918,26.674H19.397c-0.195,0-0.353-0.158-0.353-0.353c0-0.194,0.158-0.354,0.353-0.354h19.521
					c0.194,0,0.353,0.159,0.353,0.354C39.271,26.516,39.112,26.674,38.918,26.674z"/>
				<path style="fill:#FFFFFF;" d="M38.918,27.057H19.397c-0.405,0-0.735-0.33-0.735-0.735c0-0.406,0.331-0.736,0.735-0.736h19.521
					c0.405,0,0.735,0.33,0.735,0.736C39.653,26.727,39.323,27.057,38.918,27.057z"/>
			</g>
		</g>
		<g>
			<g>
				<rect x="28.387" y="21.8" style="fill:#FFFFFF;" width="0.706" height="9.391"/>
				<path style="fill:#FFFFFF;" d="M29.093,31.572h-0.706c-0.211,0-0.383-0.171-0.383-0.382V21.8c0-0.211,0.171-0.383,0.383-0.383
					h0.706c0.211,0,0.383,0.171,0.383,0.383v9.391C29.476,31.401,29.304,31.572,29.093,31.572z"/>
			</g>
		</g>
		<g>
			<g>
				
					<rect x="33.485" y="22.176" transform="matrix(0.9899 0.1418 -0.1418 0.9899 4.1259 -4.5289)" style="fill:#FFFFFF;" width="0.706" height="9.014"/>
				<path style="fill:#FFFFFF;" d="M33.548,31.576c-0.018,0-0.036-0.001-0.054-0.003l-0.7-0.1c-0.101-0.015-0.191-0.068-0.251-0.149
					c-0.06-0.082-0.086-0.184-0.073-0.284l1.282-8.923c0.015-0.1,0.069-0.19,0.15-0.251c0.082-0.061,0.183-0.087,0.283-0.072
					l0.699,0.101c0.208,0.03,0.354,0.224,0.324,0.433l-1.282,8.922C33.898,31.44,33.735,31.576,33.548,31.576z"/>
			</g>
		</g>
		<g>
			<g>
				
					<rect x="18.664" y="25.975" transform="matrix(0.1405 0.9901 -0.9901 0.1405 46.4011 -0.7934)" style="fill:#FFFFFF;" width="9.987" height="0.705"/>
				<path style="fill:#FFFFFF;" d="M24.01,31.703c-0.083,0-0.164-0.026-0.229-0.077c-0.082-0.061-0.135-0.151-0.149-0.251
					l-1.402-9.889c-0.03-0.208,0.115-0.401,0.324-0.431l0.699-0.1c0.101-0.013,0.203,0.012,0.283,0.073
					c0.081,0.061,0.135,0.151,0.149,0.251l1.402,9.889c0.03,0.208-0.116,0.403-0.324,0.432l-0.699,0.1
					C24.045,31.702,24.027,31.703,24.01,31.703z"/>
			</g>
		</g>
	</g>
</g>
<g>
	<circle style="fill:#E99919;" cx="27.676" cy="26.91" r="22.853"/>
	<g>
		<g>
			<g>
				<path style="fill:#FFFFFF;" d="M27.676,26.525c-3.084,0-5.592-2.51-5.592-5.593c0-3.084,2.508-5.594,5.592-5.594
					s5.593,2.51,5.593,5.594C33.269,24.016,30.76,26.525,27.676,26.525z M27.676,15.948c-2.748,0-4.983,2.237-4.983,4.985
					c0,2.748,2.235,4.984,4.983,4.984s4.983-2.236,4.983-4.984C32.659,18.185,30.424,15.948,27.676,15.948z"/>
				<path style="fill:#FFFFFF;" d="M27.676,26.908c-3.295,0-5.975-2.682-5.975-5.975c0-3.294,2.68-5.976,5.975-5.976
					s5.975,2.682,5.975,5.976C33.651,24.226,30.971,26.908,27.676,26.908z M27.676,16.33c-2.538,0-4.602,2.065-4.602,4.603
					c0,2.537,2.064,4.602,4.602,4.602s4.602-2.064,4.602-4.602C32.277,18.395,30.213,16.33,27.676,16.33z"/>
			</g>
		</g>
		<g>
			<g>
				<g>
					<path style="fill:#FFFFFF;" d="M37.308,38.482H18.043c-0.089,0-0.175-0.04-0.232-0.108c-0.059-0.068-0.083-0.158-0.069-0.247
						c1.113-6.736,5.198-11.44,9.933-11.44c4.736,0,8.82,4.705,9.933,11.44c0.015,0.088-0.01,0.179-0.068,0.247
						C37.483,38.442,37.397,38.482,37.308,38.482z M18.406,37.872h18.54c-1.143-6.245-4.921-10.576-9.271-10.576
						C23.327,27.296,19.549,31.626,18.406,37.872z"/>
					<path style="fill:#FFFFFF;" d="M37.308,38.863H18.043c-0.203,0-0.393-0.089-0.523-0.242c-0.131-0.155-0.187-0.357-0.154-0.557
						c1.144-6.923,5.383-11.76,10.31-11.76s9.167,4.837,10.31,11.76c0.033,0.2-0.022,0.402-0.153,0.557
						C37.701,38.774,37.511,38.863,37.308,38.863z M18.869,37.491h17.614c-1.203-5.8-4.78-9.813-8.808-9.813
						S20.071,31.691,18.869,37.491z"/>
				</g>
			</g>
		</g>
	</g>
</g>
</svg>
