<?xml version="1.0" encoding="iso-8859-1"?>
<!-- Generator: Adobe Illustrator 16.0.0, SVG Export Plug-In . SVG Version: 6.00 Build 0)  -->
<!DOCTYPE svg PUBLIC "-//W3C//DTD SVG 1.1//EN" "http://www.w3.org/Graphics/SVG/1.1/DTD/svg11.dtd">
<svg version="1.1" id="&#x5716;&#x5C64;_1" xmlns="http://www.w3.org/2000/svg" xmlns:xlink="http://www.w3.org/1999/xlink" x="0px"
	 y="0px" width="54.667px" height="54px" viewBox="0 0 54.667 54" style="enable-background:new 0 0 54.667 54;"
	 xml:space="preserve">
<g>
	<circle style="fill:#383838;" cx="27.676" cy="26.908" r="22.78"/>
	<path style="fill:#FFFFFF;" d="M19.857,32.75c-0.258,0-0.519-0.088-0.733-0.264c-0.486-0.406-0.552-1.131-0.147-1.615l7.818-9.389
		c0.217-0.262,0.54-0.412,0.88-0.412l0,0c0.341,0,0.664,0.15,0.881,0.412l7.818,9.389c0.404,0.484,0.339,1.209-0.148,1.615
		c-0.486,0.404-1.208,0.338-1.614-0.148l-6.938-8.33l-6.938,8.33C20.511,32.609,20.186,32.75,19.857,32.75z"/>
</g>
<g>
	<circle style="fill:#32BADB;" cx="27.676" cy="26.91" r="22.78"/>
	<g>
		<path style="fill:#F6F5F5;" d="M23.453,16.78h7.098c0.471,0,0.853-0.382,0.853-0.852v-2.045c0-0.47-0.382-0.852-0.853-0.852
			h-1.306c-0.219-0.953-1.071-1.665-2.091-1.665c-1.021,0-1.874,0.711-2.092,1.665h-1.609c-0.471,0-0.854,0.382-0.854,0.852v2.045
			C22.599,16.397,22.982,16.78,23.453,16.78z M27.178,12.67c0.43,0,0.78,0.348,0.78,0.779c0,0.429-0.35,0.777-0.78,0.777
			c-0.43,0-0.778-0.348-0.778-0.777C26.399,13.018,26.748,12.67,27.178,12.67z"/>
		<rect x="20.001" y="18.625" style="fill:#F6F5F5;" width="13.999" height="1.517"/>
		<rect x="20.001" y="22.307" style="fill:#F6F5F5;" width="13.999" height="1.515"/>
		<rect x="20.001" y="25.985" style="fill:#F6F5F5;" width="13.999" height="1.515"/>
		<path style="fill:#F6F5F5;" d="M43.853,27.942l-2.7-2.699c-0.371-0.373-0.98-0.373-1.35,0l-0.274,0.273l4.05,4.051l0.273-0.273
			C44.225,28.921,44.225,28.313,43.853,27.942z"/>
		
			<rect x="38.05" y="27.578" transform="matrix(-0.7073 -0.7069 0.7069 -0.7073 49.9294 77.0377)" style="fill:#F6F5F5;" width="5.729" height="1.207"/>
		
			<rect x="34.453" y="27.644" transform="matrix(-0.707 -0.7072 0.7072 -0.707 41.2262 80.637)" style="fill:#F6F5F5;" width="5.727" height="8.271"/>
		<path style="fill:#F6F5F5;" d="M32.845,15.764h2.381c0.196,0,0.361,0.165,0.361,0.36v11.701l2.165-2.165v-9.536
			c0-1.392-1.132-2.525-2.525-2.525h-2.4c0.011,0.092,0.019,0.188,0.019,0.283V15.764z"/>
		<path style="fill:#F6F5F5;" d="M36.635,38.144l-0.395,0.039l-0.653,0.068l0,0c0,0.195-0.165,0.363-0.361,0.363H18.776
			c-0.196,0-0.361-0.168-0.361-0.363V16.124c0-0.195,0.165-0.36,0.361-0.36h2.381v-1.882c0-0.096,0.007-0.191,0.02-0.283h-2.401
			c-1.393,0-2.526,1.133-2.526,2.525v22.127c0,1.395,1.133,2.525,2.526,2.525h16.451c1.393,0,2.525-1.131,2.525-2.525v-1.225
			l-0.01,0.01L36.635,38.144z"/>
		<polygon style="fill:#F6F5F5;" points="20.001,29.666 20.001,31.181 32.232,31.181 33.747,29.666 		"/>
		<polygon style="fill:#F6F5F5;" points="20.001,34.86 30.71,34.86 30.863,33.345 20.001,33.345 		"/>
		<path style="fill:#F6F5F5;" d="M31.914,37.181c0.156,0.156,0.382,0.238,0.644,0.211l3.553-0.355l-4.052-4.05l-0.356,3.552
			C31.676,36.8,31.759,37.026,31.914,37.181z M32.523,34.287l2.286,2.287l-1.608,0.162l-0.839-0.84L32.523,34.287z"/>
	</g>
</g>
</svg>
