<?xml version="1.0" encoding="iso-8859-1"?>
<!-- Generator: Adobe Illustrator 16.0.0, SVG Export Plug-In . SVG Version: 6.00 Build 0)  -->
<!DOCTYPE svg PUBLIC "-//W3C//DTD SVG 1.1//EN" "http://www.w3.org/Graphics/SVG/1.1/DTD/svg11.dtd">
<svg version="1.1" id="&#x5716;&#x5C64;_1" xmlns="http://www.w3.org/2000/svg" xmlns:xlink="http://www.w3.org/1999/xlink" x="0px"
	 y="0px" width="54.667px" height="54px" viewBox="0 0 54.667 54" style="enable-background:new 0 0 54.667 54;"
	 xml:space="preserve">
<g>
	<circle style="fill:#383838;" cx="27.676" cy="26.908" r="22.78"/>
	<path style="fill:#FFFFFF;" d="M19.857,32.75c-0.258,0-0.519-0.088-0.733-0.264c-0.486-0.406-0.552-1.131-0.147-1.615l7.818-9.389
		c0.217-0.262,0.54-0.412,0.88-0.412l0,0c0.341,0,0.664,0.15,0.881,0.412l7.818,9.389c0.404,0.484,0.339,1.209-0.148,1.615
		c-0.486,0.404-1.208,0.338-1.614-0.148l-6.938-8.33l-6.938,8.33C20.511,32.609,20.186,32.75,19.857,32.75z"/>
</g>
</svg>
