<?xml version="1.0" encoding="iso-8859-1"?>
<!-- Generator: Adobe Illustrator 16.0.0, SVG Export Plug-In . SVG Version: 6.00 Build 0)  -->
<!DOCTYPE svg PUBLIC "-//W3C//DTD SVG 1.1//EN" "http://www.w3.org/Graphics/SVG/1.1/DTD/svg11.dtd">
<svg version="1.1" id="&#x5716;&#x5C64;_1" xmlns="http://www.w3.org/2000/svg" xmlns:xlink="http://www.w3.org/1999/xlink" x="0px"
	 y="0px" width="45.5px" height="44px" viewBox="0 0 45.5 44" style="enable-background:new 0 0 45.5 44;" xml:space="preserve">
<g>
	<circle style="fill:#FFFFFF;" cx="23.125" cy="21.278" r="18.457"/>
	<path style="fill:#FF0000;" d="M23.125,2.821c-10.193,0-18.457,8.265-18.457,18.457c0,10.194,8.264,18.457,18.457,18.457
		s18.457-8.263,18.457-18.457C41.582,11.086,33.319,2.821,23.125,2.821z M34.983,25.23c0,2.37-1.939,4.309-4.308,4.309h-15.1
		c-2.37,0-4.308-1.938-4.308-4.309v-7.903c0-2.371,1.938-4.309,4.308-4.309h15.1c2.369,0,4.308,1.938,4.308,4.309V25.23z"/>
	<polygon style="fill:#FF0000;" points="20.113,16.787 20.113,21.341 20.113,25.893 23.792,23.616 27.471,21.341 23.792,19.064 	"/>
</g>
</svg>
