<?xml version="1.0" encoding="iso-8859-1"?>
<!-- Generator: Adobe Illustrator 16.0.0, SVG Export Plug-In . SVG Version: 6.00 Build 0)  -->
<!DOCTYPE svg PUBLIC "-//W3C//DTD SVG 1.1//EN" "http://www.w3.org/Graphics/SVG/1.1/DTD/svg11.dtd">
<svg version="1.1" id="&#x5716;&#x5C64;_1" xmlns="http://www.w3.org/2000/svg" xmlns:xlink="http://www.w3.org/1999/xlink" x="0px"
	 y="0px" width="45.5px" height="44px" viewBox="0 0 45.5 44" style="enable-background:new 0 0 45.5 44;" xml:space="preserve">
<g>
	<circle style="fill:#FFFFFF;" cx="23.125" cy="21.278" r="18.457"/>
	<path style="fill:#FF0000;" d="M23.125,2.821c-10.193,0-18.457,8.265-18.457,18.457c0,10.194,8.264,18.457,18.457,18.457
		s18.457-8.263,18.457-18.457C41.582,11.086,33.319,2.821,23.125,2.821z M34.983,25.23c0,2.37-1.939,4.309-4.308,4.309h-15.1
		c-2.37,0-4.308-1.938-4.308-4.309v-7.903c0-2.371,1.938-4.309,4.308-4.309h15.1c2.369,0,4.308,1.938,4.308,4.309V25.23z"/>
	<polygon style="fill:#FF0000;" points="20.113,16.787 20.113,21.341 20.113,25.893 23.792,23.616 27.471,21.341 23.792,19.064 	"/>
</g>
<g>
	<circle style="fill:#FFFFFF;" cx="23.125" cy="21.278" r="18.457"/>
	<path style="fill:#1877F2;" d="M23.125,2.821c-10.194,0-18.457,8.263-18.457,18.457s8.263,18.457,18.457,18.457
		c10.193,0,18.457-8.263,18.457-18.457S33.318,2.821,23.125,2.821z M29.267,13.302c0,0-2.261-0.022-2.832-0.022
		c-0.854,0-1.424,0.741-1.424,1.496c0,0.516,0,3.15,0,3.15h4.256l-0.486,4.291H24.96v10.942h-4.323V22.267h-3.653v-4.391h3.703
		c0,0,0-1.541,0-4.139c0-2.307,2.569-4.34,4.357-4.34c0.269,0,4.223,0.036,4.223,0.036V13.302z"/>
	<path style="fill:#FFFFFF;" d="M29.267,13.302c0,0-2.261-0.022-2.832-0.022c-0.854,0-1.424,0.741-1.424,1.496
		c0,0.516,0,3.15,0,3.15h4.256l-0.486,4.291H24.96v10.942h-4.323V22.267h-3.653v-4.391h3.703c0,0,0-1.541,0-4.139
		c0-2.307,2.569-4.34,4.357-4.34c0.269,0,4.223,0.036,4.223,0.036V13.302z"/>
</g>
</svg>
