<?xml version="1.0" encoding="iso-8859-1"?>
<!-- Generator: Adobe Illustrator 15.0.0, SVG Export Plug-In . SVG Version: 6.00 Build 0)  -->
<!DOCTYPE svg PUBLIC "-//W3C//DTD SVG 1.1//EN" "http://www.w3.org/Graphics/SVG/1.1/DTD/svg11.dtd">
<svg version="1.1" id="&#x5716;&#x5C64;_1" xmlns="http://www.w3.org/2000/svg" xmlns:xlink="http://www.w3.org/1999/xlink" x="0px"
	 y="0px" width="388.666px" height="53.5px" viewBox="0 0 388.666 53.5" style="enable-background:new 0 0 388.666 53.5;"
	 xml:space="preserve">
<g>
	<g>
		<path d="M5.44,27.083C5.167,15.064,17.088,7.528,28.14,7.54l16.322,0.016v5.104l-16.23-0.067
			c-10.264-0.025-17.699,6.425-17.749,14.542c0.497,8.166,6.369,13.318,17.788,13.733l10.747-0.054l-0.034-12.791l5.577,0.025
			l-0.024,17.757l-16.505-0.03C10.61,44.503,5.867,36.309,5.44,27.083z"/>
		<path d="M28.083,38.98c-8.652-0.339-14.765-5.491-14.896-11.91c-0.137-6.703,6.728-13.285,15.168-13.338l2.817,0.001l-2.876,4.148
			c-7.61,0.137-10.368,5.059-10.281,9.209c0.309,4.223,3.362,7.04,10.189,7.83l4.339-0.047l0.02-6.766H37.2l0.003,10.829
			L28.083,38.98z"/>
		<path d="M28.291,22.432l-2.175,3.369l13.831-0.019c3.667,0.073,5.977-1.384,6.184-5.284c-0.475-3.865-3.503-5.215-6.223-5.221
			l-5.558-0.013l-0.012,7.818h-1.789l0.002-9.337l7.289-0.004c4.3,0.256,7.523,2.969,7.688,6.666
			c-0.062,5.06-3.412,7.17-7.579,6.962l-16.292,0.004l4.614-7.388L28.291,22.432L28.291,22.432z M28.007,23.668l-1.06,1.679
			l12.956-0.016c1.671,0.016,5.076-1.032,5.057-4.863c-0.018-3.406-3.526-4.35-5.079-4.502l-4.513-0.023l0.019,7.113h1.815
			l-0.058-5.634h2.764c2.73,0.267,3.478,1.605,3.588,2.993c-0.008,2.03-1.515,3.272-3.591,3.255L28.007,23.668z"/>
	</g>
</g>
<g>
	<path d="M65.379,30.446c1.176-0.759,2.352-1.882,2.979-2.718l2.43,1.463c-1.072,1.306-2.849,2.823-4.364,3.604
		c-0.365-0.391-0.993-0.991-1.542-1.461H59.03v1.2h-2.247v-6.844c-0.157,0.183-0.315,0.365-0.471,0.547
		c-0.104-0.182-0.26-0.471-0.47-0.784c-0.236,2.562-0.679,5.043-1.464,7.056c-0.497-0.392-1.646-1.02-2.299-1.254
		c1.464-3.789,1.568-9.276,1.568-13.09v-7.891c3.292-0.288,7.002-0.863,9.197-1.542l2.248,2.064
		c-2.508,0.731-5.852,1.227-8.909,1.515v0.783h8.778v6.037h-6.845l1.724,0.47c-0.157,0.522-0.34,1.019-0.523,1.542h1.36
		c-0.184-0.497-0.393-1.02-0.602-1.463l2.038-0.522c0.339,0.601,0.68,1.358,0.889,1.986h2.169v1.934h-2.43v0.913h2.168v1.7H62.74
		v0.914h2.194v1.776H62.74v0.94h2.639V30.446z M56.182,19.132c-0.026,1.124-0.052,2.351-0.13,3.632
		c0.705-1.072,1.254-2.353,1.62-3.632H56.182z M56.182,15.395v1.437h6.01v-1.437H56.182z M60.727,23.078H59.03v0.913h1.698V23.078z
		 M60.727,25.691H59.03v0.939h1.698V25.691z M59.03,29.322h1.698v-0.94H59.03V29.322z M69.298,13.697
		c0.079-0.549,0.131-1.124,0.183-1.673h-3.867V9.412h10.844v2.613h-3.893c-0.156,0.574-0.313,1.151-0.471,1.673h3.71v13.691h-9.642
		V13.697H69.298z M73.191,16.023h-4.494v1.568h4.494V16.023z M73.191,19.733h-4.494v1.619h4.494V19.733z M73.191,23.521h-4.494
		v1.567h4.494V23.521z M73.714,27.78c1.097,0.939,2.482,2.325,3.161,3.267l-2.35,1.567c-0.603-0.967-1.934-2.43-3.031-3.475
		L73.714,27.78z"/>
	<path d="M86.644,15.108c-0.575,1.175-1.254,2.404-2.013,3.632h0.027v14.031h-2.9v-9.955c-0.627,0.811-1.28,1.543-1.881,2.144
		c-0.313-0.653-1.202-2.222-1.698-2.901c2.09-1.985,4.31-4.99,5.695-7.943L86.644,15.108z M86.199,9.517
		c-1.698,2.482-4.232,5.383-6.4,7.289c-0.314-0.705-0.994-1.906-1.438-2.56c1.803-1.516,3.998-4.023,5.069-5.853L86.199,9.517z
		 M84.841,30.471c0.916-1.202,1.646-3.161,2.038-4.834l2.351,0.917c-0.444,1.725-1.123,3.866-2.063,5.251L84.841,30.471z
		 M102.896,24.593h-7.917c0.548,0.915,1.149,2.038,1.489,2.768l-2.404,0.864c-0.313-0.81-1.019-2.168-1.568-3.187l1.333-0.445
		h-7.787V22.11h16.854V24.593z M92.602,14.011c0.052-0.418,0.104-0.863,0.156-1.333h-6.376v-2.456h6.585
		c0.052-0.706,0.078-1.333,0.104-1.933l3.292,0.104l-0.261,1.83h6.689v2.456h-7.029c-0.079,0.47-0.157,0.914-0.209,1.333h6.454
		v6.924H87.323v-6.924H92.602z M95.893,30.105c0.732,0,0.888-0.287,0.967-2.168c0.549,0.366,1.646,0.756,2.377,0.915
		c-0.286,2.847-1.019,3.553-3.03,3.553h-3.24c-2.692,0-3.344-0.731-3.344-3.005v-3.188h2.717v3.161c0,0.653,0.156,0.731,1.02,0.731
		H95.893z M91.53,16.207h-1.777v2.533h1.777V16.207z M95.475,16.207h-1.829v2.533h1.829V16.207z M97.566,18.74h1.907v-2.533h-1.907
		V18.74z M100.362,25.481c1.149,1.542,2.352,3.552,2.769,4.938l-2.429,1.098c-0.34-1.358-1.464-3.476-2.613-5.02L100.362,25.481z"/>
	<path d="M126.329,26.291c-0.6,1.201-1.228,2.455-1.777,3.423h4.156v2.482h-14.841v-2.482h3.946c-0.183-0.94-0.68-2.247-1.254-3.266
		l2.43-0.653h-3.083v-6.167c-0.262,0.209-0.523,0.418-0.81,0.628c-0.392-0.601-1.228-1.594-1.803-2.065
		c0.915-0.6,1.776-1.462,2.509-2.482c-0.601-0.497-1.386-1.045-2.091-1.436v0.861h-9.066v-2.456h4.154
		c-0.444-0.993-1.15-2.299-1.75-3.292l2.115-1.279c0.732,1.071,1.595,2.508,2.012,3.448l-1.593,1.124h4.128v1.437l1.541-1.855
		c0.603,0.314,1.281,0.707,1.882,1.098c0.234-0.548,0.47-1.125,0.653-1.724h-3.136V9.204h4.129l0.496-0.105l1.803,0.575
		c-0.418,2.194-1.098,4.153-1.986,5.853h4.442c-1.045-1.934-1.803-4.182-2.352-6.611l2.561-0.47c0.13,0.574,0.287,1.149,0.47,1.698
		c0.522-0.47,1.019-0.967,1.385-1.359l1.829,1.698c-0.758,0.654-1.646,1.334-2.377,1.856c0.131,0.339,0.287,0.679,0.47,0.993
		c0.626-0.47,1.306-0.993,1.725-1.412l1.75,1.699c-0.757,0.574-1.568,1.097-2.326,1.542c0.784,1.046,1.673,1.881,2.718,2.508
		c-0.68,0.522-1.62,1.567-2.039,2.273c-0.288-0.208-0.575-0.417-0.837-0.627v6.48h-2.403L126.329,26.291z M113.005,31.309h-5.043
		v1.097h-2.352v-8.987h7.395V31.309z M112.874,18.662h-7.211V16.31h7.211V18.662z M105.663,19.811h7.211v2.352h-7.211V19.811z
		 M107.961,25.899v2.926h2.639v-2.926H107.961z M118.099,17.12c-0.522,0.758-1.071,1.436-1.698,2.038h9.955
		c-0.731-0.627-1.331-1.358-1.907-2.195v1.019h-6.35V17.12z M118.517,23.47h5.251v-1.96h-5.251V23.47z M119.197,25.795
		c0.653,1.07,1.254,2.509,1.411,3.424l-1.725,0.495h2.926c0.47-1.124,1.098-2.717,1.412-3.919H119.197z"/>
	<path d="M149.136,19.655c1.698,1.333,3.945,2.403,6.401,2.978c-0.679,0.602-1.541,1.778-1.986,2.561
		c-1.097-0.341-2.116-0.757-3.109-1.28c-0.287,4.598-0.653,6.689-1.385,7.499c-0.576,0.652-1.202,0.89-2.063,0.993
		c-0.758,0.104-2.013,0.13-3.397,0.078c-0.053-0.914-0.392-2.143-0.889-2.927c1.151,0.104,2.248,0.131,2.744,0.104
		c0.445,0.027,0.653-0.051,0.94-0.286c0.366-0.392,0.628-1.621,0.862-4.493h-5.146c-0.654,3.604-2.404,6.243-7.996,7.76
		c-0.287-0.785-1.097-2.038-1.75-2.665c4.52-1.02,5.904-2.691,6.48-5.095h-3.372v-1.124c-0.914,0.574-1.854,1.07-2.926,1.541
		c-0.339-0.809-1.228-2.038-1.906-2.612c2.09-0.836,3.814-1.855,5.277-3.031h-4.547v-2.796h7.239
		c0.418-0.548,0.757-1.071,1.097-1.646h-6.741V12.47h3.71c-0.445-0.836-1.072-1.83-1.673-2.613l2.483-1.203
		c0.809,0.967,1.723,2.3,2.089,3.214l-1.176,0.602h2.587c0.496-1.358,0.81-2.796,0.967-4.233l3.292,0.313
		c-0.235,1.333-0.549,2.639-0.94,3.92h2.246c0.705-1.099,1.542-2.562,2.013-3.632l2.899,0.888c-0.627,0.966-1.279,1.907-1.881,2.744
		h3.318v2.742h-9.668c-0.287,0.575-0.574,1.098-0.888,1.646h12.203v2.796H149.136z M140.357,19.655
		c-0.73,0.861-1.542,1.672-2.482,2.429h9.798c-0.862-0.731-1.672-1.542-2.352-2.429H140.357z"/>
	<path d="M163.242,23.052v6.217c0,1.516-0.288,2.274-1.176,2.717c-0.862,0.498-2.117,0.577-3.946,0.577
		c-0.104-0.811-0.497-2.038-0.888-2.823c1.045,0.025,2.117,0.025,2.456,0.025c0.366,0,0.497-0.13,0.497-0.496v-5.407l-2.639,0.678
		l-0.81-2.978c0.993-0.208,2.168-0.47,3.449-0.757v-4.598h-3.109v-2.875h3.109V8.366h3.057v4.966h2.743v2.875h-2.743v3.84
		l1.907-0.47l0.392,2.848L163.242,23.052z M179.755,20.387c-0.939,3.188-2.456,5.67-4.468,7.551
		c1.751,0.888,3.789,1.566,6.036,1.986c-0.653,0.705-1.518,2.011-1.959,2.872c-2.588-0.625-4.835-1.564-6.742-2.82
		c-2.09,1.256-4.468,2.168-7.106,2.795c-0.314-0.861-0.994-2.142-1.517-2.847c2.222-0.394,4.26-1.071,6.037-1.986
		c-1.438-1.439-2.64-3.11-3.607-5.042l0.968-0.341h-1.515v-2.899h11.339l0.549-0.13L179.755,20.387z M166.718,19.314
		c-0.366-0.575-1.489-1.802-2.065-2.22c3.085-1.412,3.476-3.294,3.476-5.096V9.204h9.223v5.695c0,0.758,0.027,1.071,0.419,1.071
		h1.411c0.443,0,1.097-0.078,1.463-0.183c0.051,0.784,0.131,1.855,0.235,2.586c-0.392,0.158-1.045,0.183-1.646,0.183h-1.75
		c-2.561,0-3.11-1.097-3.11-3.709v-2.771l-3.37,0.027C171.002,14.716,170.244,17.617,166.718,19.314z M169.435,22.554
		c0.783,1.386,1.881,2.614,3.214,3.659c1.228-0.992,2.246-2.247,3.031-3.659H169.435z"/>
	<path d="M199.611,13.018c1.41,1.384,4.181,2.038,7.707,2.22c-0.627,0.603-1.36,1.725-1.725,2.482
		c-2.925-0.366-5.199-1.202-6.846-2.639c-0.991,1.149-3.161,2.169-7.551,2.665c-0.21-0.496-0.627-1.149-1.046-1.698h-6.923v-2.378
		h7.89v1.594c4.991-0.522,5.644-1.698,5.644-2.666v-0.39h-1.566c-0.55,0.862-1.176,1.646-1.83,2.247
		c-0.496-0.471-1.646-1.229-2.3-1.593c1.386-1.15,2.457-2.876,3.058-4.652l2.718,0.602c-0.132,0.393-0.286,0.783-0.444,1.149h7.42
		l0.471-0.13l2.118,0.652c-0.682,1.438-1.569,3.083-2.404,4.129l-2.404-0.889c0.288-0.419,0.628-0.967,0.914-1.515h-2.899v0.521
		V13.018z M200.316,28.382c2.403,0.887,4.964,1.933,6.504,2.69l-2.796,1.673c-1.486-0.863-4.204-2.143-6.792-3.085l1.594-1.278
		h-7.368l2.273,1.044c-2.142,1.358-5.513,2.667-8.152,3.398c-0.522-0.603-1.619-1.752-2.3-2.274c2.509-0.47,5.304-1.253,7.134-2.168
		h-3.763V17.773h17.479v10.608H200.316z M190.517,11.92h-6.689V9.647h6.689V11.92z M189.655,20.752h11.314v-1.125h-11.314V20.752z
		 M189.655,23.626h11.314v-1.123h-11.314V23.626z M189.655,26.554h11.314v-1.178h-11.314V26.554z"/>
	<path d="M222.128,30.446c1.175-0.759,2.353-1.882,2.98-2.718l2.429,1.463c-1.071,1.306-2.85,2.823-4.363,3.604
		c-0.367-0.391-0.992-0.991-1.543-1.461h-5.851v1.2h-2.247v-6.844c-0.156,0.183-0.313,0.365-0.47,0.547
		c-0.106-0.182-0.264-0.471-0.471-0.784c-0.235,2.562-0.683,5.043-1.464,7.056c-0.496-0.392-1.646-1.02-2.301-1.254
		c1.464-3.789,1.567-9.276,1.567-13.09v-7.891c3.294-0.288,7.003-0.863,9.2-1.542l2.247,2.064c-2.511,0.731-5.854,1.227-8.911,1.515
		v0.783h8.778v6.037h-6.845l1.725,0.47c-0.158,0.522-0.34,1.019-0.524,1.542h1.359c-0.182-0.497-0.391-1.02-0.6-1.463l2.037-0.522
		c0.34,0.601,0.679,1.358,0.889,1.986h2.17v1.934h-2.433v0.913h2.169v1.7h-2.169v0.914h2.197v1.776h-2.197v0.94h2.64V30.446z
		 M212.932,19.132c-0.028,1.124-0.054,2.351-0.132,3.632c0.706-1.072,1.254-2.353,1.62-3.632H212.932z M212.932,15.395v1.437h6.011
		v-1.437H212.932z M217.477,23.078h-1.696v0.913h1.696V23.078z M217.477,25.691h-1.696v0.939h1.696V25.691z M215.781,29.322h1.696
		v-0.94h-1.696V29.322z M226.05,13.697c0.077-0.549,0.127-1.124,0.181-1.673h-3.868V9.412h10.844v2.613h-3.891
		c-0.157,0.574-0.315,1.151-0.471,1.673h3.708v13.691h-9.642V13.697H226.05z M229.941,16.023h-4.493v1.568h4.493V16.023z
		 M229.941,19.733h-4.493v1.619h4.493V19.733z M229.941,23.521h-4.493v1.567h4.493V23.521z M230.465,27.78
		c1.097,0.939,2.48,2.325,3.16,3.267l-2.351,1.567c-0.603-0.967-1.935-2.43-3.031-3.475L230.465,27.78z"/>
	<path d="M239.606,19.079v13.691h-3.084V9.36h9.983v9.719H239.606z M239.606,11.737v1.411h3.997v-1.411H239.606z M243.603,16.729
		v-1.49h-3.997v1.49H243.603z M245.198,29.087v1.463h-2.902v-9.667h10.11v8.205H245.198z M245.198,23.443v3.083h4.31v-3.083H245.198
		z M258.549,29.062c0,1.723-0.365,2.612-1.463,3.109c-1.072,0.521-2.719,0.6-5.121,0.6c-0.104-0.889-0.603-2.351-1.045-3.188
		c1.514,0.105,3.292,0.078,3.786,0.053c0.496,0,0.681-0.156,0.681-0.625v-9.904h-7.081V9.36h10.243V29.062z M251.259,11.712v1.436
		h4.128v-1.436H251.259z M255.387,16.754v-1.516h-4.128v1.516H255.387z"/>
	<path d="M280.59,22.457c-0.657,2.606-1.846,4.595-3.404,6.154c1.169,0.657,2.522,1.17,3.999,1.519
		c-0.532,0.512-1.229,1.478-1.558,2.112c-1.703-0.471-3.16-1.169-4.411-2.052c-1.313,0.842-2.811,1.478-4.473,1.97
		c-0.225-0.615-0.778-1.519-1.209-2.03c-0.062,0.718-0.268,1.209-0.761,1.518c-0.574,0.391-1.395,0.452-2.584,0.452
		c-0.06-0.616-0.327-1.664-0.615-2.278c0.636,0.021,1.252,0.021,1.478,0.021s0.307-0.082,0.307-0.327v-4.082
		c-0.553,0.348-1.065,0.698-1.578,1.005l-0.596-1.478c-0.143,2.564-0.493,5.313-1.271,7.322c-0.432-0.369-1.437-0.901-1.948-1.105
		c1.067-2.812,1.127-6.915,1.127-9.889v-7.446h6.463v6.133c2.215-1.108,2.481-2.584,2.481-3.917v-2.196h6.894v4.493
		c0,0.596,0.04,0.821,0.287,0.821h0.797c0.268,0,0.742-0.063,1.008-0.145c0.063,0.595,0.104,1.396,0.185,1.949
		c-0.308,0.102-0.761,0.123-1.169,0.123h-1.046c-1.95,0-2.34-0.819-2.34-2.789v-2.195h-2.399v0.021c0,1.949-0.596,4.185-3.282,5.559
		c-0.246-0.389-0.964-1.127-1.415-1.518v9.375c0,0.165,0,0.327-0.021,0.473c1.396-0.329,2.688-0.819,3.814-1.458
		c-1.065-1.147-1.95-2.479-2.625-4l1.006-0.308h-1.479v-2.275h8.352l0.451-0.104L280.59,22.457z M265.286,21.266
		c0,0.842-0.018,1.806-0.06,2.791c0.615-0.206,1.332-0.473,2.132-0.779v-2.237l-0.821,0.656c-0.265-0.389-0.737-0.984-1.251-1.558
		V21.266z M265.286,16.036v2.543l0.576-0.41c0.491,0.472,1.047,1.025,1.496,1.538v-3.671H265.286z M273,24.261
		c0.532,1.087,1.314,2.072,2.235,2.913c0.901-0.799,1.663-1.784,2.216-2.913H273z"/>
	<path d="M289.105,13.922c-0.554,1.416-1.21,2.871-1.968,4.267v14.052h-2.402V21.903c-0.432,0.554-0.861,1.045-1.291,1.518
		c-0.226-0.616-0.882-1.95-1.313-2.544c1.847-1.847,3.65-4.759,4.676-7.692L289.105,13.922z M298.131,13.717
		c0.573,2.462,1.928,4.903,3.713,6.236c-0.45,0.575-1.169,1.806-1.499,2.605c-0.286-0.266-0.554-0.533-0.798-0.821
		c-0.02,0.226-0.02,0.513-0.02,0.677c-0.246,5.763-0.473,8.001-1.067,8.74c-0.411,0.572-0.862,0.757-1.478,0.861
		c-0.532,0.102-1.374,0.121-2.299,0.082c-0.062-0.678-0.288-1.622-0.636-2.218c0.699,0.084,1.335,0.084,1.684,0.084
		c0.287,0,0.451-0.062,0.636-0.288c0.327-0.431,0.531-1.99,0.719-5.989H294.5c-0.534,4.123-1.949,6.81-4.944,8.492
		c-0.285-0.471-1.127-1.396-1.619-1.805c2.604-1.23,3.793-3.448,4.183-6.688h-1.885v-2.113c-0.269,0.307-0.556,0.594-0.843,0.862
		c-0.287-0.555-1.066-1.724-1.497-2.257c1.661-1.415,2.954-3.671,3.65-6.134l2.402,0.616c-0.762,2.544-2.013,4.985-3.592,6.77h8.926
		c-1.273-1.54-2.319-3.488-2.997-5.375h-1.825v-2.339H298.131z"/>
	<path d="M310.747,17.882c-0.224,0.554-0.512,1.086-0.818,1.62h9.538v10.134c0,1.21-0.227,1.865-1.067,2.237
		c-0.8,0.389-1.969,0.407-3.631,0.407c-0.104-0.675-0.431-1.701-0.737-2.357c1.047,0.061,2.236,0.061,2.584,0.061
		c0.349-0.02,0.473-0.123,0.473-0.409v-1.231h-7.714c-0.349,1.537-1.006,3.036-2.277,4.081c-0.328-0.513-1.249-1.537-1.763-1.864
		c1.763-1.538,1.904-3.736,1.904-5.643v-1.662c-0.778,0.821-1.6,1.581-2.542,2.237c-0.368-0.555-1.129-1.437-1.602-1.889
		c2.073-1.374,3.713-3.446,4.926-5.722h-4.453v-2.298h5.5c0.326-0.841,0.594-1.662,0.82-2.482l2.521,0.573
		c-0.204,0.637-0.43,1.273-0.656,1.909h10.012v2.298H310.747z M317.088,26.313V24.98h-7.364c0,0.431-0.021,0.861-0.043,1.333
		H317.088z M317.088,21.656h-7.364v1.292h7.364V21.656z"/>
	<path d="M331.324,14.744c-0.531,1.722-1.21,3.795-1.764,5.374c1.232,1.601,1.479,3.056,1.479,4.267
		c0,1.313-0.267,2.194-0.925,2.688c-0.308,0.245-0.695,0.369-1.147,0.451c-0.369,0.061-0.861,0.061-1.334,0.041
		c0-0.595-0.206-1.499-0.533-2.093c0.348,0.021,0.654,0.042,0.883,0.021c0.204,0,0.407-0.043,0.554-0.166
		c0.247-0.184,0.367-0.636,0.367-1.209c0-1.005-0.266-2.318-1.435-3.753c0.389-1.253,0.841-2.914,1.169-4.268h-1.989v16.144h-2.135
		V13.922h4.882l0.33-0.102L331.324,14.744z M342.381,25.285c-0.881,0.7-1.947,1.479-2.872,2.073c0.862,1.17,1.971,2.134,3.327,2.75
		c-0.536,0.472-1.275,1.436-1.623,2.112c-3.057-1.683-4.697-4.843-5.661-8.861h-1.231v5.764l2.852-0.636
		c-0.021,0.697,0.021,1.702,0.102,2.215c-3.999,1.025-4.758,1.335-5.25,1.642c-0.187-0.532-0.699-1.497-1.047-1.909
		c0.431-0.264,0.943-0.818,0.943-1.783V13.943h9.271v9.417h-3.55c0.228,0.8,0.494,1.538,0.823,2.235
		c0.839-0.636,1.742-1.395,2.337-2.031L342.381,25.285z M334.321,16.036v1.6h4.514v-1.6H334.321z M334.321,21.247h4.514v-1.642
		h-4.514V21.247z"/>
	<path d="M352.209,14.456c-1.497,3.364-3.897,6.832-6.112,8.985c-0.474-0.532-1.561-1.601-2.174-2.092
		c2.174-1.825,4.326-4.799,5.558-7.774L352.209,14.456z M357.952,23.872c1.662,2.258,3.55,5.17,4.555,7.077l-2.521,1.332
		c-0.268-0.594-0.636-1.27-1.069-2.01c-9.907,0.78-11.301,0.904-12.308,1.272c-0.164-0.513-0.636-1.887-1.006-2.604
		c0.679-0.186,1.233-0.74,2.052-1.642c0.861-0.883,3.428-4.37,5.047-7.775l2.852,1.19c-1.578,2.769-3.55,5.519-5.538,7.732
		l7.53-0.492c-0.656-1.026-1.336-2.091-1.971-2.994L357.952,23.872z M358.343,13.615c0.882,2.872,2.749,5.764,5.272,7.303
		c-0.556,0.534-1.436,1.703-1.847,2.461c-2.339-1.785-4.164-4.533-5.312-7.241h-3.282v-2.523H358.343z"/>
	<path d="M382.428,29.185c0,1.396-0.246,2.135-1.129,2.563c-0.838,0.432-2.153,0.493-3.979,0.473
		c-0.083-0.719-0.452-1.929-0.8-2.646c1.147,0.082,2.501,0.062,2.891,0.041c0.37,0,0.514-0.103,0.514-0.452V16.67h-14.32v-2.317
		h16.823V29.185z M377.874,20.261h-12.063v-2.133h12.063V20.261z M369.238,28.714v1.476h-2.378v-8.41h9.946v6.935H369.238z
		 M369.238,23.872v2.747h5.169v-2.747H369.238z"/>
	<g>
		<path style="fill:#494949;" d="M55.929,42.178v-0.787l2.841-0.005v2.489c-0.436,0.349-0.886,0.61-1.349,0.785
			c-0.465,0.175-0.939,0.264-1.428,0.264c-0.658,0-1.257-0.141-1.796-0.425c-0.538-0.281-0.944-0.689-1.22-1.225
			c-0.273-0.532-0.41-1.129-0.41-1.786c0-0.654,0.135-1.265,0.409-1.829c0.272-0.567,0.666-0.986,1.179-1.262
			c0.512-0.273,1.103-0.41,1.77-0.41c0.485,0,0.924,0.079,1.316,0.234c0.392,0.157,0.698,0.376,0.921,0.657
			c0.222,0.28,0.392,0.646,0.507,1.099l-0.799,0.22c-0.102-0.342-0.227-0.611-0.376-0.807c-0.15-0.194-0.363-0.352-0.64-0.468
			c-0.278-0.117-0.586-0.178-0.924-0.178c-0.406,0-0.756,0.063-1.054,0.187c-0.294,0.124-0.534,0.287-0.714,0.486
			c-0.182,0.203-0.323,0.424-0.424,0.664c-0.17,0.415-0.256,0.865-0.256,1.349c0,0.598,0.102,1.1,0.309,1.502
			c0.205,0.401,0.506,0.702,0.899,0.896c0.392,0.196,0.811,0.293,1.254,0.293c0.383,0,0.759-0.073,1.125-0.221
			c0.366-0.147,0.643-0.306,0.832-0.474v-1.249H55.929z"/>
		<path style="fill:#494949;" d="M62.993,41.541c0-1.112,0.301-1.984,0.898-2.614c0.597-0.63,1.369-0.944,2.314-0.944
			c0.619,0,1.177,0.147,1.675,0.443c0.497,0.296,0.875,0.709,1.137,1.236c0.262,0.53,0.391,1.132,0.391,1.803
			c0,0.68-0.136,1.288-0.412,1.824c-0.274,0.537-0.664,0.942-1.167,1.219c-0.503,0.277-1.046,0.416-1.628,0.416
			c-0.631,0-1.195-0.154-1.693-0.457c-0.498-0.306-0.874-0.724-1.13-1.25C63.123,42.688,62.993,42.132,62.993,41.541z M63.91,41.557
			c0,0.808,0.217,1.443,0.651,1.909c0.435,0.466,0.981,0.697,1.635,0.697c0.669,0,1.219-0.233,1.65-0.703
			c0.432-0.472,0.647-1.138,0.647-2c0-0.547-0.092-1.023-0.277-1.43c-0.184-0.408-0.455-0.724-0.81-0.949
			c-0.355-0.224-0.754-0.336-1.196-0.336c-0.628,0-1.169,0.216-1.622,0.647C64.136,39.825,63.91,40.547,63.91,41.557z"/>
		<path style="fill:#494949;" d="M73.469,41.541c0-1.112,0.299-1.984,0.897-2.614c0.598-0.63,1.37-0.944,2.315-0.944
			c0.619,0,1.178,0.147,1.674,0.443c0.498,0.296,0.875,0.709,1.137,1.236c0.261,0.53,0.393,1.132,0.393,1.803
			c0,0.68-0.138,1.288-0.413,1.824c-0.275,0.537-0.664,0.942-1.167,1.219c-0.502,0.277-1.047,0.416-1.629,0.416
			c-0.63,0-1.195-0.154-1.693-0.457c-0.498-0.306-0.873-0.724-1.13-1.25C73.597,42.688,73.469,42.132,73.469,41.541z M74.385,41.557
			c0,0.808,0.217,1.443,0.652,1.909c0.435,0.466,0.98,0.697,1.636,0.697c0.667,0,1.218-0.233,1.649-0.703
			c0.432-0.472,0.647-1.138,0.647-2c0-0.547-0.092-1.023-0.277-1.43c-0.185-0.408-0.455-0.724-0.811-0.949
			c-0.354-0.224-0.753-0.336-1.196-0.336c-0.629,0-1.169,0.216-1.622,0.647C74.611,39.825,74.385,40.547,74.385,41.557z"/>
		<path style="fill:#494949;" d="M84.212,44.809V38.1h2.312c0.521,0,0.919,0.034,1.194,0.098c0.385,0.089,0.712,0.248,0.983,0.48
			c0.355,0.299,0.619,0.682,0.795,1.146c0.174,0.466,0.263,0.996,0.263,1.595c0,0.51-0.059,0.962-0.178,1.354
			c-0.119,0.395-0.271,0.72-0.457,0.977c-0.186,0.258-0.39,0.462-0.611,0.608c-0.222,0.149-0.488,0.26-0.8,0.336
			c-0.313,0.076-0.672,0.115-1.077,0.115H84.212z M85.101,44.018h1.432c0.443,0,0.789-0.041,1.041-0.124
			c0.252-0.082,0.453-0.198,0.602-0.349c0.211-0.211,0.373-0.493,0.493-0.847c0.117-0.355,0.176-0.787,0.176-1.294
			c0-0.701-0.116-1.242-0.345-1.617c-0.231-0.377-0.51-0.629-0.839-0.758c-0.24-0.091-0.622-0.138-1.148-0.138h-1.411V44.018z"/>
		<path style="fill:#494949;" d="M99.653,42.652l0.837-0.071c0.04,0.337,0.132,0.611,0.277,0.824
			c0.146,0.215,0.37,0.391,0.676,0.522c0.305,0.133,0.647,0.198,1.028,0.198c0.339,0,0.638-0.05,0.897-0.149
			c0.259-0.102,0.452-0.24,0.579-0.413c0.125-0.177,0.189-0.37,0.189-0.575c0-0.21-0.061-0.396-0.183-0.552
			c-0.122-0.157-0.323-0.289-0.604-0.396c-0.18-0.071-0.578-0.178-1.194-0.328c-0.616-0.146-1.047-0.286-1.295-0.417
			c-0.32-0.168-0.559-0.376-0.716-0.626c-0.157-0.247-0.235-0.525-0.235-0.833c0-0.34,0.095-0.656,0.288-0.95
			c0.192-0.295,0.473-0.519,0.841-0.671s0.78-0.228,1.231-0.228c0.498,0,0.936,0.08,1.315,0.239c0.38,0.159,0.672,0.396,0.877,0.708
			c0.205,0.31,0.313,0.661,0.329,1.057l-0.852,0.064c-0.045-0.424-0.2-0.745-0.464-0.963c-0.264-0.216-0.653-0.323-1.169-0.323
			c-0.536,0-0.928,0.098-1.173,0.295c-0.245,0.197-0.367,0.436-0.367,0.711c0,0.242,0.086,0.439,0.26,0.595
			c0.171,0.155,0.616,0.315,1.339,0.479c0.72,0.162,1.216,0.306,1.485,0.428c0.389,0.179,0.678,0.408,0.863,0.683
			c0.188,0.277,0.28,0.598,0.28,0.955c0,0.358-0.102,0.693-0.306,1.008c-0.205,0.316-0.5,0.563-0.882,0.738
			c-0.382,0.175-0.813,0.264-1.292,0.264c-0.606,0-1.115-0.09-1.526-0.267c-0.41-0.177-0.731-0.443-0.964-0.797
			C99.787,43.504,99.666,43.102,99.653,42.652z"/>
		<path style="fill:#494949;" d="M109.409,44.809V38.1h4.85v0.792h-3.962v2.056h3.711v0.787h-3.711v2.283h4.117v0.791H109.409z"/>
		<path style="fill:#494949;" d="M123.613,42.457l0.887,0.224c-0.186,0.729-0.521,1.286-1.004,1.67
			c-0.483,0.381-1.075,0.573-1.773,0.573c-0.723,0-1.311-0.146-1.763-0.442c-0.453-0.294-0.797-0.721-1.035-1.277
			c-0.236-0.561-0.355-1.159-0.355-1.8c0-0.699,0.134-1.309,0.401-1.828c0.267-0.521,0.646-0.915,1.139-1.185
			c0.494-0.27,1.035-0.404,1.626-0.404c0.671,0,1.236,0.171,1.694,0.512c0.457,0.343,0.776,0.821,0.955,1.441l-0.874,0.207
			c-0.156-0.489-0.381-0.846-0.678-1.067c-0.295-0.224-0.667-0.335-1.116-0.335c-0.516,0-0.946,0.124-1.292,0.372
			c-0.347,0.246-0.59,0.579-0.731,0.994c-0.14,0.416-0.21,0.848-0.21,1.288c0,0.569,0.084,1.068,0.25,1.495
			c0.167,0.426,0.424,0.743,0.775,0.955c0.351,0.21,0.73,0.313,1.14,0.313c0.498,0,0.917-0.144,1.262-0.431
			C123.258,43.448,123.49,43.021,123.613,42.457z"/>
		<path style="fill:#494949;" d="M133.181,38.1h0.887v3.877c0,0.674-0.076,1.209-0.228,1.605c-0.154,0.396-0.429,0.72-0.826,0.967
			c-0.399,0.25-0.922,0.375-1.568,0.375c-0.628,0-1.143-0.111-1.541-0.325c-0.401-0.217-0.686-0.53-0.857-0.94
			c-0.17-0.411-0.256-0.972-0.256-1.682V38.1h0.889v3.871c0,0.586,0.054,1.012,0.161,1.289c0.109,0.275,0.296,0.488,0.559,0.637
			c0.264,0.151,0.586,0.225,0.968,0.225c0.652,0,1.118-0.147,1.396-0.441c0.278-0.297,0.417-0.865,0.417-1.709V38.1z"/>
		<path style="fill:#494949;" d="M138.746,44.809V38.1h2.975c0.597,0,1.052,0.062,1.363,0.182c0.311,0.122,0.559,0.334,0.746,0.64
			c0.186,0.304,0.278,0.642,0.278,1.01c0,0.476-0.153,0.877-0.461,1.204c-0.308,0.326-0.785,0.533-1.427,0.623
			c0.235,0.111,0.413,0.223,0.535,0.332c0.259,0.238,0.504,0.537,0.736,0.893l1.167,1.826h-1.117l-0.887-1.395
			c-0.26-0.403-0.473-0.711-0.641-0.927c-0.168-0.212-0.319-0.361-0.452-0.447c-0.132-0.085-0.268-0.145-0.404-0.177
			c-0.101-0.022-0.265-0.035-0.495-0.035h-1.027v2.98H138.746z M139.635,41.063h1.907c0.404,0,0.723-0.045,0.951-0.127
			c0.229-0.082,0.404-0.219,0.522-0.402c0.119-0.185,0.179-0.385,0.179-0.603c0-0.318-0.116-0.577-0.346-0.781
			c-0.229-0.204-0.594-0.307-1.091-0.307h-2.122V41.063z"/>
		<path style="fill:#494949;" d="M148.836,44.809V38.1h0.887v6.709H148.836z"/>
		<path style="fill:#494949;" d="M156.182,44.809v-5.917h-2.21V38.1h5.316v0.792h-2.219v5.917H156.182z"/>
		<path style="fill:#494949;" d="M163.534,44.809V38.1h0.889v6.709H163.534z"/>
		<path style="fill:#494949;" d="M169.192,44.809V38.1h4.85v0.792h-3.961v2.056h3.71v0.787h-3.71v2.283h4.117v0.791H169.192z"/>
		<path style="fill:#494949;" d="M178.308,42.652l0.837-0.071c0.039,0.337,0.132,0.611,0.276,0.824
			c0.146,0.215,0.37,0.391,0.675,0.522c0.305,0.133,0.647,0.198,1.031,0.198c0.337,0,0.636-0.05,0.896-0.149
			c0.259-0.102,0.451-0.24,0.579-0.413c0.126-0.177,0.189-0.37,0.189-0.575c0-0.21-0.062-0.396-0.184-0.552
			c-0.122-0.157-0.323-0.289-0.604-0.396c-0.18-0.071-0.578-0.178-1.195-0.328c-0.615-0.146-1.047-0.286-1.294-0.417
			c-0.321-0.168-0.56-0.376-0.716-0.626c-0.156-0.247-0.236-0.525-0.236-0.833c0-0.34,0.097-0.656,0.289-0.95
			c0.192-0.295,0.473-0.519,0.843-0.671c0.368-0.152,0.778-0.228,1.229-0.228c0.498,0,0.936,0.08,1.316,0.239
			c0.38,0.159,0.671,0.396,0.876,0.708c0.204,0.31,0.315,0.661,0.33,1.057l-0.851,0.064c-0.046-0.424-0.202-0.745-0.466-0.963
			c-0.263-0.216-0.653-0.323-1.169-0.323c-0.536,0-0.928,0.098-1.173,0.295s-0.368,0.436-0.368,0.711
			c0,0.242,0.087,0.439,0.26,0.595c0.171,0.155,0.618,0.315,1.339,0.479c0.721,0.162,1.215,0.306,1.484,0.428
			c0.392,0.179,0.679,0.408,0.865,0.683c0.187,0.277,0.278,0.598,0.278,0.955c0,0.358-0.101,0.693-0.306,1.008
			c-0.205,0.316-0.497,0.563-0.881,0.738c-0.383,0.175-0.814,0.264-1.292,0.264c-0.607,0-1.115-0.09-1.525-0.267
			c-0.411-0.177-0.732-0.443-0.968-0.797C178.443,43.504,178.319,43.102,178.308,42.652z"/>
		<path style="fill:#494949;" d="M193.985,44.809V38.1h0.888v6.709H193.985z"/>
		<path style="fill:#494949;" d="M199.614,44.809V38.1h0.912l3.52,5.269V38.1h0.854v6.709h-0.91l-3.523-5.271v5.271H199.614z"/>
		<path style="fill:#494949;" d="M211.493,44.809l-2.6-6.709h0.96l1.743,4.874c0.141,0.391,0.261,0.758,0.353,1.099
			c0.104-0.365,0.223-0.732,0.362-1.099l1.812-4.874h0.905l-2.625,6.709H211.493z"/>
		<path style="fill:#494949;" d="M219.031,44.809V38.1h4.85v0.792h-3.964v2.056h3.713v0.787h-3.713v2.283h4.121v0.791H219.031z"/>
		<path style="fill:#494949;" d="M228.146,42.652l0.837-0.071c0.039,0.337,0.132,0.611,0.275,0.824
			c0.146,0.215,0.372,0.391,0.677,0.522c0.304,0.133,0.647,0.198,1.027,0.198c0.339,0,0.639-0.05,0.899-0.149
			c0.258-0.102,0.451-0.24,0.579-0.413c0.127-0.177,0.188-0.37,0.188-0.575c0-0.21-0.06-0.396-0.183-0.552
			c-0.122-0.157-0.324-0.289-0.605-0.396c-0.177-0.071-0.576-0.178-1.192-0.328c-0.617-0.146-1.049-0.286-1.295-0.417
			c-0.321-0.168-0.561-0.376-0.718-0.626c-0.155-0.247-0.234-0.525-0.234-0.833c0-0.34,0.097-0.656,0.288-0.95
			c0.19-0.295,0.474-0.519,0.842-0.671c0.369-0.152,0.779-0.228,1.23-0.228c0.497,0,0.936,0.08,1.315,0.239
			c0.381,0.159,0.671,0.396,0.877,0.708c0.205,0.31,0.313,0.661,0.329,1.057l-0.851,0.064c-0.046-0.424-0.2-0.745-0.466-0.963
			c-0.263-0.216-0.652-0.323-1.168-0.323c-0.537,0-0.927,0.098-1.173,0.295c-0.247,0.197-0.37,0.436-0.37,0.711
			c0,0.242,0.088,0.439,0.261,0.595c0.172,0.155,0.618,0.315,1.339,0.479c0.723,0.162,1.218,0.306,1.484,0.428
			c0.39,0.179,0.681,0.408,0.866,0.683c0.187,0.277,0.278,0.598,0.278,0.955c0,0.358-0.103,0.693-0.307,1.008
			c-0.206,0.316-0.499,0.563-0.881,0.738c-0.383,0.175-0.813,0.264-1.292,0.264c-0.607,0-1.116-0.09-1.524-0.267
			c-0.413-0.177-0.732-0.443-0.965-0.797C228.281,43.504,228.157,43.102,228.146,42.652z"/>
		<path style="fill:#494949;" d="M239.589,44.809v-5.917h-2.21V38.1h5.318v0.792h-2.22v5.917H239.589z"/>
		<path style="fill:#494949;" d="M246.767,44.809V38.1h1.336l1.587,4.751c0.145,0.442,0.253,0.771,0.319,0.991
			c0.077-0.242,0.196-0.601,0.358-1.072l1.603-4.67h1.196v6.709h-0.856v-5.613l-1.947,5.613h-0.8l-1.941-5.71v5.71H246.767z"/>
		<path style="fill:#494949;" d="M257.802,44.809V38.1h4.85v0.792h-3.962v2.056h3.712v0.787h-3.712v2.283h4.119v0.791H257.802z"/>
		<path style="fill:#494949;" d="M267.21,44.809V38.1h0.911l3.524,5.269V38.1h0.85v6.709h-0.91l-3.521-5.271v5.271H267.21z"/>
		<path style="fill:#494949;" d="M278.881,44.809v-5.917h-2.212V38.1h5.315v0.792h-2.217v5.917H278.881z"/>
		<path style="fill:#494949;" d="M296.487,42.457l0.891,0.224c-0.187,0.729-0.523,1.286-1.006,1.67
			c-0.483,0.381-1.073,0.573-1.771,0.573c-0.724,0-1.312-0.146-1.767-0.442c-0.451-0.294-0.798-0.721-1.032-1.277
			c-0.235-0.561-0.354-1.159-0.354-1.8c0-0.699,0.134-1.309,0.398-1.828c0.268-0.521,0.65-0.915,1.141-1.185
			c0.493-0.27,1.035-0.404,1.628-0.404c0.671,0,1.235,0.171,1.691,0.512c0.459,0.343,0.776,0.821,0.957,1.441l-0.874,0.207
			c-0.157-0.489-0.381-0.846-0.677-1.067c-0.298-0.224-0.67-0.335-1.116-0.335c-0.517,0-0.948,0.124-1.293,0.372
			c-0.346,0.246-0.59,0.579-0.728,0.994c-0.141,0.416-0.213,0.848-0.213,1.288c0,0.569,0.084,1.068,0.249,1.495
			c0.166,0.426,0.424,0.743,0.776,0.955c0.351,0.21,0.728,0.313,1.138,0.313c0.499,0,0.918-0.144,1.264-0.431
			C296.133,43.448,296.367,43.021,296.487,42.457z"/>
		<path style="fill:#494949;" d="M301.386,41.541c0-1.112,0.299-1.984,0.895-2.614c0.598-0.63,1.37-0.944,2.317-0.944
			c0.619,0,1.176,0.147,1.673,0.443c0.498,0.296,0.876,0.709,1.14,1.236c0.261,0.53,0.39,1.132,0.39,1.803
			c0,0.68-0.14,1.288-0.413,1.824c-0.274,0.537-0.661,0.942-1.167,1.219c-0.501,0.277-1.047,0.416-1.629,0.416
			c-0.632,0-1.194-0.154-1.691-0.457c-0.495-0.306-0.874-0.724-1.129-1.25C301.515,42.688,301.386,42.132,301.386,41.541z
			 M302.301,41.557c0,0.808,0.215,1.443,0.65,1.909c0.434,0.466,0.98,0.697,1.638,0.697c0.668,0,1.216-0.233,1.648-0.703
			c0.433-0.472,0.647-1.138,0.647-2c0-0.547-0.093-1.023-0.278-1.43c-0.184-0.408-0.453-0.724-0.808-0.949
			c-0.355-0.224-0.755-0.336-1.199-0.336c-0.627,0-1.169,0.216-1.62,0.647C302.527,39.825,302.301,40.547,302.301,41.557z"/>
		<path style="fill:#494949;" d="M312.121,44.809V38.1h0.909l3.522,5.269V38.1h0.853v6.709h-0.91l-3.524-5.271v5.271H312.121z"/>
		<path style="fill:#494949;" d="M321.781,42.652l0.838-0.071c0.038,0.337,0.132,0.611,0.278,0.824
			c0.143,0.215,0.367,0.391,0.672,0.522c0.305,0.133,0.647,0.198,1.031,0.198c0.338,0,0.636-0.05,0.896-0.149
			c0.258-0.102,0.451-0.24,0.578-0.413c0.126-0.177,0.191-0.37,0.191-0.575c0-0.21-0.063-0.396-0.184-0.552
			c-0.123-0.157-0.323-0.289-0.604-0.396c-0.181-0.071-0.579-0.178-1.194-0.328c-0.618-0.146-1.049-0.286-1.295-0.417
			c-0.321-0.168-0.559-0.376-0.715-0.626c-0.157-0.247-0.235-0.525-0.235-0.833c0-0.34,0.096-0.656,0.286-0.95
			c0.193-0.295,0.473-0.519,0.842-0.671c0.37-0.152,0.779-0.228,1.232-0.228c0.496,0,0.936,0.08,1.313,0.239
			c0.381,0.159,0.671,0.396,0.877,0.708c0.205,0.31,0.315,0.661,0.328,1.057l-0.851,0.064c-0.045-0.424-0.199-0.745-0.466-0.963
			c-0.262-0.216-0.651-0.323-1.165-0.323c-0.537,0-0.929,0.098-1.173,0.295c-0.246,0.197-0.37,0.436-0.37,0.711
			c0,0.242,0.086,0.439,0.259,0.595s0.617,0.315,1.339,0.479c0.723,0.162,1.218,0.306,1.484,0.428
			c0.393,0.179,0.681,0.408,0.866,0.683c0.186,0.277,0.277,0.598,0.277,0.955c0,0.358-0.102,0.693-0.306,1.008
			c-0.204,0.316-0.498,0.563-0.879,0.738c-0.383,0.175-0.814,0.264-1.293,0.264c-0.608,0-1.116-0.09-1.525-0.267
			c-0.41-0.177-0.732-0.443-0.967-0.797C321.916,43.504,321.792,43.102,321.781,42.652z"/>
		<path style="fill:#494949;" d="M335.92,38.1h0.889v3.877c0,0.674-0.077,1.209-0.231,1.605c-0.152,0.396-0.426,0.72-0.824,0.967
			c-0.4,0.25-0.92,0.375-1.567,0.375c-0.63,0-1.142-0.111-1.54-0.325c-0.401-0.217-0.688-0.53-0.857-0.94
			c-0.171-0.411-0.256-0.972-0.256-1.682V38.1h0.888v3.871c0,0.586,0.053,1.012,0.162,1.289c0.107,0.275,0.293,0.488,0.556,0.637
			c0.266,0.151,0.589,0.225,0.97,0.225c0.653,0,1.119-0.147,1.396-0.441c0.275-0.297,0.416-0.865,0.416-1.709V38.1z"/>
		<path style="fill:#494949;" d="M341.434,44.809V38.1h0.89v5.918h3.303v0.791H341.434z"/>
		<path style="fill:#494949;" d="M350.879,44.809v-5.917h-2.211V38.1h5.318v0.792h-2.22v5.917H350.879z"/>
		<path style="fill:#494949;" d="M356.651,44.809l2.574-6.709h0.959l2.743,6.709h-1.009l-0.785-2.03h-2.802l-0.737,2.03H356.651z
			 M358.586,42.055h2.273l-0.702-1.857c-0.211-0.565-0.369-1.029-0.473-1.392c-0.086,0.429-0.206,0.856-0.363,1.281L358.586,42.055z
			"/>
		<path style="fill:#494949;" d="M366.813,44.809V38.1h0.912l3.523,5.269V38.1h0.85v6.709h-0.91l-3.522-5.271v5.271H366.813z"/>
		<path style="fill:#494949;" d="M378.482,44.809v-5.917h-2.21V38.1h5.316v0.792h-2.219v5.917H378.482z"/>
	</g>
</g>
</svg>
