<?xml version="1.0" encoding="iso-8859-1"?>
<!-- Generator: Adobe Illustrator 16.0.0, SVG Export Plug-In . SVG Version: 6.00 Build 0)  -->
<!DOCTYPE svg PUBLIC "-//W3C//DTD SVG 1.1//EN" "http://www.w3.org/Graphics/SVG/1.1/DTD/svg11.dtd">
<svg version="1.1" id="&#x5716;&#x5C64;_1" xmlns="http://www.w3.org/2000/svg" xmlns:xlink="http://www.w3.org/1999/xlink" x="0px"
	 y="0px" width="34.5px" height="34.167px" viewBox="0 0 34.5 34.167" style="enable-background:new 0 0 34.5 34.167;"
	 xml:space="preserve">
<g>
	<g>
		<path style="fill:#F5C503;" d="M16.848,31.953c-8.227,0-14.919-6.693-14.919-14.921c0-8.227,6.692-14.919,14.919-14.919
			s14.919,6.693,14.919,14.919C31.768,25.26,25.075,31.953,16.848,31.953z M16.848,2.936c-7.772,0-14.096,6.324-14.096,14.096
			c0,7.773,6.324,14.096,14.096,14.096s14.096-6.323,14.096-14.096C30.944,9.26,24.62,2.936,16.848,2.936z"/>
	</g>
	<path style="fill:#F5C503;" d="M10.185,12.208c0.082,2.132,1.52,4.193,2.735,5.858c1.107,1.515,2.405,2.893,3.864,4.073
		c0.926,0.749,1.919,1.427,2.976,1.98c0.642,0.336,1.072,0.544,1.818,0.332c1.146-0.325,3.78-1.678,3.338-3.156
		c-0.225-0.75-1.138-1.485-1.716-1.961c-0.698-0.574-1.922-1.584-2.739-0.64c-0.49,0.47-0.997,1.552-1.764,1.626
		c-0.823,0.079-1.554-0.874-2.066-1.395c-0.839-0.855-1.6-1.786-2.275-2.775c-0.634-1.035,0.158-1.461,0.926-2.022
		c0.351-0.258,0.798-0.5,0.969-0.924c0.32-0.787-0.432-1.764-0.864-2.371c-0.406-0.571-0.879-1.095-1.4-1.566
		c-0.681-0.615-1.432-0.126-2.003,0.363C11.191,10.308,10.528,11.218,10.185,12.208z"/>
</g>
</svg>
