<?xml version="1.0" encoding="iso-8859-1"?>
<!-- Generator: Adobe Illustrator 16.0.0, SVG Export Plug-In . SVG Version: 6.00 Build 0)  -->
<!DOCTYPE svg PUBLIC "-//W3C//DTD SVG 1.1//EN" "http://www.w3.org/Graphics/SVG/1.1/DTD/svg11.dtd">
<svg version="1.1" id="&#x5716;&#x5C64;_1" xmlns="http://www.w3.org/2000/svg" xmlns:xlink="http://www.w3.org/1999/xlink" x="0px"
	 y="0px" width="34.5px" height="34.167px" viewBox="0 0 34.5 34.167" style="enable-background:new 0 0 34.5 34.167;"
	 xml:space="preserve">
<g>
	<path style="fill:#F5C503;" d="M16.848,2.112c-8.49,0-15.373,6.884-15.373,15.373c0,8.491,6.883,15.373,15.373,15.373
		c8.491,0,15.373-6.882,15.373-15.373C32.221,8.996,25.339,2.112,16.848,2.112z M26.725,20.778c0,1.973-1.615,3.588-3.589,3.588
		H10.56c-1.974,0-3.588-1.615-3.588-3.588v-6.584c0-1.974,1.615-3.589,3.588-3.589h12.576c1.974,0,3.589,1.615,3.589,3.589V20.778z"
		/>
	<polygon style="fill:#F5C503;" points="14.339,13.745 14.339,17.538 14.339,21.328 17.403,19.433 20.467,17.538 17.403,15.641 	"/>
</g>
</svg>
