<?xml version="1.0" encoding="iso-8859-1"?>
<!-- Generator: Adobe Illustrator 16.0.0, SVG Export Plug-In . SVG Version: 6.00 Build 0)  -->
<!DOCTYPE svg PUBLIC "-//W3C//DTD SVG 1.1//EN" "http://www.w3.org/Graphics/SVG/1.1/DTD/svg11.dtd">
<svg version="1.1" id="&#x5716;&#x5C64;_1" xmlns="http://www.w3.org/2000/svg" xmlns:xlink="http://www.w3.org/1999/xlink" x="0px"
	 y="0px" width="34.5px" height="34.167px" viewBox="0 0 34.5 34.167" style="enable-background:new 0 0 34.5 34.167;"
	 xml:space="preserve">
<g>
	<path style="fill:#F5C503;" d="M16.848,2.112c-8.491,0-15.373,6.882-15.373,15.373c0,8.489,6.882,15.373,15.373,15.373
		c8.49,0,15.373-6.884,15.373-15.373C32.221,8.995,25.338,2.112,16.848,2.112z M21.963,10.84c0,0-1.884-0.018-2.359-0.018
		c-0.711,0-1.186,0.617-1.186,1.248c0,0.428,0,2.625,0,2.625h3.544l-0.404,3.573h-3.183v9.114h-3.6v-9.073h-3.043v-3.656h3.084
		c0,0,0-1.285,0-3.448c0-1.92,2.14-3.615,3.629-3.615c0.224,0,3.517,0.031,3.517,0.031V10.84z"/>
</g>
</svg>
