<?xml version="1.0" encoding="iso-8859-1"?>
<!-- Generator: Adobe Illustrator 16.0.0, SVG Export Plug-In . SVG Version: 6.00 Build 0)  -->
<!DOCTYPE svg PUBLIC "-//W3C//DTD SVG 1.1//EN" "http://www.w3.org/Graphics/SVG/1.1/DTD/svg11.dtd">
<svg version="1.1" id="&#x5716;&#x5C64;_1" xmlns="http://www.w3.org/2000/svg" xmlns:xlink="http://www.w3.org/1999/xlink" x="0px"
	 y="0px" width="34.5px" height="34.167px" viewBox="0 0 34.5 34.167" style="enable-background:new 0 0 34.5 34.167;"
	 xml:space="preserve">
<g>
	<path style="fill:none;" d="M25.056,16.704l-7.036-6.635c-0.712-0.671-1.285-0.961-2.435,0.125L8.55,16.827
		c-0.712,0.671-0.886,1.087,1.415,1.087h0.698v5.256c0,0.79,0.646,1.436,1.435,1.436h9.542c0.789,0,1.436-0.646,1.436-1.436v-5.256
		h0.96C25.459,17.914,26.206,17.788,25.056,16.704z M19.264,22.162c0,0.393-0.32,0.712-0.711,0.712h-3.399
		c-0.392,0-0.711-0.319-0.711-0.712v-3.399c0-0.391,0.32-0.71,0.711-0.71h3.399c0.391,0,0.711,0.319,0.711,0.71V22.162z"/>
	<path style="fill:#F5C503;" d="M18.553,18.052h-3.399c-0.392,0-0.711,0.319-0.711,0.71v3.399c0,0.393,0.32,0.712,0.711,0.712h3.399
		c0.391,0,0.711-0.319,0.711-0.712v-3.399C19.264,18.372,18.944,18.052,18.553,18.052z"/>
	<path style="fill:#F5C503;" d="M16.848,2.112c-8.243,0-14.925,6.683-14.925,14.925c0,8.243,6.683,14.925,14.925,14.925
		s14.925-6.682,14.925-14.925C31.773,8.795,25.091,2.112,16.848,2.112z M24.036,17.914h-0.96v5.256c0,0.79-0.647,1.436-1.436,1.436
		h-9.542c-0.79,0-1.435-0.646-1.435-1.436v-5.256H9.964c-2.3,0-2.126-0.416-1.415-1.087l7.036-6.633
		c1.15-1.085,1.722-0.796,2.435-0.125l7.036,6.635C26.206,17.788,25.459,17.914,24.036,17.914z"/>
</g>
</svg>
