<svg xmlns="http://www.w3.org/2000/svg" width="19.427" height="18.935" viewBox="0 0 19.427 18.935">
  <path id="Icon_awesome-arrow-right" data-name="Icon awesome-arrow-right" d="M8.26,3.915l.963-.963a1.036,1.036,0,0,1,1.47,0l8.429,8.425a1.036,1.036,0,0,1,0,1.47l-8.429,8.429a1.036,1.036,0,0,1-1.47,0l-.963-.963a1.042,1.042,0,0,1,.017-1.487L13.5,13.849H1.041A1.038,1.038,0,0,1,0,12.808V11.421A1.038,1.038,0,0,1,1.041,10.38H13.5L8.277,5.4A1.034,1.034,0,0,1,8.26,3.915Z" transform="translate(0 -2.647)" fill="#2469b8"/>
</svg>
