<svg xmlns="http://www.w3.org/2000/svg" xmlns:xlink="http://www.w3.org/1999/xlink" width="253.641" height="55" viewBox="0 0 253.641 55">
  <defs>
    <clipPath id="clip-path">
      <path id="Path_164" data-name="Path 164" d="M36.669,583.356H57.292v-.021H71.041v.021H91.664v-5.4h-55Zm0-8.621h55v-3.374h-55ZM81.353,548.96a10.312,10.312,0,0,0-10.312,10.313v7.1H91.664V548.96Zm-24.06,18.463H36.669v2.13H57.292ZM36.669,603.96H46.981a10.311,10.311,0,0,0,10.312-10.312v-3.626H36.669Zm34.372-10.312A10.312,10.312,0,0,0,81.353,603.96H91.664V590.022H71.041ZM57.292,559.273A10.312,10.312,0,0,0,46.981,548.96H36.669v17.412H57.292Zm13.749,10.281H91.664v-2.13H71.041Z" transform="translate(-36.669 -548.96)" fill="none"/>
    </clipPath>
    <radialGradient id="radial-gradient" cx="0.498" cy="0.5" r="0.502" gradientTransform="matrix(1, 0, 0, -1, 0, 1)" gradientUnits="objectBoundingBox">
      <stop offset="0" stop-color="#fff"/>
      <stop offset="1" stop-color="#f1ab00"/>
    </radialGradient>
  </defs>
  <g id="Group_103" data-name="Group 103" transform="translate(-36.669 -547.927)">
    <g id="Group_108" data-name="Group 108" transform="translate(36.669 547.927)">
      <g id="Group_107" data-name="Group 107" clip-path="url(#clip-path)">
        <rect id="Rectangle_93" data-name="Rectangle 93" width="54.995" height="55" transform="translate(0 0)" fill="url(#radial-gradient)"/>
      </g>
    </g>
    <g id="Group_1369" data-name="Group 1369" transform="translate(103.467 547.927)">
      <g id="Group_109" data-name="Group 109" transform="translate(0.36 40.09)">
        <path id="Path_165" data-name="Path 165" d="M136.124,609v-4c0-1.346-.481-1.77-1.867-1.77v-.635h6.892v.635c-1.386,0-1.867.424-1.867,1.77v9.273c0,1.346.481,1.77,1.867,1.77v.635h-6.892v-.635c1.387,0,1.867-.424,1.867-1.77V609.9h-5.16v4.367c0,1.346.482,1.77,1.868,1.77v.635h-6.893v-.635c1.386,0,1.867-.424,1.867-1.77V605c0-1.346-.482-1.77-1.867-1.77v-.635h6.893v.635c-1.387,0-1.868.424-1.868,1.77v4Z" transform="translate(-125.939 -602.112)" fill="#6d6c6c"/>
        <path id="Path_166" data-name="Path 166" d="M145.057,609.69c0-4.1,2.618-7.542,6.913-7.542,4.332,0,7.028,3,7.028,7.253,0,3.887-2.619,7.523-7.047,7.523C147.753,616.924,145.057,613.922,145.057,609.69Zm3.351-.173c0,4.828,1.367,6.657,3.446,6.657,3.5,0,3.793-4.022,3.793-6.638,0-4.963-1.5-6.637-3.562-6.637C149.871,602.9,148.408,604.861,148.408,609.517Z" transform="translate(-130.156 -602.013)" fill="#6d6c6c"/>
        <path id="Path_167" data-name="Path 167" d="M173.785,613.424c.712,1.308,1.367,2.5,3.022,2.617v.635h-4.756a15.838,15.838,0,0,1-.828-1.616l-1.136-2.4c-1.156-2.482-1.907-2.694-2.715-2.694v4.31c0,1.346.481,1.77,1.868,1.77v.635h-6.894v-.635c1.387,0,1.867-.424,1.867-1.77V605c0-1.346-.481-1.77-1.867-1.77v-.635h8.28c2.85,0,4.6,1.54,4.6,3.579,0,2.116-1.867,3.117-3.715,3.462a4.271,4.271,0,0,1,1.232,1.713Zm-6.047-4.367c3.177,0,4.14-1.039,4.14-3.078,0-1.943-1.117-2.636-3.178-2.636-1.27,0-1.328.48-1.328,1.578v4.136Z" transform="translate(-133.971 -602.112)" fill="#6d6c6c"/>
        <path id="Path_168" data-name="Path 168" d="M183.382,605c0-1.346-.481-1.77-1.867-1.77v-.635h6.894v.635c-1.387,0-1.868.424-1.868,1.77v9.273c0,1.346.481,1.77,1.868,1.77v.635h-6.894v-.635c1.387,0,1.867-.424,1.867-1.77Z" transform="translate(-138.199 -602.112)" fill="#6d6c6c"/>
        <path id="Path_169" data-name="Path 169" d="M192.629,616.675l-.443-.635,7.74-12.7h-.79c-3.042,0-4.159,1-6.065,3.251l-.558-.327,1.078-3.675h9.9l.308.635-7.856,12.7h.751c3.254,0,4.641-1.135,6.8-3.424l.6.462-1.174,3.713Z" transform="translate(-140.553 -602.112)" fill="#6d6c6c"/>
        <path id="Path_170" data-name="Path 170" d="M209.156,609.69c0-4.1,2.618-7.542,6.912-7.542,4.331,0,7.027,3,7.027,7.253,0,3.887-2.618,7.523-7.047,7.523C211.852,616.924,209.156,613.922,209.156,609.69Zm3.35-.173c0,4.828,1.367,6.657,3.446,6.657,3.5,0,3.793-4.022,3.793-6.638,0-4.963-1.5-6.637-3.563-6.637C213.969,602.9,212.506,604.861,212.506,609.517Z" transform="translate(-144.296 -602.013)" fill="#6d6c6c"/>
        <path id="Path_171" data-name="Path 171" d="M238.775,612.385v-6.426c0-1.635-.154-2.558-2.06-2.731v-.635h5.065v.635c-1.83.308-2,1.039-2,2.731v10.717h-1.752l-7.74-10.946v7.387c0,2.1.231,2.5,2.252,2.924v.635h-5.449v-.635c1.849-.288,2.2-.866,2.2-2.636v-8.849a3.844,3.844,0,0,0-2.2-1.328v-.635h4.891Z" transform="translate(-148.252 -602.112)" fill="#6d6c6c"/>
        <path id="Path_172" data-name="Path 172" d="M268.23,606.131l-.733.25c-.943-1.539-2.869-3.52-4.814-3.52a2.131,2.131,0,0,0-2.407,2.1c0,1.578,1.656,2,2.889,2.386l1.136.365c2.369.77,4.678,1.867,4.678,4.714a4.537,4.537,0,0,1-4.716,4.464,8.067,8.067,0,0,1-2.427-.423,2.88,2.88,0,0,0-.981-.213c-.327,0-.5.039-1.714.616l-1.252-4.444.751-.25c1.136,1.828,3,3.964,5.333,3.964a2.677,2.677,0,0,0,2.811-2.463c0-1.579-1.541-2.059-2.773-2.444-2.561-.828-5.776-1.789-5.776-5.06a4.074,4.074,0,0,1,4.312-4.06,6.078,6.078,0,0,1,2.118.385,2.356,2.356,0,0,0,.808.192,2.617,2.617,0,0,0,1.483-.712Z" transform="translate(-155.047 -601.975)" fill="#6d6c6c"/>
        <path id="Path_173" data-name="Path 173" d="M275.047,605c0-1.346-.482-1.77-1.868-1.77v-.635h6.894v.635c-1.387,0-1.868.424-1.868,1.77v9.273c0,1.346.481,1.77,1.868,1.77v.635h-6.894v-.635c1.387,0,1.868-.424,1.868-1.77Z" transform="translate(-158.42 -602.112)" fill="#6d6c6c"/>
        <path id="Path_174" data-name="Path 174" d="M295.573,606.477l-.867.269c-.847-1.846-2.445-3.847-4.64-3.847-2.927,0-3.581,3.713-3.581,5.964,0,4.655,2.31,6.579,4.466,6.579,1.907,0,3.119-1.327,4.121-2.751l.5.365c-1.31,2.328-3.119,3.867-5.911,3.867a6.637,6.637,0,0,1-6.527-6.887c0-4,2.676-7.888,6.662-7.888a5.469,5.469,0,0,1,1.733.308,4.486,4.486,0,0,0,1.27.308,3.349,3.349,0,0,0,1.406-.442l.212-.1Z" transform="translate(-160.616 -602.013)" fill="#6d6c6c"/>
        <path id="Path_175" data-name="Path 175" d="M300.079,616.041c1.387,0,1.867-.424,1.867-1.77V605c0-1.346-.481-1.77-1.867-1.77v-.635H311.69l1.213,3.6-.6.251a7.313,7.313,0,0,0-5.488-3.1c-1.713,0-1.713.577-1.713,2V609.1h.385c1.926,0,2.772-.327,3.427-2.27h.751v5.56h-.751c-.52-1.943-1.5-2.385-3.388-2.385H305.1v4.059c0,1.116.115,1.866,1.482,1.866a8.166,8.166,0,0,0,6.026-3.1l.52.27-1.443,3.578H300.079Z" transform="translate(-164.354 -602.112)" fill="#6d6c6c"/>
      </g>
      <path id="Path_176" data-name="Path 176" d="M144.781,556.156q1.771,0,1.771,1.394a7.722,7.722,0,0,1-1.341,3.324c-.108.214-.2.412-.268.59q.966-.052,1.771-.053,7.673,0,16.1.375a30.508,30.508,0,0,0,5.635-.643q1.234,0,1.234.537,0,.481-1.126,1.769-.966.8-2.2,1.93a3.632,3.632,0,0,1-2.361,1.019,11.631,11.631,0,0,1-3.059-.7,28.4,28.4,0,0,0-7.3-1.448q-3.273-.161-7.406-.161-1.449,0-2.737.054a26.387,26.387,0,0,1-2.147,3.163,29.7,29.7,0,0,1-8,7.023q-4.454,3-7.083,3a1.428,1.428,0,0,1-1.556-1.609,6.944,6.944,0,0,1,1.181-2.52,3.119,3.119,0,0,1,2.2-.911,7.514,7.514,0,0,0,3.917-1.126,25.082,25.082,0,0,0,4.722-3.217,17.72,17.72,0,0,0,3.22-3.485,50.044,50.044,0,0,0-8.64,1.877q-1.126.483-2.307.965a4.553,4.553,0,0,1-1.342.375q-1.181,0-1.18-1.555a3.79,3.79,0,0,1,2.415-3.378q2.307-.162,5.957-.644,3.433-.429,6.922-.59a7.229,7.229,0,0,0,1.073-3.056,3.238,3.238,0,0,1,.59-1.984A3.469,3.469,0,0,1,144.781,556.156Zm1.771-8.74q2.791.376,2.791,1.555a3.339,3.339,0,0,1-.591,1.663q-.107.751-.214,1.608,4.936-.214,9.98-.268h3.811a2.826,2.826,0,0,1,1.556.214,1.113,1.113,0,0,1,.429.966,2.866,2.866,0,0,1-.322,1.126,7.19,7.19,0,0,0-.859,1.93q-.214,1.341-.428,2.52a3.772,3.772,0,0,1-.484,1.179.939.939,0,0,1-.912.537,1.1,1.1,0,0,1-.8-.537,1.964,1.964,0,0,1-.269-.965V556q.054-.7.054-.964a.508.508,0,0,0-.43-.537q-6.547,0-12.932.268-8.748.482-12.074.911-1.02.054-1.02,1.287v.965q-.054.912-.053,1.234a1.886,1.886,0,0,1-.483,1.394,1.6,1.6,0,0,1-1.127.483q-1.075-.054-1.073-1.555,0-1.716-.161-3.539a1.7,1.7,0,0,0-.268-.75,1.019,1.019,0,0,1-.43-.858,2.6,2.6,0,0,1,2.2-2.146,10.651,10.651,0,0,1,1.4.376,10.948,10.948,0,0,0,2.147.214q4.4-.267,8.853-.429v-1.555a1.085,1.085,0,0,0-.429-1.233,1.28,1.28,0,0,1-.429-.912,1.742,1.742,0,0,1,.966-1.072A7.681,7.681,0,0,1,146.552,547.416Zm2.415,18.392q.322,0,1.126.7a1.766,1.766,0,0,1,.483,1.072,4.466,4.466,0,0,1-1.556,2.359,41.11,41.11,0,0,0-3.489,4.611,6.909,6.909,0,0,0-1.234,1.984c0,.179.107.3.322.376a32.29,32.29,0,0,0,5.582.321,51.928,51.928,0,0,0,6.761-.214.383.383,0,0,0,.215-.376q-.429-1.286-.8-2.359a13.163,13.163,0,0,0-.537-1.341,2.3,2.3,0,0,1-.429-1.394q0-.749,1.61-.911a1.154,1.154,0,0,1,1.073.536q.484,1.181.966,2.413a19.337,19.337,0,0,0,1.126,2.038,4.344,4.344,0,0,1,.912,2.9,1.189,1.189,0,0,1-.912,1.18c-.428-.036-.93-.054-1.5-.054q-.7.108-2.951.268-2.469.161-5.688.16-2.2,0-3.917-.16a20.465,20.465,0,0,1-3.113-.375,4.067,4.067,0,0,0-1.181.161,1.443,1.443,0,0,1-.536.106q-1.236-.053-1.5-2.894a2.308,2.308,0,0,1,.376-1.126,3.187,3.187,0,0,1,1.127-1.019,18,18,0,0,0,3.756-4.611q1.662-2.466,2.576-3.592A1.8,1.8,0,0,1,148.967,565.808Z" transform="translate(-124.712 -546.291)" fill="#6d6c6c"/>
      <path id="Path_177" data-name="Path 177" d="M213.482,563.137h-.43q-.751.109-1.77.161a8.9,8.9,0,0,1-1.986.375,1.587,1.587,0,0,1-1.235-.483,1.781,1.781,0,0,1-.375-1.126,1.58,1.58,0,0,1,.429-.8,3.633,3.633,0,0,0,.322-1.019q0-.59-.053-1.662a2.728,2.728,0,0,1-.214-1.394,1.819,1.819,0,0,1,.7-.858,1.887,1.887,0,0,1,.912-.268,2.147,2.147,0,0,1,.751.268,2.89,2.89,0,0,0,.8.107q1.072,0,3.541-.107,2.255,0,4.615-.054a7.606,7.606,0,0,0,2.683-.482,1.662,1.662,0,0,1,1.126.59,2.7,2.7,0,0,1,.537,1.447.946.946,0,0,1-.269.7,3.266,3.266,0,0,0-.376,1.876,2.025,2.025,0,0,0,.16.8,3.377,3.377,0,0,1,.161.965.985.985,0,0,1-.322.8,1.356,1.356,0,0,1-.8.268,5.373,5.373,0,0,1-.913-.108,13.07,13.07,0,0,0-2.522-.214q-1.342,0-2.737.054a.428.428,0,0,1,.053.16,1.891,1.891,0,0,1-.858,1.394,28.632,28.632,0,0,0,3.005,2.359,7.914,7.914,0,0,1,2.254-1.555,15.412,15.412,0,0,1,5.527-1.555q1.019.108.912,1.233,0,1.127-.59,1.395-1.5.161-3.756.59-1.02.269-2.845.858a18.492,18.492,0,0,0,7.889,2.573,1.813,1.813,0,0,1,.7.214,1.013,1.013,0,0,1,.268.644,2.723,2.723,0,0,1-.429,1.448A1.481,1.481,0,0,1,227,573.7a12.392,12.392,0,0,1-5.957-1.983,73.424,73.424,0,0,1-7.3-5.363.892.892,0,0,1-.268-.268c-.287.214-.573.412-.859.59a4.108,4.108,0,0,1-.858.59,2.914,2.914,0,0,1,.215,1.18,4.418,4.418,0,0,1-.269,1.5c0,.287.09.429.269.429q2.093-.213,4.454-.429a.569.569,0,0,1,.644.644,2.784,2.784,0,0,1-.483,1.341,1.074,1.074,0,0,1-.912.429,25.581,25.581,0,0,0-2.737.107,5.765,5.765,0,0,0-1.342.214,5.57,5.57,0,0,0-1.717,1.019h.107a131.934,131.934,0,0,0,17.065,1.233,22.7,22.7,0,0,0,3.864-.429q1.34-.268,2.468-.591a5.184,5.184,0,0,1,.967-.16q.964.052.965.75,0,.966-4.293,4.45-2.791,1.984-4.615,1.984a10.65,10.65,0,0,1-4.079-1.287q-1.4-.535-3.166-1.072-1.985-.644-4.883-1.287-4.507-.8-8.747-1.233-4.614-.375-7.727-.375a7.554,7.554,0,0,0-3.059,1.072,4.719,4.719,0,0,1-2.629,1.18q-1.665-.268-2.093-2.627a3.034,3.034,0,0,1,1.61-2.359,4.12,4.12,0,0,0,2.844-1.18,10.725,10.725,0,0,0,2.522-2.359,2.339,2.339,0,0,1,1.824-1.233q1.985,0,1.986,1.287,0,.644-1.986,1.5-1.717,1.5-1.771,1.877l.429.322,1.717-.214q2.415,0,7.781.429a1.17,1.17,0,0,1-.43-.75c.036-.143.2-.268.483-.375q.375-.161,1.073-.429a1.846,1.846,0,0,0,1.449-1.661,10.547,10.547,0,0,0-.107-1.662q-.7.322-1.288.536a11.548,11.548,0,0,1-3.7.965q-2.362,0-2.362-1.5a3.963,3.963,0,0,1,1.235-2.145,2.743,2.743,0,0,1,1.5-.7,1.111,1.111,0,0,1,.7.322,2.062,2.062,0,0,0,1.02.214,11.942,11.942,0,0,0,3.7-1.126,7.871,7.871,0,0,0,2.684-1.555Q213.267,563.3,213.482,563.137Zm-14.381,0q.805,0,.8.644,0,.8-1.126,1.448a13.617,13.617,0,0,1-2.093,1.5,3.3,3.3,0,0,1-1.933.644,1.88,1.88,0,0,1-1.5-.7,2.374,2.374,0,0,1-.7-1.5,2.184,2.184,0,0,1,.268-.964,1.163,1.163,0,0,1,.859-.537,2.85,2.85,0,0,1,1.181.268A12.322,12.322,0,0,0,199.1,563.137Zm-3.649-6.595a2.458,2.458,0,0,1,1.664.858,10.331,10.331,0,0,0,1.664,1.018q.75.321.751.7c0,.286-.179.428-.536.428a15.564,15.564,0,0,1-2.468.215q-1.021,0-2.361.107-.859,0-.912-.7a2.635,2.635,0,0,1,.429-1.394Q194.646,556.543,195.451,556.542Zm1.02-6.6a2.226,2.226,0,0,1,1.557,1.126,6.767,6.767,0,0,0,1.448,1.234c.5.321.751.662.751,1.018q0,.483-.644.483a10.4,10.4,0,0,0-2.308-.268q-.966,0-2.2.108-1.02,0-1.02-.858a2.762,2.762,0,0,1,.483-1.5Q195.612,549.949,196.471,549.947Zm26.186-1.769q3.005,0,3.006,1.126,0,1.018-1.288,1.018a40.182,40.182,0,0,1-4.185,0q-1.288.054-2.791.107a13.475,13.475,0,0,0-.107,1.555,2.834,2.834,0,0,1-.053.536q3.54-.052,7.136-.054,3.327,0,3.327,1.233,0,1.126-1.395,1.126-1.985.107-4.562,0-3.111.107-7.459.214-5.26.269-8,.483-1.665,0-1.664-1.394a2.063,2.063,0,0,1,1.181-1.288,18.435,18.435,0,0,1,2.79-.214q1.662,0,5.742-.107a13.264,13.264,0,0,0,.107-1.984h-.268q-4.346.269-6.546.429-1.611,0-1.61-1.287a1.768,1.768,0,0,1,1.127-1.072,9.963,9.963,0,0,1,2.523-.322q1.287.054,4.507-.054a.15.15,0,0,1-.053-.107,4.766,4.766,0,0,1-.269-1.287q.107-.966,1.931-.965,2.093.429,2.093,1.339-.107.538-.16.966Zm-2.414,12.707q.645,0,.644-.482v-1.5q0-.537-.859-.537-3.863.108-8.1.268a.943.943,0,0,0-.966.752,3.865,3.865,0,0,1-.161,1.126c0,.358.125.536.376.536Q216.539,560.886,220.243,560.885Z" transform="translate(-143.606 -545.873)" fill="#6d6c6c"/>
      <path id="Path_178" data-name="Path 178" d="M271.347,554.66q1.835.215,2,1.555a.9.9,0,0,1-.325.8,1.676,1.676,0,0,1-1.134.268q-2.379.054-4.376.214.052,2.681.107,6.219,1.027-.161,2.053-.429,2.161-.268,2.053.375.054,1.18-1.729,1.823-1.081.374-2.377.7.054,1.286.054,2.466a12.852,12.852,0,0,1-1.242,5.844,7.883,7.883,0,0,1-1.891,2.52,12.689,12.689,0,0,1-6.754,2.788q-1.944-.213-2.052-1.286a4.383,4.383,0,0,1,1.567-3.164,5.1,5.1,0,0,0,.756-.214,2.245,2.245,0,0,1,.7.107,4.315,4.315,0,0,0,.7.054q5.239-.7,5.4-6.649,0-.911-.054-1.877-1.135.215-2.269.375a27.252,27.252,0,0,0-3.35.751q-1.3.752-1.675.643-1.459.055-1.242-2.038a4.162,4.162,0,0,1,3.025-1.984,22.844,22.844,0,0,0,4.862-.429,3.017,3.017,0,0,0,.6-.054q-.055-1.983-.162-3.967,0-1.234-.109-2.359a3.425,3.425,0,0,0-.647.053q-3.19.376-5.241.7a17.677,17.677,0,0,1-1.837.215q-1.135,0-1.188-1.394a2.784,2.784,0,0,1,2.268-1.716q3.241-.268,6.375-.482v-.268a38.437,38.437,0,0,0-.378-4.128,3.064,3.064,0,0,1-.109-.75,1.412,1.412,0,0,1,1.027-1.234,2.29,2.29,0,0,1,1.242-.482,8.71,8.71,0,0,1,1.3.161c.5.321.756.661.756,1.018a.831.831,0,0,1-.325.75,3.182,3.182,0,0,0-.27,1.341v3.377Q269.456,554.768,271.347,554.66Zm11.4,8.579a14.728,14.728,0,0,1,2.215.215,15.188,15.188,0,0,0,2.755.321,3.7,3.7,0,0,0,1.4-.429,3.682,3.682,0,0,1,1.3-.375q2.107.429,1.945,1.716.052,1.5-.487,1.5a6.338,6.338,0,0,0-3.835,2.519q-.919,1.18-1.729,2.092a53.93,53.93,0,0,0,6.051,3.11,21.52,21.52,0,0,0,10.534,2.465q1.512.055,1.513.752-.055.75-2.053,1.769a27.277,27.277,0,0,1-3.242,1.877,3.827,3.827,0,0,1-2.053.7,2.922,2.922,0,0,1-1.458-.483,8.343,8.343,0,0,1-1.729-1.233q-2.541-2.252-4.592-3.753-2.107-1.555-4.646-3.325a19.555,19.555,0,0,1-3.025,2.842q-2.972,3.11-6.106,3.109a7.093,7.093,0,0,1-4.7-1.447,3.472,3.472,0,0,1-.811-2.467,1.322,1.322,0,0,1,.973-1.179,1.366,1.366,0,0,1,.7.16,6.351,6.351,0,0,0,4.376,1.395q2.7-.268,5.888-3.593c.145-.142.234-.232.27-.268q-2.107-1.179-3.026-1.608a5.159,5.159,0,0,0-1.728-.268,1.668,1.668,0,0,1-1.3-.054c-.324-.035-.486-.268-.486-.7a2.59,2.59,0,0,1,2.755-1.93,5.249,5.249,0,0,1,2.269.8q1.3.86,3.35,1.984,2.539-2.627,2.539-3.485a.618.618,0,0,0-.7-.7,40.274,40.274,0,0,0-4.484.215q-.81,0-.81-.644A1.969,1.969,0,0,1,282.747,563.239Zm-4.754-12.975a6.629,6.629,0,0,1,2.539.75q3.565-.161,6.267-.268a2.273,2.273,0,0,0,1.512-1.125,3.256,3.256,0,0,1,1.837-.536q2.592.214,2.593,1.877,0,.8-1.512,1.661a20.2,20.2,0,0,0-1.459,3.217q-.271,1.126-.756,2.52,2-.161,4-.16,3.567,0,3.565,1.341,0,1.233-1.512,1.233-2.108.108-4.97,0-3.08.269-7.348.483-5.079.59-7.726.964-1.944,0-1.944-1.5a2.238,2.238,0,0,1,1.351-1.395,18.312,18.312,0,0,1,3.079-.268,8.889,8.889,0,0,0,1.08.054q-1.46-4.074-2.322-4.879c-.9-.215-1.351-.678-1.351-1.394A5.769,5.769,0,0,1,277.993,550.264ZM280.748,559q1.4-.161,3.35-.375,1.188-.107,2.215-.161.053-.643.432-2.735a13.839,13.839,0,0,0,.325-2.627q0-.428-1.081-.428a37.507,37.507,0,0,0-5.024.321q-1.189.055-1.189.751A29.882,29.882,0,0,1,280.748,559Z" transform="translate(-162.633 -547.029)" fill="#6d6c6c"/>
      <path id="Path_179" data-name="Path 179" d="M326.731,565.137l-.458.917a7.046,7.046,0,0,1-2.039,2.548,4.522,4.522,0,0,1-2.956.918,1.671,1.671,0,0,1-1.631-1.683,3.116,3.116,0,0,1,2.089-2.7A3.272,3.272,0,0,0,324.795,563a15.363,15.363,0,0,0,1.07-6.218,6.94,6.94,0,0,0-.255-2.395,9.106,9.106,0,0,0-.662-2.446,2.459,2.459,0,0,1-.866-1.427,2.991,2.991,0,0,1,.2-1.121,1.9,1.9,0,0,1,1.121-.765,2.007,2.007,0,0,1,1.886,1.071,2.554,2.554,0,0,1,.764.254,2.665,2.665,0,0,0,1.326.306,23.238,23.238,0,0,0,5.912-.866,12.474,12.474,0,0,0,2.242-.714,2.931,2.931,0,0,0,1.223-1.07q.815-1.071,1.376-1.071a1.878,1.878,0,0,1,1.274.561,3.247,3.247,0,0,1,.458,1.325,3.033,3.033,0,0,1-.356,1.631,2.565,2.565,0,0,1-1.529.816q-1.529.408-3.568.815-2.14.512-3.924.765a18.42,18.42,0,0,1-4.077.254h-.357q.1,1.021.1,1.937a4.95,4.95,0,0,1,.918-.306,29.155,29.155,0,0,1,4.434-.663q2.242-.2,4.74-.2a21.9,21.9,0,0,1,2.7-.1q1.529.256,1.579,1.58a1.268,1.268,0,0,1-.56.866,2.46,2.46,0,0,0-.561.918,7.2,7.2,0,0,1-.662,1.681,1.015,1.015,0,0,1,.662.969q0,.816-1.274.765-3.007.052-5.708.306a3.923,3.923,0,0,1-.255.662,4.782,4.782,0,0,0,1.937.459,5.452,5.452,0,0,0,.764-.051,2.8,2.8,0,0,1,1.427.458q1.223.764,1.223,1.173a1.114,1.114,0,0,1-.2.713c-.1.136-.391.2-.867.2a3.49,3.49,0,0,0-1.681.561,3.985,3.985,0,0,0-.714.561q1.579-.154,3.007-.2a15.533,15.533,0,0,1,2.906.051q1.478.1,1.477,1.172,0,.715-1.172.663-2.549.052-4.892.2a3.166,3.166,0,0,1,.1,1.121v.255c.34-.033.646-.068.918-.1a13.791,13.791,0,0,1,2.753.05q1.426.153,1.427,1.122,0,.815-1.121.663-2.191.05-4.077.254-.052.714-.051,1.376c.373-.034.73-.068,1.07-.1a7.9,7.9,0,0,1,2.753.051q1.426.1,1.427,1.172,0,.714-1.121.662-2.191.051-4.179.2a6.013,6.013,0,0,1-.153,1.529q2.243-.2,4.486-.2,2.905,0,2.905,1.071t-1.223,1.07q-1.733.052-4.128,0-1.987.154-4.791.358-3.364.457-5.1.764h-.2a3.874,3.874,0,0,1-.2.51q-.2.612-.408.662a2.7,2.7,0,0,1-1.477-.458,3.6,3.6,0,0,1-.765-1.631,1.4,1.4,0,0,1,.153-.714q.153-.306.306-.662a12.142,12.142,0,0,0,.714-3.16,26.76,26.76,0,0,0,.2-4.892,5.248,5.248,0,0,0-.815-2.855A.046.046,0,0,1,326.731,565.137Zm5.046-4.434q-1.785.2-3.057.458a2.033,2.033,0,0,1-.918,0,16.2,16.2,0,0,1-.356,1.835,7.357,7.357,0,0,0,3.007-.561q1.324-.713,1.325-1.682Zm-3.669-3.925q0,1.224-.051,2.192a2.925,2.925,0,0,1,.867-.2q1.834-.2,4.434-.358,2.038-.151,3.823-.254.66-.051,1.222-.051.255-1.376.357-1.937,0-.867-2.294-.867a30.9,30.9,0,0,0-4.434.408,14.537,14.537,0,0,0-3.312.713Q328.31,556.677,328.108,556.778Zm1.682,8.869a.954.954,0,0,1,.306-.051q1.784-.153,4.027-.306c.033-.068.067-.135.1-.2a3.559,3.559,0,0,0,.867-1.834q0-.2-.306-.255a4.862,4.862,0,0,1-.765-.255,5.5,5.5,0,0,0-.713-.153,6.6,6.6,0,0,1-.612.713,5.613,5.613,0,0,1-3.058,1.784.3.3,0,0,1,.1.2A1.534,1.534,0,0,1,329.79,565.647Zm5.3,8.358h-.153a39.368,39.368,0,0,0-4.995.867c-.1.034-.171.034-.2,0-.034.34-.068.646-.1.917v.1a15.759,15.759,0,0,1,1.733-.1,19.456,19.456,0,0,0,3.924-.306A5.013,5.013,0,0,1,335.09,574.005Zm-.306-6.727q-2.905.256-4.791.561c.033.442.051.85.051,1.223h.1q1.886-.2,4.486-.408h.153a6.832,6.832,0,0,0-.051-.917A1.53,1.53,0,0,1,334.784,567.278Zm.1,3.364a46.11,46.11,0,0,0-4.841.713q-.052.715-.051,1.274a.144.144,0,0,1,.1-.051q1.885-.307,4.536-.561a1.686,1.686,0,0,0,.407-.05Q334.988,571.253,334.886,570.642Zm21.2-16.769q3.211,0,3.924.051h1.376a1.6,1.6,0,0,1,.969.509c.441.612.578,1.071.407,1.376a3.481,3.481,0,0,1-.356.714,5.968,5.968,0,0,0-.358,1.325q-.1,1.631-.2,5.5-.1,4.435-.1,5.708a2.777,2.777,0,0,0,.1.765,3.557,3.557,0,0,1,.153.764,1.743,1.743,0,0,1-1.834,1.683,1.368,1.368,0,0,1-.612-.153,4.732,4.732,0,0,0-.765-.2,15.215,15.215,0,0,0-2.6-.2,39.372,39.372,0,0,0-6.473.356q-.611.206-1.173.459a2.433,2.433,0,0,1-.866.153,1.474,1.474,0,0,1-.968-.764,2.242,2.242,0,0,1-.306-1.07,1.718,1.718,0,0,1,.255-.816,2.813,2.813,0,0,0,.407-1.173,33.942,33.942,0,0,0,.153-4.077A28.229,28.229,0,0,0,346.66,558a5.967,5.967,0,0,1-.561-2.242,2.879,2.879,0,0,1,.51-1.223q.559-.662.917-.663a4.571,4.571,0,0,0,.867.2,5.113,5.113,0,0,0,1.478.153q1.224-.1,2.446-.2a8.466,8.466,0,0,0,.153-1.886,3.287,3.287,0,0,0-.255-1.274,1.642,1.642,0,0,1-.1-.407q-.867.1-1.681.2a29.3,29.3,0,0,0-3.109.306,8.529,8.529,0,0,0-1.784.611,2.424,2.424,0,0,1-.968.358,1.242,1.242,0,0,1-1.122-1.427q0-.458.918-1.478a3.933,3.933,0,0,1,1.579-.561q1.682-.05,4.129-.153,2.344-.1,5.1-.2a25.321,25.321,0,0,1,3.211,0,46.1,46.1,0,0,0,5.046.1,15.5,15.5,0,0,0,3.873-.459q.713,0,.714.459a6.564,6.564,0,0,1-1.478,2.8,2.336,2.336,0,0,1-1.733,1.121,4.1,4.1,0,0,1-1.835-.611,4.973,4.973,0,0,0-1.936-.459,7.249,7.249,0,0,0-2.4-.407,15.485,15.485,0,0,0-3.159-.408q-.2.868-.407,1.63a13.056,13.056,0,0,0-.153,1.785v.2Zm-5.249,19.878a2.417,2.417,0,0,1,1.12.663,2.626,2.626,0,0,1,.459,1.427q-.051.611-.969,1.07a10.442,10.442,0,0,1-5.2,1.834q-.916,0-.968-.763,0-.816,2.753-2.5a12.82,12.82,0,0,0,1.58-1.427A2.942,2.942,0,0,1,350.84,573.751Zm-1.02-14.68a.876.876,0,0,1,.255-.05q1.529-.05,3.721-.1,1.784-.051,3.312-.1t2.294,0q0-1.019.051-2.039,0-.662-.612-.662a14.17,14.17,0,0,0-2.192-.153q-4.027.1-6.371.357a.892.892,0,0,0-.612,1.07A8.545,8.545,0,0,1,349.82,559.071Zm.153,5.251a.391.391,0,0,1,.152-.052q1.529-.049,3.721-.1,1.784-.051,3.313-.051a20.774,20.774,0,0,1,2.089,0q.051-1.733.1-3.211-2.8.051-5.2.254a41.514,41.514,0,0,0-4.231.509v.867Q349.971,563.4,349.973,564.322Zm.306,5.2q2.19-.154,4.027-.153h3.516q1.273,0,1.326-.459.05-1.478.051-2.7-2.651.052-4.995.2-2.6.2-4.23.458-.051.918-.051,1.784C349.921,569.233,350.04,569.521,350.278,569.521Zm8.766,4.025q1.071,0,1.478,1.326a9.289,9.289,0,0,0,2.4,1.682,2.4,2.4,0,0,1,1.428,1.223q0,.765-1.682.764a9,9,0,0,1-3.466-.56q-1.785-.612-1.784-1.937A2.363,2.363,0,0,1,359.044,573.546Z" transform="translate(-181.172 -545.337)" fill="#6d6c6c"/>
    </g>
  </g>
</svg>
