<?xml version="1.0" encoding="iso-8859-1"?>
<!-- Generator: Adobe Illustrator 16.0.0, SVG Export Plug-In . SVG Version: 6.00 Build 0)  -->
<!DOCTYPE svg PUBLIC "-//W3C//DTD SVG 1.1//EN" "http://www.w3.org/Graphics/SVG/1.1/DTD/svg11.dtd">
<svg version="1.1" id="&#x5716;&#x5C64;_1" xmlns="http://www.w3.org/2000/svg" xmlns:xlink="http://www.w3.org/1999/xlink" x="0px"
	 y="0px" width="48.25px" height="50.5px" viewBox="0 0 48.25 50.5" style="enable-background:new 0 0 48.25 50.5;"
	 xml:space="preserve">
<g>
	<circle style="fill:#1A2F70;" cx="24.4" cy="25.294" r="21.125"/>
	<path style="fill:#FFFFFF;" d="M19.169,26.223l8.996,7.095c0.208,0.163,0.468,0.254,0.732,0.254c0.365,0,0.704-0.164,0.93-0.451
		c0.403-0.512,0.315-1.257-0.196-1.66l-7.818-6.167l7.817-6.164c0.513-0.404,0.601-1.15,0.197-1.663
		c-0.226-0.286-0.565-0.45-0.929-0.45c-0.265,0-0.524,0.091-0.732,0.255l-8.996,7.094c-0.286,0.225-0.451,0.563-0.451,0.929
		S18.883,25.997,19.169,26.223z"/>
</g>
</svg>
