<?xml version="1.0" encoding="iso-8859-1"?>
<!-- Generator: Adobe Illustrator 16.0.0, SVG Export Plug-In . SVG Version: 6.00 Build 0)  -->
<!DOCTYPE svg PUBLIC "-//W3C//DTD SVG 1.1//EN" "http://www.w3.org/Graphics/SVG/1.1/DTD/svg11.dtd">
<svg version="1.1" id="&#x5716;&#x5C64;_1" xmlns="http://www.w3.org/2000/svg" xmlns:xlink="http://www.w3.org/1999/xlink" x="0px"
	 y="0px" width="23.75px" height="35.125px" viewBox="0 0 23.75 35.125" style="enable-background:new 0 0 23.75 35.125;"
	 xml:space="preserve">
<rect style="fill:#F7CE04;" width="23.75" height="35.125"/>
<path style="fill:#333128;" d="M11.142,21.687l-5.594-7.094c-0.129-0.164-0.2-0.369-0.2-0.577c0-0.288,0.129-0.556,0.355-0.733
	c0.403-0.318,0.991-0.249,1.31,0.154l4.863,6.165l4.861-6.164c0.318-0.404,0.906-0.474,1.311-0.155
	c0.226,0.178,0.355,0.445,0.355,0.732c0,0.209-0.072,0.414-0.201,0.577l-5.595,7.094c-0.177,0.227-0.444,0.356-0.731,0.356
	C11.587,22.042,11.32,21.912,11.142,21.687z"/>
</svg>
