<?xml version="1.0" encoding="utf-8"?>
<!-- Generator: Adobe Illustrator 15.0.0, SVG Export Plug-In . SVG Version: 6.00 Build 0)  -->
<!DOCTYPE svg PUBLIC "-//W3C//DTD SVG 1.1//EN" "http://www.w3.org/Graphics/SVG/1.1/DTD/svg11.dtd">
<svg version="1.1" id="圖層_1" xmlns="http://www.w3.org/2000/svg" xmlns:xlink="http://www.w3.org/1999/xlink" x="0px" y="0px"
	 width="476.666px" height="71px" viewBox="0 0 476.666 71" enable-background="new 0 0 476.666 71" xml:space="preserve">
<g>
	
		<radialGradient id="SVGID_1_" cx="-256.4441" cy="875.0586" r="40.1832" gradientTransform="matrix(1 0 0 1 297.5996 -836.8398)" gradientUnits="userSpaceOnUse">
		<stop  offset="0" style="stop-color:#FFFFFF"/>
		<stop  offset="0.37" style="stop-color:#FAF49A"/>
		<stop  offset="0.67" style="stop-color:#EDAF32"/>
		<stop  offset="1" style="stop-color:#966124"/>
	</radialGradient>
	<path fill="url(#SVGID_1_)" d="M13.066,36.75c-0.358-15.782,15.295-25.678,29.807-25.661l21.432,0.02v6.704l-21.311-0.089
		C29.517,17.69,19.754,26.16,19.686,36.818c0.655,10.722,8.365,17.488,23.358,18.033l14.11-0.07l-0.043-16.795l7.321,0.035
		l-0.032,23.313l-21.674-0.039C19.854,59.623,13.626,48.863,13.066,36.75z"/>
	
		<radialGradient id="SVGID_2_" cx="-257.0984" cy="873.9629" r="25.6387" gradientTransform="matrix(1 0 0 1 297.5996 -836.8398)" gradientUnits="userSpaceOnUse">
		<stop  offset="0" style="stop-color:#FFFFFF"/>
		<stop  offset="0.37" style="stop-color:#FAF49A"/>
		<stop  offset="0.67" style="stop-color:#EDAF32"/>
		<stop  offset="1" style="stop-color:#966124"/>
	</radialGradient>
	<path fill="url(#SVGID_2_)" d="M42.797,52.373C31.437,51.93,23.41,45.16,23.236,36.732c-0.179-8.801,8.835-17.442,19.918-17.513
		l3.699,0.003l-3.777,5.447c-9.992,0.178-13.614,6.642-13.499,12.093c0.403,5.545,4.414,9.242,13.378,10.278l5.696-0.06l0.026-8.887
		h6.09l0.004,14.221L42.797,52.373z"/>
	
		<radialGradient id="SVGID_3_" cx="-243.3772" cy="865.7002" r="20.0279" gradientTransform="matrix(1 0 0 1 297.5996 -836.8398)" gradientUnits="userSpaceOnUse">
		<stop  offset="0" style="stop-color:#FFFFFF"/>
		<stop  offset="0.37" style="stop-color:#FAF49A"/>
		<stop  offset="0.67" style="stop-color:#EDAF32"/>
		<stop  offset="1" style="stop-color:#966124"/>
	</radialGradient>
	<path fill="url(#SVGID_3_)" d="M43.069,30.645l-2.854,4.421l18.159-0.022c4.816,0.097,7.848-1.818,8.119-6.939
		c-0.623-5.075-4.6-6.848-8.172-6.855l-7.299-0.016L51.009,31.5h-2.35l0.004-12.261l9.57-0.007
		c5.645,0.339,9.878,3.901,10.094,8.755c-0.08,6.643-4.48,9.416-9.951,9.138l-21.394,0.007l6.06-9.702L43.069,30.645L43.069,30.645z
		 M42.697,32.265l-1.393,2.206l17.012-0.021c2.195,0.02,6.665-1.357,6.642-6.385c-0.023-4.473-4.631-5.711-6.667-5.912l-5.928-0.03
		l0.023,9.34h2.384l-0.077-7.398h3.632c3.586,0.35,4.565,2.108,4.712,3.929c-0.01,2.665-1.991,4.296-4.717,4.274L42.697,32.265z"/>
</g>
<path d="M92.063,40.512c1.393-0.898,2.786-2.229,3.529-3.221l2.879,1.734c-1.27,1.548-3.375,3.344-5.17,4.272
	c-0.434-0.465-1.176-1.177-1.827-1.733H84.54v1.424h-2.663v-8.112c-0.186,0.217-0.372,0.434-0.557,0.65
	c-0.124-0.217-0.31-0.558-0.558-0.929c-0.278,3.034-0.805,5.975-1.733,8.359c-0.588-0.464-1.951-1.207-2.725-1.486
	c1.734-4.489,1.857-10.99,1.857-15.511v-9.35c3.901-0.341,8.297-1.022,10.898-1.827l2.663,2.446
	c-2.972,0.867-6.935,1.455-10.557,1.795v0.929h10.402v7.152h-8.111l2.043,0.558c-0.186,0.619-0.403,1.207-0.62,1.827h1.61
	c-0.217-0.588-0.465-1.208-0.712-1.734l2.415-0.619c0.402,0.712,0.805,1.61,1.053,2.353h2.569v2.291h-2.879v1.083h2.569v2.012
	h-2.569v1.083h2.601v2.105h-2.601v1.114h3.127V40.512z M81.165,27.105c-0.031,1.332-0.062,2.787-0.155,4.304
	c0.836-1.27,1.486-2.787,1.919-4.304H81.165z M81.165,22.678v1.703h7.121v-1.703H81.165z M86.552,31.781H84.54v1.083h2.012V31.781z
	 M86.552,34.876H84.54v1.115h2.012V34.876z M84.54,39.18h2.012v-1.114H84.54V39.18z M96.707,20.666
	c0.093-0.65,0.155-1.332,0.217-1.981h-4.583v-3.096h12.849v3.096h-4.613c-0.186,0.681-0.371,1.362-0.557,1.981h4.396v16.223H92.992
	V20.666H96.707z M101.32,23.421h-5.325v1.857h5.325V23.421z M101.32,27.818h-5.325v1.919h5.325V27.818z M101.32,32.307h-5.325v1.857
	h5.325V32.307z M101.939,37.354c1.3,1.114,2.941,2.755,3.746,3.87l-2.786,1.857c-0.712-1.146-2.291-2.879-3.591-4.118
	L101.939,37.354z"/>
<path d="M117.26,22.338c-0.681,1.393-1.486,2.848-2.384,4.303h0.031v16.625h-3.437V31.471c-0.743,0.959-1.517,1.827-2.229,2.539
	c-0.372-0.774-1.424-2.632-2.012-3.437c2.477-2.353,5.108-5.914,6.749-9.412L117.26,22.338z M116.734,15.712
	c-2.012,2.941-5.016,6.377-7.585,8.638c-0.372-0.836-1.177-2.26-1.703-3.034c2.136-1.795,4.737-4.768,6.006-6.935L116.734,15.712z
	 M115.124,40.542c1.083-1.424,1.951-3.746,2.415-5.728l2.786,1.084c-0.526,2.043-1.331,4.582-2.446,6.223L115.124,40.542z
	 M136.518,33.576h-9.381c0.65,1.083,1.362,2.415,1.765,3.281l-2.848,1.022c-0.372-0.96-1.208-2.57-1.858-3.777l1.579-0.526h-9.226
	v-2.941h19.969V33.576z M124.32,21.038c0.062-0.496,0.124-1.022,0.186-1.579h-7.554v-2.91h7.802
	c0.062-0.836,0.093-1.579,0.124-2.291l3.901,0.124l-0.31,2.167h7.926v2.91h-8.328c-0.093,0.557-0.186,1.083-0.248,1.579h7.647v8.204
	h-17.399v-8.204H124.32z M128.22,40.108c0.867,0,1.053-0.34,1.146-2.569c0.65,0.434,1.951,0.897,2.817,1.083
	c-0.34,3.375-1.208,4.211-3.591,4.211h-3.839c-3.188,0-3.963-0.866-3.963-3.561v-3.777h3.22v3.747c0,0.773,0.186,0.866,1.208,0.866
	H128.22z M123.05,23.638h-2.105v3.003h2.105V23.638z M127.725,23.638h-2.167v3.003h2.167V23.638z M130.202,26.641h2.26v-3.003h-2.26
	V26.641z M133.514,34.629c1.362,1.826,2.787,4.21,3.282,5.852l-2.879,1.3c-0.403-1.609-1.734-4.117-3.096-5.944L133.514,34.629z"/>
<path d="M164.285,35.589c-0.712,1.424-1.455,2.91-2.105,4.056h4.923v2.941h-17.585v-2.941h4.675
	c-0.217-1.115-0.805-2.663-1.486-3.87L155.585,35h-3.653v-7.307c-0.31,0.248-0.619,0.496-0.96,0.743
	c-0.464-0.712-1.455-1.889-2.136-2.446c1.083-0.712,2.105-1.734,2.972-2.941c-0.712-0.588-1.641-1.238-2.477-1.703v1.021h-10.743
	v-2.91h4.922c-0.526-1.176-1.362-2.725-2.074-3.901l2.508-1.517c0.867,1.269,1.889,2.972,2.384,4.086l-1.888,1.332h4.892v1.703
	l1.827-2.198c0.712,0.372,1.517,0.836,2.229,1.301c0.279-0.65,0.557-1.332,0.774-2.043h-3.715v-2.879h4.892l0.588-0.124l2.136,0.681
	c-0.495,2.601-1.3,4.923-2.353,6.935h5.264c-1.239-2.291-2.136-4.954-2.787-7.833l3.034-0.557c0.155,0.681,0.34,1.362,0.557,2.013
	c0.619-0.558,1.208-1.146,1.641-1.61l2.167,2.013c-0.898,0.774-1.951,1.579-2.817,2.198c0.155,0.402,0.341,0.805,0.557,1.176
	c0.743-0.557,1.548-1.176,2.043-1.672l2.074,2.013c-0.897,0.681-1.857,1.3-2.755,1.827c0.929,1.238,1.981,2.229,3.22,2.972
	c-0.805,0.619-1.92,1.857-2.415,2.693c-0.341-0.248-0.681-0.496-0.991-0.743V35h-2.849L164.285,35.589z M148.495,41.533h-5.976v1.3
	h-2.786v-10.65h8.762V41.533z M148.341,26.548h-8.545v-2.787h8.545V26.548z M139.796,27.911h8.545v2.786h-8.545V27.911z
	 M142.52,35.124v3.468h3.127v-3.468H142.52z M154.532,24.722c-0.619,0.898-1.27,1.703-2.012,2.415h11.795
	c-0.867-0.743-1.579-1.61-2.26-2.601v1.207h-7.523V24.722z M155.028,32.245h6.223v-2.322h-6.223V32.245z M155.833,35
	c0.774,1.269,1.486,2.972,1.672,4.056l-2.043,0.588h3.468c0.557-1.332,1.3-3.22,1.672-4.644H155.833z"/>
<path d="M191.309,27.725c2.013,1.579,4.675,2.849,7.585,3.53c-0.805,0.712-1.827,2.105-2.353,3.034
	c-1.3-0.403-2.508-0.898-3.684-1.517c-0.341,5.448-0.774,7.926-1.641,8.886c-0.681,0.773-1.424,1.053-2.446,1.176
	c-0.898,0.124-2.384,0.155-4.025,0.093c-0.062-1.083-0.464-2.538-1.053-3.467c1.362,0.123,2.663,0.154,3.251,0.123
	c0.526,0.031,0.774-0.062,1.115-0.34c0.433-0.465,0.743-1.92,1.021-5.325h-6.099c-0.774,4.272-2.848,7.399-9.474,9.195
	c-0.341-0.929-1.3-2.415-2.074-3.158c5.356-1.208,6.997-3.189,7.678-6.037h-3.994v-1.332c-1.083,0.681-2.198,1.27-3.468,1.827
	c-0.402-0.959-1.455-2.415-2.26-3.096c2.477-0.991,4.52-2.198,6.254-3.592h-5.387v-3.313h8.576c0.495-0.65,0.897-1.27,1.3-1.951
	h-7.988v-3.25h4.396c-0.526-0.991-1.27-2.167-1.981-3.096l2.941-1.424c0.96,1.146,2.043,2.725,2.477,3.808l-1.394,0.712h3.065
	c0.588-1.61,0.959-3.313,1.146-5.016l3.901,0.372c-0.279,1.579-0.65,3.127-1.115,4.644h2.663c0.836-1.3,1.827-3.034,2.384-4.304
	l3.437,1.053c-0.743,1.146-1.517,2.26-2.229,3.251h3.932v3.25h-11.455c-0.341,0.681-0.681,1.3-1.053,1.951h14.458v3.313H191.309z
	 M180.906,27.725c-0.867,1.022-1.827,1.981-2.941,2.879h11.61c-1.022-0.867-1.981-1.827-2.787-2.879H180.906z"/>
<path d="M208.024,31.75v7.369c0,1.796-0.341,2.693-1.394,3.22c-1.021,0.588-2.508,0.682-4.675,0.682
	c-0.124-0.96-0.588-2.415-1.053-3.344c1.238,0.03,2.508,0.03,2.91,0.03c0.434,0,0.588-0.154,0.588-0.588v-6.409l-3.127,0.805
	l-0.96-3.529c1.177-0.248,2.57-0.557,4.087-0.898v-5.449h-3.684v-3.406h3.684V14.35h3.623v5.882h3.25v3.406h-3.25v4.551l2.26-0.558
	l0.464,3.375L208.024,31.75z M227.59,28.592c-1.114,3.777-2.91,6.718-5.294,8.947c2.074,1.053,4.489,1.857,7.152,2.354
	c-0.774,0.836-1.796,2.384-2.322,3.405c-3.065-0.743-5.728-1.857-7.988-3.344c-2.477,1.486-5.294,2.569-8.421,3.313
	c-0.372-1.021-1.177-2.538-1.796-3.374c2.632-0.465,5.047-1.271,7.152-2.354c-1.703-1.703-3.127-3.684-4.272-5.975l1.146-0.403
	h-1.795v-3.437h13.437l0.65-0.155L227.59,28.592z M212.141,27.322c-0.434-0.681-1.765-2.136-2.446-2.631
	c3.653-1.672,4.118-3.901,4.118-6.038v-3.313h10.929v6.749c0,0.898,0.031,1.27,0.495,1.27h1.672c0.526,0,1.3-0.093,1.734-0.217
	c0.062,0.929,0.155,2.198,0.279,3.065c-0.464,0.186-1.239,0.216-1.951,0.216h-2.074c-3.034,0-3.684-1.3-3.684-4.396v-3.282
	l-3.994,0.031C217.219,21.874,216.321,25.31,212.141,27.322z M215.361,31.161c0.929,1.641,2.229,3.096,3.808,4.334
	c1.455-1.176,2.663-2.663,3.591-4.334H215.361z"/>
<path d="M251.115,19.861c1.672,1.641,4.954,2.415,9.134,2.632c-0.743,0.712-1.61,2.043-2.044,2.941
	c-3.467-0.433-6.161-1.424-8.111-3.127c-1.177,1.362-3.746,2.57-8.947,3.158c-0.248-0.588-0.743-1.362-1.238-2.013h-8.205v-2.817
	h9.35v1.889c5.913-0.619,6.688-2.012,6.688-3.158v-0.464h-1.857c-0.65,1.021-1.394,1.95-2.168,2.663
	c-0.588-0.558-1.95-1.456-2.725-1.889c1.642-1.362,2.911-3.406,3.623-5.511l3.22,0.712c-0.155,0.464-0.341,0.929-0.526,1.362h8.793
	l0.557-0.155l2.508,0.774c-0.805,1.703-1.857,3.653-2.848,4.892l-2.849-1.053c0.341-0.495,0.743-1.146,1.083-1.795h-3.437v0.619
	V19.861z M251.951,38.065c2.849,1.053,5.883,2.291,7.709,3.188l-3.313,1.981c-1.765-1.021-4.984-2.538-8.05-3.653l1.889-1.517h-8.73
	l2.693,1.238c-2.538,1.61-6.532,3.158-9.659,4.025c-0.619-0.713-1.92-2.075-2.725-2.694c2.972-0.557,6.285-1.485,8.452-2.569h-4.458
	v-12.57h20.712v12.57H251.951z M240.342,18.561h-7.926v-2.693h7.926V18.561z M239.32,29.025h13.406v-1.331H239.32V29.025z
	 M239.32,32.431h13.406V31.1H239.32V32.431z M239.32,35.898h13.406v-1.394H239.32V35.898z"/>
<path d="M277.799,40.512c1.394-0.898,2.787-2.229,3.53-3.221l2.879,1.734c-1.27,1.548-3.375,3.344-5.171,4.272
	c-0.433-0.465-1.176-1.177-1.826-1.733h-6.935v1.424h-2.663v-8.112c-0.186,0.217-0.371,0.434-0.558,0.65
	c-0.123-0.217-0.31-0.558-0.557-0.929c-0.279,3.034-0.806,5.975-1.734,8.359c-0.588-0.464-1.95-1.207-2.725-1.486
	c1.734-4.489,1.858-10.99,1.858-15.511v-9.35c3.9-0.341,8.297-1.022,10.897-1.827l2.663,2.446
	c-2.973,0.867-6.936,1.455-10.558,1.795v0.929h10.402v7.152h-8.111l2.043,0.558c-0.186,0.619-0.402,1.207-0.619,1.827h1.61
	c-0.217-0.588-0.465-1.208-0.712-1.734l2.414-0.619c0.403,0.712,0.806,1.61,1.053,2.353h2.57v2.291h-2.88v1.083h2.57v2.012h-2.57
	v1.083h2.601v2.105h-2.601v1.114h3.127V40.512z M266.902,27.105c-0.031,1.332-0.063,2.787-0.155,4.304
	c0.836-1.27,1.486-2.787,1.92-4.304H266.902z M266.902,22.678v1.703h7.121v-1.703H266.902z M272.288,31.781h-2.012v1.083h2.012
	V31.781z M272.288,34.876h-2.012v1.115h2.012V34.876z M270.277,39.18h2.012v-1.114h-2.012V39.18z M282.444,20.666
	c0.093-0.65,0.154-1.332,0.217-1.981h-4.582v-3.096h12.848v3.096h-4.612c-0.186,0.681-0.372,1.362-0.558,1.981h4.396v16.223h-11.425
	V20.666H282.444z M287.057,23.421h-5.325v1.857h5.325V23.421z M287.057,27.818h-5.325v1.919h5.325V27.818z M287.057,32.307h-5.325
	v1.857h5.325V32.307z M287.676,37.354c1.3,1.114,2.94,2.755,3.746,3.87l-2.787,1.857c-0.712-1.146-2.291-2.879-3.591-4.118
	L287.676,37.354z"/>
<path d="M298.508,27.043v16.223h-3.653v-27.74h11.826v11.517H298.508z M298.508,18.344v1.672h4.736v-1.672H298.508z M303.244,24.257
	v-1.765h-4.736v1.765H303.244z M305.133,38.901v1.733h-3.437V29.18h11.981v9.722H305.133z M305.133,32.214v3.653h5.108v-3.653
	H305.133z M320.953,38.87c0,2.044-0.433,3.097-1.733,3.685c-1.27,0.619-3.22,0.712-6.068,0.712
	c-0.124-1.053-0.712-2.786-1.238-3.777c1.796,0.124,3.901,0.093,4.489,0.063c0.588,0,0.805-0.186,0.805-0.743V27.075h-8.39V15.526
	h12.136V38.87z M312.316,18.313v1.703h4.892v-1.703H312.316z M317.207,24.288v-1.795h-4.892v1.795H317.207z"/>
<path d="M347.072,31.045c-0.777,3.087-2.188,5.444-4.034,7.292c1.385,0.778,2.989,1.386,4.739,1.799
	c-0.632,0.607-1.458,1.75-1.847,2.504c-2.018-0.56-3.744-1.386-5.227-2.431c-1.556,0.996-3.33,1.75-5.299,2.333
	c-0.268-0.729-0.924-1.799-1.435-2.406c-0.072,0.851-0.315,1.435-0.899,1.799c-0.681,0.462-1.652,0.534-3.063,0.534
	c-0.072-0.729-0.389-1.969-0.729-2.697c0.754,0.023,1.483,0.023,1.751,0.023c0.267,0,0.364-0.097,0.364-0.389v-4.837
	c-0.656,0.413-1.264,0.827-1.872,1.191l-0.704-1.75c-0.171,3.039-0.584,6.295-1.508,8.677c-0.51-0.438-1.701-1.069-2.309-1.313
	c1.264-3.33,1.337-8.191,1.337-11.716v-8.823h7.656v7.268c2.625-1.313,2.941-3.063,2.941-4.643V20.86h8.167v5.324
	c0,0.705,0.049,0.972,0.341,0.972h0.947c0.316,0,0.876-0.073,1.191-0.17c0.073,0.705,0.122,1.653,0.219,2.31
	c-0.364,0.121-0.899,0.146-1.386,0.146h-1.239c-2.31,0-2.771-0.972-2.771-3.306v-2.601h-2.844v0.024
	c0,2.309-0.705,4.958-3.889,6.587c-0.292-0.462-1.143-1.337-1.678-1.799v11.108c0,0.194,0,0.389-0.024,0.56
	c1.653-0.39,3.185-0.973,4.521-1.727c-1.264-1.361-2.31-2.941-3.111-4.74l1.191-0.365h-1.75v-2.698h9.893l0.535-0.122
	L347.072,31.045z M328.939,29.635c0,0.997-0.024,2.139-0.073,3.306c0.729-0.243,1.58-0.559,2.528-0.924v-2.649l-0.973,0.778
	c-0.315-0.462-0.875-1.167-1.482-1.848V29.635z M328.939,23.437v3.014l0.681-0.486c0.583,0.559,1.239,1.216,1.774,1.823v-4.351
	H328.939z M338.078,33.184c0.632,1.289,1.556,2.455,2.649,3.451c1.069-0.947,1.969-2.114,2.625-3.451H338.078z"/>
<path d="M357.16,20.933c-0.656,1.677-1.434,3.403-2.333,5.056V42.64h-2.844V30.389c-0.511,0.656-1.021,1.239-1.531,1.798
	c-0.268-0.729-1.046-2.309-1.556-3.014c2.188-2.188,4.326-5.64,5.542-9.115L357.16,20.933z M367.856,20.69
	c0.681,2.917,2.285,5.81,4.399,7.389c-0.534,0.681-1.385,2.139-1.774,3.087c-0.34-0.316-0.656-0.632-0.947-0.973
	c-0.024,0.268-0.024,0.608-0.024,0.802c-0.292,6.83-0.56,9.479-1.264,10.355c-0.486,0.68-1.021,0.898-1.751,1.021
	c-0.632,0.121-1.628,0.146-2.722,0.097c-0.073-0.802-0.341-1.92-0.754-2.625c0.826,0.098,1.58,0.098,1.993,0.098
	c0.341,0,0.535-0.073,0.754-0.341c0.389-0.51,0.632-2.357,0.851-7.097h-3.063c-0.633,4.885-2.31,8.07-5.858,10.063
	c-0.34-0.559-1.337-1.653-1.92-2.139c3.087-1.459,4.496-4.084,4.958-7.924h-2.236V30c-0.315,0.365-0.656,0.705-0.996,1.021
	c-0.341-0.656-1.264-2.042-1.774-2.674c1.969-1.677,3.5-4.351,4.326-7.268l2.845,0.729c-0.899,3.014-2.383,5.907-4.254,8.021h10.573
	c-1.507-1.823-2.747-4.132-3.549-6.369h-2.163V20.69H367.856z"/>
<path d="M382.806,25.625c-0.267,0.656-0.607,1.288-0.972,1.92h11.303v12.008c0,1.434-0.268,2.212-1.264,2.649
	c-0.948,0.462-2.334,0.485-4.303,0.485c-0.122-0.802-0.511-2.017-0.875-2.795c1.239,0.073,2.649,0.073,3.063,0.073
	c0.413-0.024,0.56-0.146,0.56-0.486v-1.459h-9.14c-0.413,1.823-1.191,3.598-2.698,4.838c-0.389-0.608-1.482-1.823-2.091-2.212
	c2.091-1.823,2.261-4.425,2.261-6.685v-1.969c-0.924,0.972-1.896,1.872-3.014,2.649c-0.438-0.656-1.337-1.701-1.896-2.236
	c2.455-1.629,4.399-4.084,5.834-6.782h-5.274v-2.723h6.514c0.39-0.997,0.705-1.969,0.973-2.941l2.99,0.68
	c-0.243,0.754-0.511,1.507-0.778,2.261h11.862v2.723H382.806z M390.318,35.615v-1.58h-8.727c0,0.51-0.024,1.021-0.049,1.58H390.318z
	 M390.318,30.097h-8.727v1.531h8.727V30.097z"/>
<path d="M407.189,21.905c-0.632,2.042-1.434,4.497-2.091,6.369c1.459,1.896,1.751,3.622,1.751,5.056
	c0,1.556-0.316,2.601-1.094,3.184c-0.365,0.292-0.827,0.438-1.361,0.535c-0.438,0.072-1.021,0.072-1.58,0.048
	c0-0.704-0.243-1.774-0.632-2.479c0.413,0.024,0.777,0.048,1.045,0.024c0.243,0,0.486-0.048,0.656-0.194
	c0.292-0.219,0.438-0.753,0.438-1.434c0-1.191-0.316-2.747-1.701-4.448c0.462-1.483,0.996-3.452,1.385-5.056h-2.357v19.13h-2.528
	V20.933h5.785l0.39-0.122L407.189,21.905z M420.29,34.399c-1.045,0.826-2.31,1.75-3.403,2.454c1.021,1.386,2.334,2.528,3.938,3.258
	c-0.632,0.56-1.508,1.701-1.921,2.504c-3.621-1.993-5.566-5.737-6.708-10.501h-1.459v6.83l3.379-0.754
	c-0.024,0.827,0.024,2.019,0.121,2.626c-4.739,1.215-5.639,1.58-6.223,1.944c-0.219-0.632-0.826-1.774-1.239-2.261
	c0.511-0.315,1.118-0.972,1.118-2.114V20.958h10.986v11.157h-4.205c0.268,0.948,0.584,1.823,0.973,2.649
	c0.996-0.753,2.066-1.653,2.771-2.406L420.29,34.399z M410.738,23.437v1.896h5.348v-1.896H410.738z M410.738,29.611h5.348v-1.945
	h-5.348V29.611z"/>
<path d="M431.935,21.565c-1.774,3.986-4.618,8.094-7.243,10.646c-0.56-0.632-1.848-1.896-2.577-2.479
	c2.577-2.164,5.129-5.688,6.588-9.213L431.935,21.565z M438.74,32.722c1.97,2.674,4.206,6.125,5.396,8.386l-2.989,1.579
	c-0.316-0.704-0.754-1.507-1.265-2.382c-11.74,0.924-13.393,1.069-14.584,1.507c-0.194-0.607-0.754-2.236-1.191-3.087
	c0.803-0.219,1.459-0.875,2.431-1.944c1.021-1.045,4.06-5.177,5.979-9.212l3.379,1.41c-1.871,3.282-4.205,6.539-6.563,9.164
	l8.921-0.584c-0.778-1.215-1.58-2.479-2.334-3.548L438.74,32.722z M439.202,20.568c1.046,3.403,3.258,6.831,6.247,8.653
	c-0.656,0.632-1.701,2.018-2.188,2.917c-2.771-2.115-4.935-5.372-6.296-8.581h-3.889v-2.99H439.202z"/>
<path d="M467.74,39.018c0,1.653-0.291,2.528-1.337,3.038c-0.996,0.511-2.552,0.584-4.715,0.56c-0.098-0.851-0.535-2.285-0.948-3.136
	c1.361,0.097,2.966,0.073,3.427,0.049c0.438,0,0.608-0.122,0.608-0.535V24.19h-16.967v-2.747h19.932V39.018z M462.345,28.444
	h-14.293v-2.528h14.293V28.444z M452.112,38.458v1.751h-2.82v-9.966h11.789v8.215H452.112z M452.112,32.722v3.257h6.125v-3.257
	H452.112z"/>
<g>
	<path fill="#939393" d="M80.866,54.413V53.48l3.367-0.006v2.949c-0.517,0.412-1.05,0.723-1.599,0.931
		c-0.55,0.207-1.113,0.312-1.692,0.312c-0.78,0-1.49-0.167-2.128-0.502c-0.638-0.334-1.119-0.817-1.445-1.45
		c-0.325-0.632-0.488-1.339-0.488-2.119c0-0.773,0.162-1.496,0.485-2.166c0.323-0.671,0.789-1.169,1.396-1.494
		s1.307-0.487,2.098-0.487c0.575,0,1.094,0.093,1.559,0.279c0.464,0.186,0.829,0.445,1.092,0.777
		c0.264,0.333,0.464,0.767,0.602,1.302l-0.949,0.26c-0.12-0.404-0.268-0.723-0.445-0.954s-0.43-0.416-0.759-0.556
		c-0.329-0.139-0.694-0.209-1.095-0.209c-0.481,0-0.896,0.073-1.247,0.22s-0.633,0.339-0.848,0.577
		c-0.215,0.239-0.382,0.501-0.501,0.786c-0.203,0.492-0.304,1.025-0.304,1.6c0,0.708,0.122,1.301,0.366,1.778
		c0.244,0.477,0.599,0.831,1.065,1.063s0.961,0.347,1.485,0.347c0.456,0,0.9-0.087,1.334-0.263c0.434-0.175,0.762-0.362,0.986-0.562
		v-1.479H80.866z"/>
	<path fill="#939393" d="M89.238,53.659c0-1.319,0.354-2.352,1.063-3.098c0.708-0.747,1.623-1.12,2.744-1.12
		c0.733,0,1.395,0.176,1.984,0.526c0.589,0.351,1.038,0.839,1.347,1.466s0.464,1.339,0.464,2.134c0,0.806-0.163,1.527-0.488,2.163
		c-0.325,0.636-0.786,1.117-1.382,1.444s-1.24,0.491-1.93,0.491c-0.748,0-1.417-0.181-2.006-0.542
		c-0.589-0.361-1.035-0.855-1.339-1.48S89.238,54.357,89.238,53.659z M90.323,53.676c0,0.958,0.257,1.712,0.772,2.264
		c0.515,0.551,1.161,0.826,1.938,0.826c0.792,0,1.443-0.278,1.955-0.835c0.511-0.557,0.767-1.346,0.767-2.369
		c0-0.646-0.109-1.211-0.328-1.694c-0.219-0.482-0.539-0.856-0.959-1.122s-0.894-0.398-1.417-0.398
		c-0.745,0-1.385,0.256-1.922,0.768C90.591,51.626,90.323,52.479,90.323,53.676z"/>
	<path fill="#939393" d="M101.65,53.659c0-1.319,0.354-2.352,1.063-3.098c0.708-0.747,1.623-1.12,2.744-1.12
		c0.733,0,1.395,0.176,1.984,0.526c0.589,0.351,1.038,0.839,1.347,1.466s0.464,1.339,0.464,2.134c0,0.806-0.163,1.527-0.488,2.163
		c-0.325,0.636-0.786,1.117-1.382,1.444s-1.24,0.491-1.93,0.491c-0.748,0-1.417-0.181-2.006-0.542
		c-0.589-0.361-1.035-0.855-1.339-1.48S101.65,54.357,101.65,53.659z M102.734,53.676c0,0.958,0.257,1.712,0.772,2.264
		c0.515,0.551,1.161,0.826,1.938,0.826c0.792,0,1.443-0.278,1.955-0.835c0.511-0.557,0.767-1.346,0.767-2.369
		c0-0.646-0.109-1.211-0.328-1.694c-0.219-0.482-0.539-0.856-0.959-1.122s-0.894-0.398-1.417-0.398
		c-0.745,0-1.385,0.256-1.922,0.768C103.002,51.626,102.734,52.479,102.734,53.676z"/>
	<path fill="#939393" d="M114.381,57.53v-7.948h2.738c0.618,0,1.09,0.038,1.415,0.114c0.456,0.104,0.844,0.295,1.166,0.569
		c0.419,0.354,0.733,0.807,0.941,1.358c0.208,0.551,0.312,1.181,0.312,1.889c0,0.604-0.07,1.139-0.211,1.605
		c-0.141,0.466-0.322,0.852-0.542,1.157c-0.221,0.306-0.462,0.546-0.724,0.721c-0.262,0.176-0.579,0.309-0.949,0.398
		c-0.371,0.091-0.796,0.136-1.277,0.136H114.381z M115.432,56.593h1.697c0.524,0,0.936-0.049,1.233-0.146
		c0.298-0.098,0.536-0.235,0.713-0.412c0.25-0.25,0.444-0.585,0.583-1.006s0.209-0.932,0.209-1.531c0-0.832-0.137-1.471-0.41-1.917
		s-0.604-0.745-0.995-0.897c-0.282-0.108-0.736-0.162-1.361-0.162h-1.67V56.593z"/>
	<path fill="#939393" d="M132.676,54.977l0.992-0.087c0.047,0.398,0.156,0.725,0.328,0.979c0.172,0.255,0.438,0.461,0.8,0.618
		c0.361,0.157,0.768,0.236,1.22,0.236c0.401,0,0.755-0.06,1.063-0.179c0.307-0.12,0.536-0.283,0.686-0.491
		c0.15-0.208,0.225-0.435,0.225-0.68c0-0.25-0.072-0.468-0.217-0.653c-0.145-0.187-0.383-0.343-0.715-0.47
		c-0.213-0.083-0.685-0.212-1.415-0.388c-0.73-0.175-1.242-0.34-1.534-0.496c-0.38-0.198-0.663-0.445-0.849-0.739
		c-0.186-0.295-0.279-0.625-0.279-0.989c0-0.401,0.114-0.776,0.342-1.125c0.228-0.35,0.56-0.614,0.998-0.795
		c0.437-0.181,0.923-0.271,1.458-0.271c0.589,0,1.109,0.095,1.559,0.284c0.45,0.189,0.796,0.469,1.038,0.838
		c0.242,0.368,0.372,0.786,0.39,1.252l-1.008,0.076c-0.054-0.502-0.238-0.882-0.55-1.139s-0.774-0.385-1.385-0.385
		c-0.636,0-1.1,0.116-1.391,0.35s-0.436,0.515-0.436,0.843c0,0.286,0.103,0.521,0.309,0.705c0.203,0.185,0.731,0.373,1.586,0.566
		c0.854,0.193,1.441,0.362,1.759,0.507c0.462,0.214,0.804,0.483,1.024,0.811c0.221,0.327,0.331,0.704,0.331,1.131
		c0,0.423-0.121,0.821-0.363,1.195s-0.59,0.665-1.044,0.873c-0.454,0.207-0.964,0.312-1.531,0.312c-0.719,0-1.322-0.105-1.808-0.314
		c-0.486-0.21-0.867-0.525-1.144-0.946C132.836,55.984,132.69,55.508,132.676,54.977z"/>
	<path fill="#939393" d="M144.236,57.53v-7.948h5.747v0.938h-4.695v2.435h4.396v0.932h-4.396v2.706h4.879v0.938H144.236z"/>
	<path fill="#939393" d="M161.066,54.744l1.052,0.266c-0.221,0.863-0.617,1.522-1.19,1.976c-0.573,0.454-1.273,0.681-2.101,0.681
		c-0.856,0-1.553-0.175-2.09-0.523s-0.945-0.854-1.225-1.516c-0.28-0.661-0.42-1.371-0.42-2.13c0-0.828,0.158-1.55,0.474-2.166
		s0.766-1.084,1.35-1.404c0.583-0.32,1.226-0.479,1.927-0.479c0.795,0,1.464,0.202,2.006,0.606c0.542,0.405,0.92,0.975,1.133,1.708
		l-1.035,0.244c-0.185-0.578-0.452-0.999-0.802-1.263c-0.351-0.265-0.792-0.396-1.323-0.396c-0.611,0-1.121,0.146-1.531,0.439
		s-0.699,0.686-0.865,1.179c-0.167,0.494-0.25,1.003-0.25,1.526c0,0.676,0.099,1.266,0.295,1.771
		c0.197,0.504,0.503,0.881,0.919,1.13c0.416,0.25,0.866,0.374,1.35,0.374c0.589,0,1.088-0.17,1.496-0.51
		C160.645,55.917,160.921,55.412,161.066,54.744z"/>
	<path fill="#939393" d="M172.404,49.582h1.052v4.593c0,0.799-0.09,1.433-0.271,1.902s-0.507,0.853-0.979,1.146
		c-0.472,0.295-1.091,0.442-1.857,0.442c-0.745,0-1.354-0.129-1.827-0.385c-0.474-0.257-0.812-0.628-1.014-1.114
		c-0.202-0.486-0.303-1.15-0.303-1.992v-4.593h1.052v4.587c0,0.69,0.064,1.199,0.192,1.526c0.128,0.327,0.349,0.579,0.661,0.756
		c0.313,0.178,0.695,0.266,1.147,0.266c0.773,0,1.324-0.175,1.653-0.525c0.329-0.351,0.493-1.024,0.493-2.022V49.582z"/>
	<path fill="#939393" d="M178.998,57.53v-7.948h3.524c0.708,0,1.247,0.072,1.615,0.215s0.663,0.395,0.884,0.756
		c0.22,0.361,0.331,0.761,0.331,1.198c0,0.563-0.183,1.039-0.547,1.426c-0.365,0.387-0.929,0.633-1.691,0.737
		c0.278,0.134,0.49,0.266,0.634,0.396c0.307,0.282,0.598,0.635,0.873,1.058l1.383,2.163h-1.323l-1.052-1.653
		c-0.308-0.478-0.561-0.843-0.759-1.096s-0.377-0.43-0.534-0.531c-0.157-0.101-0.317-0.171-0.479-0.211
		c-0.119-0.025-0.314-0.038-0.585-0.038h-1.22v3.529H178.998z M180.05,53.09h2.261c0.48,0,0.856-0.05,1.127-0.148
		c0.271-0.1,0.477-0.259,0.618-0.478c0.141-0.219,0.211-0.456,0.211-0.713c0-0.376-0.137-0.685-0.41-0.927s-0.704-0.363-1.293-0.363
		h-2.515V53.09z"/>
	<path fill="#939393" d="M190.954,57.53v-7.948h1.052v7.948H190.954z"/>
	<path fill="#939393" d="M199.657,57.53v-7.01h-2.619v-0.938h6.3v0.938h-2.629v7.01H199.657z"/>
	<path fill="#939393" d="M208.371,57.53v-7.948h1.052v7.948H208.371z"/>
	<path fill="#939393" d="M215.073,57.53v-7.948h5.747v0.938h-4.695v2.435h4.396v0.932h-4.396v2.706h4.879v0.938H215.073z"/>
	<path fill="#939393" d="M225.874,54.977l0.992-0.087c0.047,0.398,0.156,0.725,0.328,0.979c0.172,0.255,0.438,0.461,0.8,0.618
		c0.361,0.157,0.768,0.236,1.22,0.236c0.401,0,0.755-0.06,1.063-0.179c0.307-0.12,0.536-0.283,0.686-0.491
		c0.15-0.208,0.225-0.435,0.225-0.68c0-0.25-0.072-0.468-0.217-0.653c-0.145-0.187-0.383-0.343-0.715-0.47
		c-0.213-0.083-0.685-0.212-1.415-0.388c-0.73-0.175-1.242-0.34-1.534-0.496c-0.38-0.198-0.663-0.445-0.849-0.739
		c-0.186-0.295-0.279-0.625-0.279-0.989c0-0.401,0.114-0.776,0.342-1.125c0.228-0.35,0.56-0.614,0.998-0.795
		c0.437-0.181,0.923-0.271,1.458-0.271c0.589,0,1.109,0.095,1.559,0.284c0.45,0.189,0.796,0.469,1.038,0.838
		c0.242,0.368,0.372,0.786,0.39,1.252l-1.008,0.076c-0.054-0.502-0.238-0.882-0.55-1.139s-0.774-0.385-1.385-0.385
		c-0.636,0-1.1,0.116-1.391,0.35s-0.436,0.515-0.436,0.843c0,0.286,0.103,0.521,0.309,0.705c0.203,0.185,0.731,0.373,1.586,0.566
		c0.854,0.193,1.441,0.362,1.759,0.507c0.462,0.214,0.804,0.483,1.024,0.811c0.221,0.327,0.331,0.704,0.331,1.131
		c0,0.423-0.121,0.821-0.363,1.195s-0.59,0.665-1.044,0.873c-0.454,0.207-0.964,0.312-1.531,0.312c-0.719,0-1.322-0.105-1.808-0.314
		c-0.486-0.21-0.867-0.525-1.144-0.946C226.034,55.984,225.888,55.508,225.874,54.977z"/>
	<path fill="#939393" d="M244.451,57.53v-7.948h1.052v7.948H244.451z"/>
	<path fill="#939393" d="M251.121,57.53v-7.948h1.079l4.174,6.24v-6.24h1.009v7.948h-1.079l-4.174-6.245v6.245H251.121z"/>
	<path fill="#939393" d="M265.197,57.53l-3.079-7.948h1.139l2.065,5.774c0.166,0.463,0.306,0.896,0.417,1.301
		c0.123-0.434,0.266-0.867,0.429-1.301l2.146-5.774h1.074l-3.112,7.948H265.197z"/>
	<path fill="#939393" d="M274.127,57.53v-7.948h5.747v0.938h-4.695v2.435h4.397v0.932h-4.397v2.706h4.88v0.938H274.127z"/>
	<path fill="#939393" d="M284.929,54.977l0.992-0.087c0.047,0.398,0.156,0.725,0.328,0.979c0.171,0.255,0.438,0.461,0.799,0.618
		s0.769,0.236,1.22,0.236c0.401,0,0.756-0.06,1.063-0.179c0.307-0.12,0.535-0.283,0.686-0.491c0.149-0.208,0.225-0.435,0.225-0.68
		c0-0.25-0.072-0.468-0.217-0.653c-0.145-0.187-0.383-0.343-0.716-0.47c-0.213-0.083-0.685-0.212-1.415-0.388
		c-0.729-0.175-1.241-0.34-1.534-0.496c-0.379-0.198-0.662-0.445-0.848-0.739c-0.187-0.295-0.279-0.625-0.279-0.989
		c0-0.401,0.113-0.776,0.341-1.125c0.229-0.35,0.561-0.614,0.998-0.795s0.923-0.271,1.458-0.271c0.589,0,1.108,0.095,1.559,0.284
		s0.796,0.469,1.038,0.838c0.242,0.368,0.373,0.786,0.391,1.252l-1.009,0.076c-0.054-0.502-0.237-0.882-0.55-1.139
		s-0.774-0.385-1.385-0.385c-0.637,0-1.1,0.116-1.391,0.35s-0.437,0.515-0.437,0.843c0,0.286,0.103,0.521,0.309,0.705
		c0.202,0.185,0.731,0.373,1.586,0.566s1.441,0.362,1.759,0.507c0.463,0.214,0.805,0.483,1.025,0.811
		c0.22,0.327,0.33,0.704,0.33,1.131c0,0.423-0.121,0.821-0.363,1.195s-0.59,0.665-1.043,0.873c-0.454,0.207-0.965,0.312-1.532,0.312
		c-0.719,0-1.321-0.105-1.808-0.314c-0.486-0.21-0.867-0.525-1.144-0.946S284.943,55.508,284.929,54.977z"/>
	<path fill="#939393" d="M298.49,57.53v-7.01h-2.619v-0.938h6.3v0.938h-2.629v7.01H298.49z"/>
	<path fill="#939393" d="M306.992,57.53v-7.948h1.583l1.881,5.628c0.174,0.524,0.3,0.916,0.38,1.177
		c0.09-0.289,0.231-0.714,0.423-1.274l1.902-5.53h1.415v7.948h-1.014v-6.652l-2.31,6.652h-0.948l-2.299-6.766v6.766H306.992z"/>
	<path fill="#939393" d="M320.07,57.53v-7.948h5.747v0.938h-4.695v2.435h4.397v0.932h-4.397v2.706h4.88v0.938H320.07z"/>
	<path fill="#939393" d="M331.218,57.53v-7.948h1.079l4.174,6.24v-6.24h1.009v7.948h-1.079l-4.174-6.245v6.245H331.218z"/>
	<path fill="#939393" d="M345.044,57.53v-7.01h-2.619v-0.938h6.3v0.938h-2.629v7.01H345.044z"/>
	<path fill="#939393" d="M365.909,54.744l1.052,0.266c-0.221,0.863-0.617,1.522-1.19,1.976c-0.572,0.454-1.272,0.681-2.101,0.681
		c-0.856,0-1.553-0.175-2.09-0.523c-0.536-0.349-0.945-0.854-1.226-1.516c-0.279-0.661-0.42-1.371-0.42-2.13
		c0-0.828,0.158-1.55,0.475-2.166s0.767-1.084,1.35-1.404c0.584-0.32,1.227-0.479,1.928-0.479c0.795,0,1.464,0.202,2.006,0.606
		c0.542,0.405,0.92,0.975,1.133,1.708l-1.035,0.244c-0.185-0.578-0.452-0.999-0.803-1.263c-0.351-0.265-0.791-0.396-1.322-0.396
		c-0.611,0-1.122,0.146-1.532,0.439s-0.698,0.686-0.864,1.179c-0.166,0.494-0.249,1.003-0.249,1.526
		c0,0.676,0.098,1.266,0.295,1.771c0.197,0.504,0.503,0.881,0.919,1.13c0.416,0.25,0.865,0.374,1.35,0.374
		c0.59,0,1.088-0.17,1.497-0.51C365.489,55.917,365.765,55.412,365.909,54.744z"/>
	<path fill="#939393" d="M371.712,53.659c0-1.319,0.354-2.352,1.063-3.098c0.708-0.747,1.622-1.12,2.743-1.12
		c0.733,0,1.395,0.176,1.984,0.526c0.589,0.351,1.038,0.839,1.347,1.466c0.31,0.627,0.464,1.339,0.464,2.134
		c0,0.806-0.163,1.527-0.488,2.163s-0.786,1.117-1.382,1.444c-0.597,0.327-1.24,0.491-1.931,0.491c-0.748,0-1.417-0.181-2.006-0.542
		s-1.035-0.855-1.339-1.48S371.712,54.357,371.712,53.659z M372.796,53.676c0,0.958,0.258,1.712,0.772,2.264
		c0.515,0.551,1.161,0.826,1.938,0.826c0.791,0,1.442-0.278,1.954-0.835s0.768-1.346,0.768-2.369c0-0.646-0.109-1.211-0.328-1.694
		c-0.219-0.482-0.539-0.856-0.96-1.122s-0.894-0.398-1.418-0.398c-0.744,0-1.385,0.256-1.922,0.768
		C373.065,51.626,372.796,52.479,372.796,53.676z"/>
	<path fill="#939393" d="M384.433,57.53v-7.948h1.079l4.174,6.24v-6.24h1.009v7.948h-1.079l-4.174-6.245v6.245H384.433z"/>
	<path fill="#939393" d="M395.879,54.977l0.992-0.087c0.047,0.398,0.156,0.725,0.328,0.979c0.171,0.255,0.438,0.461,0.799,0.618
		s0.769,0.236,1.22,0.236c0.401,0,0.756-0.06,1.063-0.179c0.307-0.12,0.535-0.283,0.686-0.491c0.149-0.208,0.225-0.435,0.225-0.68
		c0-0.25-0.072-0.468-0.217-0.653c-0.145-0.187-0.383-0.343-0.716-0.47c-0.213-0.083-0.685-0.212-1.415-0.388
		c-0.729-0.175-1.241-0.34-1.534-0.496c-0.379-0.198-0.662-0.445-0.848-0.739c-0.187-0.295-0.279-0.625-0.279-0.989
		c0-0.401,0.113-0.776,0.341-1.125c0.229-0.35,0.561-0.614,0.998-0.795s0.923-0.271,1.458-0.271c0.589,0,1.108,0.095,1.559,0.284
		s0.796,0.469,1.038,0.838c0.242,0.368,0.373,0.786,0.391,1.252l-1.009,0.076c-0.054-0.502-0.237-0.882-0.55-1.139
		s-0.774-0.385-1.385-0.385c-0.637,0-1.1,0.116-1.391,0.35s-0.437,0.515-0.437,0.843c0,0.286,0.103,0.521,0.309,0.705
		c0.202,0.185,0.731,0.373,1.586,0.566s1.441,0.362,1.759,0.507c0.463,0.214,0.805,0.483,1.025,0.811
		c0.22,0.327,0.33,0.704,0.33,1.131c0,0.423-0.121,0.821-0.363,1.195s-0.59,0.665-1.043,0.873c-0.454,0.207-0.965,0.312-1.532,0.312
		c-0.719,0-1.321-0.105-1.808-0.314c-0.486-0.21-0.867-0.525-1.144-0.946S395.893,55.508,395.879,54.977z"/>
	<path fill="#939393" d="M412.633,49.582h1.052v4.593c0,0.799-0.091,1.433-0.271,1.902s-0.507,0.853-0.979,1.146
		c-0.472,0.295-1.091,0.442-1.856,0.442c-0.745,0-1.354-0.129-1.827-0.385c-0.474-0.257-0.812-0.628-1.014-1.114
		c-0.203-0.486-0.304-1.15-0.304-1.992v-4.593h1.052v4.587c0,0.69,0.063,1.199,0.192,1.526c0.128,0.327,0.349,0.579,0.661,0.756
		c0.313,0.178,0.695,0.266,1.146,0.266c0.773,0,1.325-0.175,1.653-0.525c0.329-0.351,0.494-1.024,0.494-2.022V49.582z"/>
	<path fill="#939393" d="M419.167,57.53v-7.948h1.052v7.011h3.914v0.938H419.167z"/>
	<path fill="#939393" d="M430.359,57.53v-7.01h-2.619v-0.938h6.3v0.938h-2.629v7.01H430.359z"/>
	<path fill="#939393" d="M437.197,57.53l3.053-7.948h1.133l3.253,7.948h-1.198l-0.927-2.407h-3.323l-0.873,2.407H437.197z
		 M439.49,54.267h2.694l-0.83-2.201c-0.253-0.669-0.44-1.218-0.563-1.648c-0.102,0.51-0.244,1.016-0.429,1.519L439.49,54.267z"/>
	<path fill="#939393" d="M449.24,57.53v-7.948h1.079l4.174,6.24v-6.24h1.009v7.948h-1.079l-4.174-6.245v6.245H449.24z"/>
	<path fill="#939393" d="M463.066,57.53v-7.01h-2.619v-0.938h6.3v0.938h-2.629v7.01H463.066z"/>
</g>
</svg>
